<svg width="512" height="512" viewBox="0 0 512 512" fill="none" xmlns="http://www.w3.org/2000/svg">
<g clip-path="url(#clip0_96_370)">
<rect width="512" height="512" fill="white"/>
<g filter="url(#filter0_d_96_370)">
<path d="M312.882 331.5H316.132V334H261.382V331.5H264.632C268.965 331.5 272.632 330 275.632 327C278.799 323.833 280.465 320.083 280.632 315.75V177C280.465 172.667 278.799 169 275.632 166C272.632 163 268.965 161.5 264.632 161.5H261.382V159H316.132V161.5H312.882C308.549 161.5 304.799 163 301.632 166C298.632 169 297.049 172.667 296.882 177V315.75C296.882 320.083 298.465 323.833 301.632 327C304.799 330 308.549 331.5 312.882 331.5ZM486.132 371.5V374C479.799 375.5 473.465 376.25 467.132 376.25C439.799 376.25 413.299 362.583 387.632 335.25L304.882 247L363.882 173C365.215 171.333 365.882 169.833 365.882 168.5C365.882 167.167 365.632 166 365.132 165C363.799 162.5 361.382 161.25 357.882 161.25H355.382V159H408.132V161.25H407.132C396.132 161.25 387.132 165.167 380.132 173L321.882 240.25L406.882 331C417.882 342.833 430.215 352.5 443.882 360C457.715 367.667 471.799 371.5 486.132 371.5Z" fill="black"/>
<path d="M80.7607 150.5C91.5941 146 102.011 143.75 112.011 143.75C120.344 143.75 128.927 146.833 137.761 153C142.594 156.333 148.011 162.833 154.011 172.5C158.011 179.167 163.094 191.25 169.261 208.75L199.761 295.25C206.761 314.583 213.844 329.917 221.011 341.25C228.344 352.75 235.011 361.333 241.011 367C247.011 372.833 253.261 376.917 259.761 379.25C266.261 381.583 271.594 382.75 275.761 382.75C280.094 382.75 283.927 382.417 287.261 381.75L287.511 384.25C279.511 386.917 271.677 388.25 264.011 388.25C256.344 388.25 248.677 386.25 241.011 382.25C233.344 378.417 226.177 373 219.511 366C205.177 351.5 193.011 329.417 183.011 299.75L173.261 271.25H104.761L87.5107 315.75C86.6774 317.75 86.2607 319.75 86.2607 321.75C86.2607 323.75 87.0941 325.917 88.7607 328.25C90.5941 330.417 93.3441 331.5 97.0107 331.5H99.0107V334H48.7607V331.5H51.0107C55.0107 331.5 58.9274 330.333 62.7607 328C66.5941 325.5 69.7607 321.833 72.2607 317L134.261 168.5C125.261 155.667 114.094 149.25 100.761 149.25C94.7607 149.25 88.3441 150.5 81.5107 153L80.7607 150.5ZM107.511 263.75H170.761L151.011 205.5C147.177 194.333 143.677 185.583 140.511 179.25L107.511 263.75Z" fill="black"/>
</g>
</g>
<defs>
<filter id="filter0_d_96_370" x="48.7607" y="143.75" width="461.371" height="268.5" filterUnits="userSpaceOnUse" color-interpolation-filters="sRGB">
<feFlood flood-opacity="0" result="BackgroundImageFix"/>
<feColorMatrix in="SourceAlpha" type="matrix" values="0 0 0 0 0 0 0 0 0 0 0 0 0 0 0 0 0 0 127 0" result="hardAlpha"/>
<feOffset dx="20" dy="20"/>
<feGaussianBlur stdDeviation="2"/>
<feComposite in2="hardAlpha" operator="out"/>
<feColorMatrix type="matrix" values="0 0 0 0 0 0 0 0 0 0 0 0 0 0 0 0 0 0 0.25 0"/>
<feBlend mode="normal" in2="BackgroundImageFix" result="effect1_dropShadow_96_370"/>
<feBlend mode="normal" in="SourceGraphic" in2="effect1_dropShadow_96_370" result="shape"/>
</filter>
<clipPath id="clip0_96_370">
<rect width="512" height="512" fill="white"/>
</clipPath>
</defs>
</svg>
