<svg width="775" height="280" viewBox="0 0 775 280" fill="none" xmlns="http://www.w3.org/2000/svg">
<rect width="775" height="280" fill="white"/>
<rect x="61" y="68" width="144" height="144" fill="#DADADA"/>
<path d="M100.252 138.63L99.888 141.57H101.876V142.34H99.79L99.468 145H98.712L99.034 142.34H96.164L95.828 145H95.072L95.394 142.34H93.406V141.57H95.492L95.856 138.63H93.854V137.86H95.954L96.276 135.2H97.046L96.71 137.86H99.594L99.916 135.2H100.672L100.35 137.86H102.324V138.63H100.252ZM99.496 138.63H96.626L96.248 141.57H99.132L99.496 138.63ZM104.344 135.2H108.334C109.37 135.2 110.285 135.41 111.078 135.83C111.871 136.241 112.487 136.819 112.926 137.566C113.365 138.303 113.584 139.148 113.584 140.1C113.584 141.052 113.365 141.901 112.926 142.648C112.487 143.385 111.871 143.964 111.078 144.384C110.285 144.795 109.37 145 108.334 145H104.344V135.2ZM108.278 144.104C109.137 144.104 109.888 143.936 110.532 143.6C111.176 143.255 111.675 142.783 112.03 142.186C112.385 141.579 112.562 140.884 112.562 140.1C112.562 139.316 112.385 138.625 112.03 138.028C111.675 137.421 111.176 136.95 110.532 136.614C109.888 136.269 109.137 136.096 108.278 136.096H105.38V144.104H108.278ZM119.914 135.116C121.184 135.116 122.182 135.489 122.91 136.236C123.648 136.973 124.016 138.042 124.016 139.442V145H122.994V142.116H116.834V145H115.826V139.442C115.826 138.042 116.19 136.973 116.918 136.236C117.656 135.489 118.654 135.116 119.914 135.116ZM122.994 141.22V139.344C122.994 138.252 122.724 137.431 122.182 136.88C121.641 136.32 120.885 136.04 119.914 136.04C118.944 136.04 118.188 136.32 117.646 136.88C117.105 137.431 116.834 138.252 116.834 139.344V141.22H122.994ZM127.121 135.2H131.111C132.147 135.2 133.062 135.41 133.855 135.83C134.649 136.241 135.265 136.819 135.703 137.566C136.142 138.303 136.361 139.148 136.361 140.1C136.361 141.052 136.142 141.901 135.703 142.648C135.265 143.385 134.649 143.964 133.855 144.384C133.062 144.795 132.147 145 131.111 145H127.121V135.2ZM131.055 144.104C131.914 144.104 132.665 143.936 133.309 143.6C133.953 143.255 134.453 142.783 134.807 142.186C135.162 141.579 135.339 140.884 135.339 140.1C135.339 139.316 135.162 138.625 134.807 138.028C134.453 137.421 133.953 136.95 133.309 136.614C132.665 136.269 131.914 136.096 131.055 136.096H128.157V144.104H131.055ZM142.692 135.116C143.961 135.116 144.96 135.489 145.688 136.236C146.425 136.973 146.794 138.042 146.794 139.442V145H145.772V142.116H139.612V145H138.604V139.442C138.604 138.042 138.968 136.973 139.696 136.236C140.433 135.489 141.432 135.116 142.692 135.116ZM145.772 141.22V139.344C145.772 138.252 145.501 137.431 144.96 136.88C144.418 136.32 143.662 136.04 142.692 136.04C141.721 136.04 140.965 136.32 140.424 136.88C139.882 137.431 139.612 138.252 139.612 139.344V141.22H145.772ZM149.899 135.2H153.889C154.925 135.2 155.839 135.41 156.633 135.83C157.426 136.241 158.042 136.819 158.481 137.566C158.919 138.303 159.139 139.148 159.139 140.1C159.139 141.052 158.919 141.901 158.481 142.648C158.042 143.385 157.426 143.964 156.633 144.384C155.839 144.795 154.925 145 153.889 145H149.899V135.2ZM153.833 144.104C154.691 144.104 155.443 143.936 156.087 143.6C156.731 143.255 157.23 142.783 157.585 142.186C157.939 141.579 158.117 140.884 158.117 140.1C158.117 139.316 157.939 138.625 157.585 138.028C157.23 137.421 156.731 136.95 156.087 136.614C155.443 136.269 154.691 136.096 153.833 136.096H150.935V144.104H153.833ZM165.469 135.116C166.738 135.116 167.737 135.489 168.465 136.236C169.202 136.973 169.571 138.042 169.571 139.442V145H168.549V142.116H162.389V145H161.381V139.442C161.381 138.042 161.745 136.973 162.473 136.236C163.21 135.489 164.209 135.116 165.469 135.116ZM168.549 141.22V139.344C168.549 138.252 168.278 137.431 167.737 136.88C167.196 136.32 166.44 136.04 165.469 136.04C164.498 136.04 163.742 136.32 163.201 136.88C162.66 137.431 162.389 138.252 162.389 139.344V141.22H168.549Z" fill="black"/>
<rect x="231" y="68" width="144" height="144" fill="#A6A6A6"/>
<path d="M275.252 138.63L274.888 141.57H276.876V142.34H274.79L274.468 145H273.712L274.034 142.34H271.164L270.828 145H270.072L270.394 142.34H268.406V141.57H270.492L270.856 138.63H268.854V137.86H270.954L271.276 135.2H272.046L271.71 137.86H274.594L274.916 135.2H275.672L275.35 137.86H277.324V138.63H275.252ZM274.496 138.63H271.626L271.248 141.57H274.132L274.496 138.63ZM283.348 135.116C284.617 135.116 285.616 135.489 286.344 136.236C287.081 136.973 287.45 138.042 287.45 139.442V145H286.428V142.116H280.268V145H279.26V139.442C279.26 138.042 279.624 136.973 280.352 136.236C281.089 135.489 282.088 135.116 283.348 135.116ZM286.428 141.22V139.344C286.428 138.252 286.157 137.431 285.616 136.88C285.075 136.32 284.319 136.04 283.348 136.04C282.377 136.04 281.621 136.32 281.08 136.88C280.539 137.431 280.268 138.252 280.268 139.344V141.22H286.428ZM293.747 139.134C294.391 139.134 294.96 139.255 295.455 139.498C295.959 139.741 296.351 140.086 296.631 140.534C296.911 140.973 297.051 141.486 297.051 142.074C297.051 142.671 296.906 143.199 296.617 143.656C296.328 144.113 295.926 144.468 295.413 144.72C294.909 144.963 294.34 145.084 293.705 145.084C292.408 145.084 291.414 144.659 290.723 143.81C290.032 142.951 289.687 141.743 289.687 140.184C289.687 139.092 289.874 138.168 290.247 137.412C290.62 136.656 291.143 136.087 291.815 135.704C292.487 135.312 293.271 135.116 294.167 135.116C295.138 135.116 295.912 135.293 296.491 135.648L296.085 136.46C295.618 136.152 294.984 135.998 294.181 135.998C293.098 135.998 292.249 136.343 291.633 137.034C291.017 137.715 290.709 138.709 290.709 140.016C290.709 140.249 290.723 140.515 290.751 140.814C290.994 140.282 291.381 139.871 291.913 139.582C292.445 139.283 293.056 139.134 293.747 139.134ZM293.663 144.23C294.372 144.23 294.946 144.039 295.385 143.656C295.833 143.264 296.057 142.746 296.057 142.102C296.057 141.458 295.833 140.945 295.385 140.562C294.946 140.179 294.349 139.988 293.593 139.988C293.098 139.988 292.66 140.081 292.277 140.268C291.904 140.455 291.61 140.711 291.395 141.038C291.18 141.365 291.073 141.729 291.073 142.13C291.073 142.503 291.171 142.849 291.367 143.166C291.572 143.483 291.871 143.74 292.263 143.936C292.655 144.132 293.122 144.23 293.663 144.23ZM303.09 135.116C304.36 135.116 305.358 135.489 306.086 136.236C306.824 136.973 307.192 138.042 307.192 139.442V145H306.17V142.116H300.01V145H299.002V139.442C299.002 138.042 299.366 136.973 300.094 136.236C300.832 135.489 301.83 135.116 303.09 135.116ZM306.17 141.22V139.344C306.17 138.252 305.9 137.431 305.358 136.88C304.817 136.32 304.061 136.04 303.09 136.04C302.12 136.04 301.364 136.32 300.822 136.88C300.281 137.431 300.01 138.252 300.01 139.344V141.22H306.17ZM313.489 139.134C314.133 139.134 314.703 139.255 315.197 139.498C315.701 139.741 316.093 140.086 316.373 140.534C316.653 140.973 316.793 141.486 316.793 142.074C316.793 142.671 316.649 143.199 316.359 143.656C316.07 144.113 315.669 144.468 315.155 144.72C314.651 144.963 314.082 145.084 313.447 145.084C312.15 145.084 311.156 144.659 310.465 143.81C309.775 142.951 309.429 141.743 309.429 140.184C309.429 139.092 309.616 138.168 309.989 137.412C310.363 136.656 310.885 136.087 311.557 135.704C312.229 135.312 313.013 135.116 313.909 135.116C314.88 135.116 315.655 135.293 316.233 135.648L315.827 136.46C315.361 136.152 314.726 135.998 313.923 135.998C312.841 135.998 311.991 136.343 311.375 137.034C310.759 137.715 310.451 138.709 310.451 140.016C310.451 140.249 310.465 140.515 310.493 140.814C310.736 140.282 311.123 139.871 311.655 139.582C312.187 139.283 312.799 139.134 313.489 139.134ZM313.405 144.23C314.115 144.23 314.689 144.039 315.127 143.656C315.575 143.264 315.799 142.746 315.799 142.102C315.799 141.458 315.575 140.945 315.127 140.562C314.689 140.179 314.091 139.988 313.335 139.988C312.841 139.988 312.402 140.081 312.019 140.268C311.646 140.455 311.352 140.711 311.137 141.038C310.923 141.365 310.815 141.729 310.815 142.13C310.815 142.503 310.913 142.849 311.109 143.166C311.315 143.483 311.613 143.74 312.005 143.936C312.397 144.132 312.864 144.23 313.405 144.23ZM322.832 135.116C324.102 135.116 325.1 135.489 325.828 136.236C326.566 136.973 326.934 138.042 326.934 139.442V145H325.912V142.116H319.752V145H318.744V139.442C318.744 138.042 319.108 136.973 319.836 136.236C320.574 135.489 321.572 135.116 322.832 135.116ZM325.912 141.22V139.344C325.912 138.252 325.642 137.431 325.1 136.88C324.559 136.32 323.803 136.04 322.832 136.04C321.862 136.04 321.106 136.32 320.564 136.88C320.023 137.431 319.752 138.252 319.752 139.344V141.22H325.912ZM333.231 139.134C333.875 139.134 334.445 139.255 334.939 139.498C335.443 139.741 335.835 140.086 336.115 140.534C336.395 140.973 336.535 141.486 336.535 142.074C336.535 142.671 336.391 143.199 336.101 143.656C335.812 144.113 335.411 144.468 334.897 144.72C334.393 144.963 333.824 145.084 333.189 145.084C331.892 145.084 330.898 144.659 330.207 143.81C329.517 142.951 329.171 141.743 329.171 140.184C329.171 139.092 329.358 138.168 329.731 137.412C330.105 136.656 330.627 136.087 331.299 135.704C331.971 135.312 332.755 135.116 333.651 135.116C334.622 135.116 335.397 135.293 335.975 135.648L335.569 136.46C335.103 136.152 334.468 135.998 333.665 135.998C332.583 135.998 331.733 136.343 331.117 137.034C330.501 137.715 330.193 138.709 330.193 140.016C330.193 140.249 330.207 140.515 330.235 140.814C330.478 140.282 330.865 139.871 331.397 139.582C331.929 139.283 332.541 139.134 333.231 139.134ZM333.147 144.23C333.857 144.23 334.431 144.039 334.869 143.656C335.317 143.264 335.541 142.746 335.541 142.102C335.541 141.458 335.317 140.945 334.869 140.562C334.431 140.179 333.833 139.988 333.077 139.988C332.583 139.988 332.144 140.081 331.761 140.268C331.388 140.455 331.094 140.711 330.879 141.038C330.665 141.365 330.557 141.729 330.557 142.13C330.557 142.503 330.655 142.849 330.851 143.166C331.057 143.483 331.355 143.74 331.747 143.936C332.139 144.132 332.606 144.23 333.147 144.23Z" fill="black"/>
<rect x="401" y="68" width="144" height="144" fill="black"/>
<path d="M447.252 138.63L446.888 141.57H448.876V142.34H446.79L446.468 145H445.712L446.034 142.34H443.164L442.828 145H442.072L442.394 142.34H440.406V141.57H442.492L442.856 138.63H440.854V137.86H442.954L443.276 135.2H444.046L443.71 137.86H446.594L446.916 135.2H447.672L447.35 137.86H449.324V138.63H447.252ZM446.496 138.63H443.626L443.248 141.57H446.132L446.496 138.63ZM454.382 145.084C453.626 145.084 452.949 144.883 452.352 144.482C451.764 144.081 451.302 143.507 450.966 142.76C450.639 142.004 450.476 141.117 450.476 140.1C450.476 139.083 450.639 138.201 450.966 137.454C451.302 136.698 451.764 136.119 452.352 135.718C452.949 135.317 453.626 135.116 454.382 135.116C455.138 135.116 455.81 135.317 456.398 135.718C456.995 136.119 457.462 136.698 457.798 137.454C458.134 138.201 458.302 139.083 458.302 140.1C458.302 141.117 458.134 142.004 457.798 142.76C457.462 143.507 456.995 144.081 456.398 144.482C455.81 144.883 455.138 145.084 454.382 145.084ZM454.382 144.16C454.951 144.16 455.451 144.001 455.88 143.684C456.319 143.367 456.659 142.905 456.902 142.298C457.145 141.691 457.266 140.959 457.266 140.1C457.266 139.241 457.145 138.509 456.902 137.902C456.659 137.295 456.319 136.833 455.88 136.516C455.451 136.199 454.951 136.04 454.382 136.04C453.813 136.04 453.309 136.199 452.87 136.516C452.441 136.833 452.105 137.295 451.862 137.902C451.619 138.509 451.498 139.241 451.498 140.1C451.498 140.959 451.619 141.691 451.862 142.298C452.105 142.905 452.441 143.367 452.87 143.684C453.309 144.001 453.813 144.16 454.382 144.16ZM463.652 145.084C462.896 145.084 462.219 144.883 461.622 144.482C461.034 144.081 460.572 143.507 460.236 142.76C459.909 142.004 459.746 141.117 459.746 140.1C459.746 139.083 459.909 138.201 460.236 137.454C460.572 136.698 461.034 136.119 461.622 135.718C462.219 135.317 462.896 135.116 463.652 135.116C464.408 135.116 465.08 135.317 465.668 135.718C466.265 136.119 466.732 136.698 467.068 137.454C467.404 138.201 467.572 139.083 467.572 140.1C467.572 141.117 467.404 142.004 467.068 142.76C466.732 143.507 466.265 144.081 465.668 144.482C465.08 144.883 464.408 145.084 463.652 145.084ZM463.652 144.16C464.221 144.16 464.72 144.001 465.15 143.684C465.588 143.367 465.929 142.905 466.172 142.298C466.414 141.691 466.536 140.959 466.536 140.1C466.536 139.241 466.414 138.509 466.172 137.902C465.929 137.295 465.588 136.833 465.15 136.516C464.72 136.199 464.221 136.04 463.652 136.04C463.082 136.04 462.578 136.199 462.14 136.516C461.71 136.833 461.374 137.295 461.132 137.902C460.889 138.509 460.768 139.241 460.768 140.1C460.768 140.959 460.889 141.691 461.132 142.298C461.374 142.905 461.71 143.367 462.14 143.684C462.578 144.001 463.082 144.16 463.652 144.16ZM472.921 145.084C472.165 145.084 471.488 144.883 470.891 144.482C470.303 144.081 469.841 143.507 469.505 142.76C469.178 142.004 469.015 141.117 469.015 140.1C469.015 139.083 469.178 138.201 469.505 137.454C469.841 136.698 470.303 136.119 470.891 135.718C471.488 135.317 472.165 135.116 472.921 135.116C473.677 135.116 474.349 135.317 474.937 135.718C475.534 136.119 476.001 136.698 476.337 137.454C476.673 138.201 476.841 139.083 476.841 140.1C476.841 141.117 476.673 142.004 476.337 142.76C476.001 143.507 475.534 144.081 474.937 144.482C474.349 144.883 473.677 145.084 472.921 145.084ZM472.921 144.16C473.49 144.16 473.99 144.001 474.419 143.684C474.858 143.367 475.198 142.905 475.441 142.298C475.684 141.691 475.805 140.959 475.805 140.1C475.805 139.241 475.684 138.509 475.441 137.902C475.198 137.295 474.858 136.833 474.419 136.516C473.99 136.199 473.49 136.04 472.921 136.04C472.352 136.04 471.848 136.199 471.409 136.516C470.98 136.833 470.644 137.295 470.401 137.902C470.158 138.509 470.037 139.241 470.037 140.1C470.037 140.959 470.158 141.691 470.401 142.298C470.644 142.905 470.98 143.367 471.409 143.684C471.848 144.001 472.352 144.16 472.921 144.16ZM482.191 145.084C481.435 145.084 480.758 144.883 480.161 144.482C479.573 144.081 479.111 143.507 478.775 142.76C478.448 142.004 478.285 141.117 478.285 140.1C478.285 139.083 478.448 138.201 478.775 137.454C479.111 136.698 479.573 136.119 480.161 135.718C480.758 135.317 481.435 135.116 482.191 135.116C482.947 135.116 483.619 135.317 484.207 135.718C484.804 136.119 485.271 136.698 485.607 137.454C485.943 138.201 486.111 139.083 486.111 140.1C486.111 141.117 485.943 142.004 485.607 142.76C485.271 143.507 484.804 144.081 484.207 144.482C483.619 144.883 482.947 145.084 482.191 145.084ZM482.191 144.16C482.76 144.16 483.259 144.001 483.689 143.684C484.127 143.367 484.468 142.905 484.711 142.298C484.953 141.691 485.075 140.959 485.075 140.1C485.075 139.241 484.953 138.509 484.711 137.902C484.468 137.295 484.127 136.833 483.689 136.516C483.259 136.199 482.76 136.04 482.191 136.04C481.621 136.04 481.117 136.199 480.679 136.516C480.249 136.833 479.913 137.295 479.671 137.902C479.428 138.509 479.307 139.241 479.307 140.1C479.307 140.959 479.428 141.691 479.671 142.298C479.913 142.905 480.249 143.367 480.679 143.684C481.117 144.001 481.621 144.16 482.191 144.16ZM491.46 145.084C490.704 145.084 490.028 144.883 489.43 144.482C488.842 144.081 488.38 143.507 488.044 142.76C487.718 142.004 487.554 141.117 487.554 140.1C487.554 139.083 487.718 138.201 488.044 137.454C488.38 136.698 488.842 136.119 489.43 135.718C490.028 135.317 490.704 135.116 491.46 135.116C492.216 135.116 492.888 135.317 493.476 135.718C494.074 136.119 494.54 136.698 494.876 137.454C495.212 138.201 495.38 139.083 495.38 140.1C495.38 141.117 495.212 142.004 494.876 142.76C494.54 143.507 494.074 144.081 493.476 144.482C492.888 144.883 492.216 145.084 491.46 145.084ZM491.46 144.16C492.03 144.16 492.529 144.001 492.958 143.684C493.397 143.367 493.738 142.905 493.98 142.298C494.223 141.691 494.344 140.959 494.344 140.1C494.344 139.241 494.223 138.509 493.98 137.902C493.738 137.295 493.397 136.833 492.958 136.516C492.529 136.199 492.03 136.04 491.46 136.04C490.891 136.04 490.387 136.199 489.948 136.516C489.519 136.833 489.183 137.295 488.94 137.902C488.698 138.509 488.576 139.241 488.576 140.1C488.576 140.959 488.698 141.691 488.94 142.298C489.183 142.905 489.519 143.367 489.948 143.684C490.387 144.001 490.891 144.16 491.46 144.16ZM500.73 145.084C499.974 145.084 499.297 144.883 498.7 144.482C498.112 144.081 497.65 143.507 497.314 142.76C496.987 142.004 496.824 141.117 496.824 140.1C496.824 139.083 496.987 138.201 497.314 137.454C497.65 136.698 498.112 136.119 498.7 135.718C499.297 135.317 499.974 135.116 500.73 135.116C501.486 135.116 502.158 135.317 502.746 135.718C503.343 136.119 503.81 136.698 504.146 137.454C504.482 138.201 504.65 139.083 504.65 140.1C504.65 141.117 504.482 142.004 504.146 142.76C503.81 143.507 503.343 144.081 502.746 144.482C502.158 144.883 501.486 145.084 500.73 145.084ZM500.73 144.16C501.299 144.16 501.798 144.001 502.228 143.684C502.666 143.367 503.007 142.905 503.25 142.298C503.492 141.691 503.614 140.959 503.614 140.1C503.614 139.241 503.492 138.509 503.25 137.902C503.007 137.295 502.666 136.833 502.228 136.516C501.798 136.199 501.299 136.04 500.73 136.04C500.16 136.04 499.656 136.199 499.218 136.516C498.788 136.833 498.452 137.295 498.21 137.902C497.967 138.509 497.846 139.241 497.846 140.1C497.846 140.959 497.967 141.691 498.21 142.298C498.452 142.905 498.788 143.367 499.218 143.684C499.656 144.001 500.16 144.16 500.73 144.16Z" fill="white"/>
<rect x="571" y="68" width="144" height="144" fill="white"/>
<path d="M620.252 138.63L619.888 141.57H621.876V142.34H619.79L619.468 145H618.712L619.034 142.34H616.164L615.828 145H615.072L615.394 142.34H613.406V141.57H615.492L615.856 138.63H613.854V137.86H615.954L616.276 135.2H617.046L616.71 137.86H619.594L619.916 135.2H620.672L620.35 137.86H622.324V138.63H620.252ZM619.496 138.63H616.626L616.248 141.57H619.132L619.496 138.63ZM628.152 136.04C627.191 136.04 626.472 136.259 625.996 136.698C625.529 137.127 625.296 137.753 625.296 138.574V139.946H629.972V140.842H625.296V145H624.26V138.56C624.26 137.487 624.596 136.647 625.268 136.04C625.94 135.424 626.887 135.116 628.11 135.116C629.295 135.116 630.247 135.373 630.966 135.886L630.588 136.74C629.953 136.273 629.141 136.04 628.152 136.04ZM636.218 136.04C635.257 136.04 634.538 136.259 634.062 136.698C633.596 137.127 633.362 137.753 633.362 138.574V139.946H638.038V140.842H633.362V145H632.326V138.56C632.326 137.487 632.662 136.647 633.334 136.04C634.006 135.424 634.954 135.116 636.176 135.116C637.362 135.116 638.314 135.373 639.032 135.886L638.654 136.74C638.02 136.273 637.208 136.04 636.218 136.04ZM644.285 136.04C643.324 136.04 642.605 136.259 642.129 136.698C641.662 137.127 641.429 137.753 641.429 138.574V139.946H646.105V140.842H641.429V145H640.393V138.56C640.393 137.487 640.729 136.647 641.401 136.04C642.073 135.424 643.02 135.116 644.243 135.116C645.428 135.116 646.38 135.373 647.099 135.886L646.721 136.74C646.086 136.273 645.274 136.04 644.285 136.04ZM652.351 136.04C651.39 136.04 650.671 136.259 650.195 136.698C649.729 137.127 649.495 137.753 649.495 138.574V139.946H654.171V140.842H649.495V145H648.459V138.56C648.459 137.487 648.795 136.647 649.467 136.04C650.139 135.424 651.087 135.116 652.309 135.116C653.495 135.116 654.447 135.373 655.165 135.886L654.787 136.74C654.153 136.273 653.341 136.04 652.351 136.04ZM660.418 136.04C659.456 136.04 658.738 136.259 658.262 136.698C657.795 137.127 657.562 137.753 657.562 138.574V139.946H662.238V140.842H657.562V145H656.526V138.56C656.526 137.487 656.862 136.647 657.534 136.04C658.206 135.424 659.153 135.116 660.376 135.116C661.561 135.116 662.513 135.373 663.232 135.886L662.854 136.74C662.219 136.273 661.407 136.04 660.418 136.04ZM668.484 136.04C667.523 136.04 666.804 136.259 666.328 136.698C665.861 137.127 665.628 137.753 665.628 138.574V139.946H670.304V140.842H665.628V145H664.592V138.56C664.592 137.487 664.928 136.647 665.6 136.04C666.272 135.424 667.219 135.116 668.442 135.116C669.627 135.116 670.579 135.373 671.298 135.886L670.92 136.74C670.285 136.273 669.473 136.04 668.484 136.04Z" fill="black"/>
</svg>
