<svg width="775" height="559" viewBox="0 0 775 559" fill="none" xmlns="http://www.w3.org/2000/svg">
<rect width="775" height="559" fill="white"/>
<path d="M138.944 118.864C147.221 118.864 154.432 120.485 160.576 123.728C166.72 126.971 171.499 131.749 174.912 138.064C178.325 144.379 180.032 152.016 180.032 160.976V210H159.296V188.496H118.336V210H97.856V160.976C97.856 152.016 99.5627 144.379 102.976 138.064C106.389 131.749 111.168 126.971 117.312 123.728C123.456 120.485 130.667 118.864 138.944 118.864ZM159.296 171.856V159.056C159.296 151.632 157.461 146.043 153.792 142.288C150.123 138.448 145.131 136.528 138.816 136.528C132.416 136.528 127.381 138.448 123.712 142.288C120.128 146.043 118.336 151.632 118.336 159.056V171.856H159.296ZM268.979 141.136V210H249.907V202.064C244.958 208.037 237.79 211.024 228.403 211.024C221.918 211.024 216.03 209.573 210.739 206.672C205.534 203.771 201.438 199.632 198.451 194.256C195.464 188.88 193.971 182.651 193.971 175.568C193.971 168.485 195.464 162.256 198.451 156.88C201.438 151.504 205.534 147.365 210.739 144.464C216.03 141.563 221.918 140.112 228.403 140.112C237.192 140.112 244.062 142.885 249.011 148.432V141.136H268.979ZM231.859 194.64C236.894 194.64 241.075 192.933 244.403 189.52C247.731 186.021 249.395 181.371 249.395 175.568C249.395 169.765 247.731 165.157 244.403 161.744C241.075 158.245 236.894 156.496 231.859 156.496C226.739 156.496 222.515 158.245 219.187 161.744C215.859 165.157 214.195 169.765 214.195 175.568C214.195 181.371 215.859 186.021 219.187 189.52C222.515 192.933 226.739 194.64 231.859 194.64Z" fill="black"/>
<path d="M418.024 122.96C419.992 122.96 421.528 123.536 422.632 124.688C423.736 125.824 424.288 127.464 424.288 129.608V140H421.168V129.728C421.168 128.4 420.816 127.4 420.112 126.728C419.424 126.04 418.52 125.696 417.4 125.696C416.152 125.696 415.152 126.048 414.4 126.752C413.664 127.456 413.296 128.536 413.296 129.992V140H410.176V129.728C410.176 128.384 409.848 127.376 409.192 126.704C408.552 126.032 407.672 125.696 406.552 125.696C405.288 125.696 404.272 126.056 403.504 126.776C402.752 127.48 402.376 128.552 402.376 129.992V140H399.256V123.2H402.28V125.408C402.792 124.624 403.488 124.024 404.368 123.608C405.248 123.176 406.264 122.96 407.416 122.96C408.6 122.96 409.632 123.184 410.512 123.632C411.392 124.08 412.056 124.712 412.504 125.528C413.064 124.712 413.824 124.08 414.784 123.632C415.76 123.184 416.84 122.96 418.024 122.96ZM434.119 140.168C432.823 140.168 431.655 139.888 430.615 139.328C429.575 138.768 428.759 137.992 428.167 137C427.591 135.992 427.303 134.856 427.303 133.592C427.303 132.328 427.591 131.2 428.167 130.208C428.759 129.216 429.575 128.44 430.615 127.88C431.655 127.32 432.823 127.04 434.119 127.04C435.431 127.04 436.607 127.32 437.647 127.88C438.687 128.44 439.495 129.216 440.071 130.208C440.663 131.2 440.959 132.328 440.959 133.592C440.959 134.856 440.663 135.992 440.071 137C439.495 137.992 438.687 138.768 437.647 139.328C436.607 139.888 435.431 140.168 434.119 140.168ZM434.119 137.6C435.223 137.6 436.135 137.232 436.855 136.496C437.575 135.76 437.935 134.792 437.935 133.592C437.935 132.392 437.575 131.424 436.855 130.688C436.135 129.952 435.223 129.584 434.119 129.584C433.015 129.584 432.103 129.952 431.383 130.688C430.679 131.424 430.327 132.392 430.327 133.592C430.327 134.792 430.679 135.76 431.383 136.496C432.103 137.232 433.015 137.6 434.119 137.6ZM451.099 127.04C452.715 127.04 454.011 127.512 454.987 128.456C455.963 129.4 456.451 130.8 456.451 132.656V140H453.451V133.04C453.451 131.92 453.187 131.08 452.659 130.52C452.131 129.944 451.379 129.656 450.403 129.656C449.299 129.656 448.427 129.992 447.787 130.664C447.147 131.32 446.827 132.272 446.827 133.52V140H443.827V127.184H446.683V128.84C447.179 128.248 447.803 127.8 448.555 127.496C449.307 127.192 450.155 127.04 451.099 127.04ZM467.457 139.304C467.105 139.592 466.673 139.808 466.161 139.952C465.665 140.096 465.137 140.168 464.577 140.168C463.169 140.168 462.081 139.8 461.313 139.064C460.545 138.328 460.161 137.256 460.161 135.848V124.352H463.161V127.28H466.593V129.68H463.161V135.776C463.161 136.4 463.313 136.88 463.617 137.216C463.937 137.536 464.377 137.696 464.937 137.696C465.609 137.696 466.169 137.52 466.617 137.168L467.457 139.304ZM473.897 140.168C472.857 140.168 471.841 140.032 470.849 139.76C469.857 139.488 469.065 139.144 468.473 138.728L469.625 136.448C470.201 136.832 470.889 137.144 471.689 137.384C472.505 137.608 473.305 137.72 474.089 137.72C475.881 137.72 476.777 137.248 476.777 136.304C476.777 135.856 476.545 135.544 476.081 135.368C475.633 135.192 474.905 135.024 473.897 134.864C472.841 134.704 471.977 134.52 471.305 134.312C470.649 134.104 470.073 133.744 469.577 133.232C469.097 132.704 468.857 131.976 468.857 131.048C468.857 129.832 469.361 128.864 470.369 128.144C471.393 127.408 472.769 127.04 474.497 127.04C475.377 127.04 476.257 127.144 477.137 127.352C478.017 127.544 478.737 127.808 479.297 128.144L478.145 130.424C477.057 129.784 475.833 129.464 474.473 129.464C473.593 129.464 472.921 129.6 472.457 129.872C472.009 130.128 471.785 130.472 471.785 130.904C471.785 131.384 472.025 131.728 472.505 131.936C473.001 132.128 473.761 132.312 474.785 132.488C475.809 132.648 476.649 132.832 477.305 133.04C477.961 133.248 478.521 133.6 478.985 134.096C479.465 134.592 479.705 135.296 479.705 136.208C479.705 137.408 479.185 138.368 478.145 139.088C477.105 139.808 475.689 140.168 473.897 140.168ZM488.384 137.624C489.776 137.624 490.936 137.16 491.864 136.232L493.448 138.08C492.888 138.768 492.168 139.288 491.288 139.64C490.408 139.992 489.416 140.168 488.312 140.168C486.904 140.168 485.664 139.888 484.592 139.328C483.52 138.768 482.688 137.992 482.096 137C481.52 135.992 481.232 134.856 481.232 133.592C481.232 132.344 481.512 131.224 482.072 130.232C482.648 129.224 483.432 128.44 484.424 127.88C485.432 127.32 486.568 127.04 487.832 127.04C489.032 127.04 490.12 127.304 491.096 127.832C492.088 128.344 492.872 129.088 493.448 130.064C494.024 131.024 494.312 132.152 494.312 133.448L484.496 135.368C484.8 136.104 485.288 136.664 485.96 137.048C486.632 137.432 487.44 137.624 488.384 137.624ZM487.832 129.44C486.728 129.44 485.832 129.8 485.144 130.52C484.472 131.24 484.136 132.208 484.136 133.424V133.448L491.384 132.056C491.176 131.272 490.752 130.64 490.112 130.16C489.488 129.68 488.728 129.44 487.832 129.44ZM500.051 129.056C500.915 127.712 502.435 127.04 504.611 127.04V129.896C504.355 129.848 504.123 129.824 503.915 129.824C502.747 129.824 501.835 130.168 501.179 130.856C500.523 131.528 500.195 132.504 500.195 133.784V140H497.195V127.184H500.051V129.056ZM510.012 129.056C510.876 127.712 512.396 127.04 514.572 127.04V129.896C514.316 129.848 514.084 129.824 513.876 129.824C512.708 129.824 511.796 130.168 511.14 130.856C510.484 131.528 510.156 132.504 510.156 133.784V140H507.156V127.184H510.012V129.056ZM529.527 127.184V140H526.671V138.344C526.175 138.952 525.559 139.408 524.823 139.712C524.103 140.016 523.303 140.168 522.423 140.168C521.175 140.168 520.055 139.896 519.063 139.352C518.087 138.808 517.319 138.04 516.759 137.048C516.215 136.056 515.943 134.904 515.943 133.592C515.943 132.28 516.215 131.136 516.759 130.16C517.319 129.168 518.087 128.4 519.063 127.856C520.055 127.312 521.175 127.04 522.423 127.04C523.255 127.04 524.015 127.184 524.703 127.472C525.407 127.76 526.015 128.184 526.527 128.744V127.184H529.527ZM522.759 137.6C523.863 137.6 524.775 137.232 525.495 136.496C526.215 135.76 526.575 134.792 526.575 133.592C526.575 132.392 526.215 131.424 525.495 130.688C524.775 129.952 523.863 129.584 522.759 129.584C521.655 129.584 520.743 129.952 520.023 130.688C519.319 131.424 518.967 132.392 518.967 133.592C518.967 134.792 519.319 135.76 520.023 136.496C520.743 137.232 521.655 137.6 522.759 137.6ZM540.652 139.304C540.3 139.592 539.868 139.808 539.356 139.952C538.86 140.096 538.332 140.168 537.772 140.168C536.364 140.168 535.276 139.8 534.508 139.064C533.74 138.328 533.356 137.256 533.356 135.848V124.352H536.356V127.28H539.788V129.68H536.356V135.776C536.356 136.4 536.508 136.88 536.812 137.216C537.132 137.536 537.572 137.696 538.132 137.696C538.804 137.696 539.364 137.52 539.812 137.168L540.652 139.304ZM557.373 122.96C558.877 122.96 560.189 123.256 561.309 123.848C562.429 124.44 563.293 125.32 563.901 126.488C564.525 127.64 564.837 129.04 564.837 130.688V140H561.717V135.68H552.981V140H549.909V130.688C549.909 129.04 550.213 127.64 550.821 126.488C551.445 125.32 552.317 124.44 553.437 123.848C554.557 123.256 555.869 122.96 557.373 122.96ZM561.717 133.064V130.4C561.717 128.848 561.333 127.68 560.565 126.896C559.797 126.096 558.725 125.696 557.349 125.696C555.973 125.696 554.901 126.096 554.133 126.896C553.365 127.68 552.981 128.848 552.981 130.4V133.064H561.717ZM573.137 140.168C571.809 140.168 570.769 139.808 570.017 139.088C569.281 138.352 568.913 137.32 568.913 135.992V122.192H571.913V135.776C571.913 137.056 572.513 137.696 573.713 137.696C574.113 137.696 574.473 137.616 574.793 137.456L574.937 139.856C574.377 140.064 573.777 140.168 573.137 140.168ZM584.176 139.304C583.824 139.592 583.392 139.808 582.88 139.952C582.384 140.096 581.856 140.168 581.296 140.168C579.888 140.168 578.8 139.8 578.032 139.064C577.264 138.328 576.88 137.256 576.88 135.848V124.352H579.88V127.28H583.312V129.68H579.88V135.776C579.88 136.4 580.032 136.88 580.336 137.216C580.656 137.536 581.096 137.696 581.656 137.696C582.328 137.696 582.888 137.52 583.336 137.168L584.176 139.304ZM592.33 137.624C593.722 137.624 594.882 137.16 595.81 136.232L597.394 138.08C596.834 138.768 596.114 139.288 595.234 139.64C594.354 139.992 593.362 140.168 592.258 140.168C590.85 140.168 589.61 139.888 588.538 139.328C587.466 138.768 586.634 137.992 586.042 137C585.466 135.992 585.178 134.856 585.178 133.592C585.178 132.344 585.458 131.224 586.018 130.232C586.594 129.224 587.378 128.44 588.37 127.88C589.378 127.32 590.514 127.04 591.778 127.04C592.978 127.04 594.066 127.304 595.042 127.832C596.034 128.344 596.818 129.088 597.394 130.064C597.97 131.024 598.258 132.152 598.258 133.448L588.442 135.368C588.746 136.104 589.234 136.664 589.906 137.048C590.578 137.432 591.386 137.624 592.33 137.624ZM591.778 129.44C590.674 129.44 589.778 129.8 589.09 130.52C588.418 131.24 588.082 132.208 588.082 133.424V133.448L595.33 132.056C595.122 131.272 594.698 130.64 594.058 130.16C593.434 129.68 592.674 129.44 591.778 129.44ZM603.996 129.056C604.86 127.712 606.38 127.04 608.556 127.04V129.896C608.3 129.848 608.068 129.824 607.86 129.824C606.692 129.824 605.78 130.168 605.124 130.856C604.468 131.528 604.14 132.504 604.14 133.784V140H601.14V127.184H603.996V129.056ZM618.373 127.04C619.989 127.04 621.285 127.512 622.261 128.456C623.237 129.4 623.725 130.8 623.725 132.656V140H620.725V133.04C620.725 131.92 620.461 131.08 619.933 130.52C619.405 129.944 618.653 129.656 617.677 129.656C616.573 129.656 615.701 129.992 615.061 130.664C614.421 131.32 614.101 132.272 614.101 133.52V140H611.101V127.184H613.957V128.84C614.453 128.248 615.077 127.8 615.829 127.496C616.581 127.192 617.429 127.04 618.373 127.04ZM640.176 127.184V140H637.32V138.344C636.824 138.952 636.208 139.408 635.472 139.712C634.752 140.016 633.952 140.168 633.072 140.168C631.824 140.168 630.704 139.896 629.712 139.352C628.736 138.808 627.968 138.04 627.408 137.048C626.864 136.056 626.592 134.904 626.592 133.592C626.592 132.28 626.864 131.136 627.408 130.16C627.968 129.168 628.736 128.4 629.712 127.856C630.704 127.312 631.824 127.04 633.072 127.04C633.904 127.04 634.664 127.184 635.352 127.472C636.056 127.76 636.664 128.184 637.176 128.744V127.184H640.176ZM633.408 137.6C634.512 137.6 635.424 137.232 636.144 136.496C636.864 135.76 637.224 134.792 637.224 133.592C637.224 132.392 636.864 131.424 636.144 130.688C635.424 129.952 634.512 129.584 633.408 129.584C632.304 129.584 631.392 129.952 630.672 130.688C629.968 131.424 629.616 132.392 629.616 133.592C629.616 134.792 629.968 135.76 630.672 136.496C631.392 137.232 632.304 137.6 633.408 137.6ZM651.301 139.304C650.949 139.592 650.517 139.808 650.005 139.952C649.509 140.096 648.981 140.168 648.421 140.168C647.013 140.168 645.925 139.8 645.157 139.064C644.389 138.328 644.005 137.256 644.005 135.848V124.352H647.005V127.28H650.437V129.68H647.005V135.776C647.005 136.4 647.157 136.88 647.461 137.216C647.781 137.536 648.221 137.696 648.781 137.696C649.453 137.696 650.013 137.52 650.461 137.168L651.301 139.304ZM659.455 137.624C660.847 137.624 662.007 137.16 662.935 136.232L664.519 138.08C663.959 138.768 663.239 139.288 662.359 139.64C661.479 139.992 660.487 140.168 659.383 140.168C657.975 140.168 656.735 139.888 655.663 139.328C654.591 138.768 653.759 137.992 653.167 137C652.591 135.992 652.303 134.856 652.303 133.592C652.303 132.344 652.583 131.224 653.143 130.232C653.719 129.224 654.503 128.44 655.495 127.88C656.503 127.32 657.639 127.04 658.903 127.04C660.103 127.04 661.191 127.304 662.167 127.832C663.159 128.344 663.943 129.088 664.519 130.064C665.095 131.024 665.383 132.152 665.383 133.448L655.567 135.368C655.871 136.104 656.359 136.664 657.031 137.048C657.703 137.432 658.511 137.624 659.455 137.624ZM658.903 129.44C657.799 129.44 656.903 129.8 656.215 130.52C655.543 131.24 655.207 132.208 655.207 133.424V133.448L662.455 132.056C662.247 131.272 661.823 130.64 661.183 130.16C660.559 129.68 659.799 129.44 658.903 129.44ZM672.225 140.168C671.185 140.168 670.169 140.032 669.177 139.76C668.185 139.488 667.393 139.144 666.801 138.728L667.953 136.448C668.529 136.832 669.217 137.144 670.017 137.384C670.833 137.608 671.633 137.72 672.417 137.72C674.209 137.72 675.105 137.248 675.105 136.304C675.105 135.856 674.873 135.544 674.409 135.368C673.961 135.192 673.233 135.024 672.225 134.864C671.169 134.704 670.305 134.52 669.633 134.312C668.977 134.104 668.401 133.744 667.905 133.232C667.425 132.704 667.185 131.976 667.185 131.048C667.185 129.832 667.689 128.864 668.697 128.144C669.721 127.408 671.097 127.04 672.825 127.04C673.705 127.04 674.585 127.144 675.465 127.352C676.345 127.544 677.065 127.808 677.625 128.144L676.473 130.424C675.385 129.784 674.161 129.464 672.801 129.464C671.921 129.464 671.249 129.6 670.785 129.872C670.337 130.128 670.113 130.472 670.113 130.904C670.113 131.384 670.353 131.728 670.833 131.936C671.329 132.128 672.089 132.312 673.113 132.488C674.137 132.648 674.977 132.832 675.633 133.04C676.289 133.248 676.849 133.6 677.313 134.096C677.793 134.592 678.033 135.296 678.033 136.208C678.033 137.408 677.513 138.368 676.473 139.088C675.433 139.808 674.017 140.168 672.225 140.168Z" fill="black"/>
<path d="M402.6 159.116C403.869 159.116 404.868 159.489 405.596 160.236C406.333 160.973 406.702 162.042 406.702 163.442V169H405.68V166.116H399.52V169H398.512V163.442C398.512 162.042 398.876 160.973 399.604 160.236C400.341 159.489 401.34 159.116 402.6 159.116ZM405.68 165.22V163.344C405.68 162.252 405.409 161.431 404.868 160.88C404.327 160.32 403.571 160.04 402.6 160.04C401.629 160.04 400.873 160.32 400.332 160.88C399.791 161.431 399.52 162.252 399.52 163.344V165.22H405.68ZM415.981 163.946C416.625 164.086 417.12 164.366 417.465 164.786C417.82 165.197 417.997 165.729 417.997 166.382C417.997 167.222 417.684 167.871 417.059 168.328C416.443 168.776 415.528 169 414.315 169H409.807V159.2H414.035C415.127 159.2 415.972 159.419 416.569 159.858C417.176 160.297 417.479 160.917 417.479 161.72C417.479 162.261 417.344 162.723 417.073 163.106C416.812 163.479 416.448 163.759 415.981 163.946ZM410.843 160.054V163.61H413.965C414.758 163.61 415.37 163.461 415.799 163.162C416.228 162.854 416.443 162.411 416.443 161.832C416.443 161.253 416.228 160.815 415.799 160.516C415.37 160.208 414.758 160.054 413.965 160.054H410.843ZM414.301 168.146C415.178 168.146 415.841 167.997 416.289 167.698C416.737 167.399 416.961 166.933 416.961 166.298C416.961 165.075 416.074 164.464 414.301 164.464H410.843V168.146H414.301ZM424.618 169.084C423.647 169.084 422.77 168.869 421.986 168.44C421.211 168.011 420.6 167.418 420.152 166.662C419.713 165.897 419.494 165.043 419.494 164.1C419.494 163.157 419.713 162.308 420.152 161.552C420.6 160.787 421.216 160.189 422 159.76C422.784 159.331 423.661 159.116 424.632 159.116C425.36 159.116 426.032 159.237 426.648 159.48C427.264 159.723 427.786 160.077 428.216 160.544L427.558 161.202C426.792 160.427 425.826 160.04 424.66 160.04C423.885 160.04 423.18 160.217 422.546 160.572C421.911 160.927 421.412 161.412 421.048 162.028C420.693 162.644 420.516 163.335 420.516 164.1C420.516 164.865 420.693 165.556 421.048 166.172C421.412 166.788 421.911 167.273 422.546 167.628C423.18 167.983 423.885 168.16 424.66 168.16C425.836 168.16 426.802 167.768 427.558 166.984L428.216 167.642C427.786 168.109 427.259 168.468 426.634 168.72C426.018 168.963 425.346 169.084 424.618 169.084ZM430.424 159.2H434.414C435.45 159.2 436.365 159.41 437.158 159.83C437.951 160.241 438.567 160.819 439.006 161.566C439.445 162.303 439.664 163.148 439.664 164.1C439.664 165.052 439.445 165.901 439.006 166.648C438.567 167.385 437.951 167.964 437.158 168.384C436.365 168.795 435.45 169 434.414 169H430.424V159.2ZM434.358 168.104C435.217 168.104 435.968 167.936 436.612 167.6C437.256 167.255 437.755 166.783 438.11 166.186C438.465 165.579 438.642 164.884 438.642 164.1C438.642 163.316 438.465 162.625 438.11 162.028C437.755 161.421 437.256 160.95 436.612 160.614C435.968 160.269 435.217 160.096 434.358 160.096H431.46V168.104H434.358ZM448.991 167.88C448.589 168.263 448.053 168.561 447.381 168.776C446.718 168.981 445.981 169.084 445.169 169.084C444.31 169.084 443.577 168.967 442.971 168.734C442.373 168.501 441.921 168.179 441.613 167.768C441.314 167.357 441.165 166.886 441.165 166.354C441.165 165.766 441.337 165.267 441.683 164.856C442.037 164.445 442.499 164.161 443.069 164.002C442.602 163.825 442.238 163.545 441.977 163.162C441.715 162.77 441.585 162.313 441.585 161.79C441.585 161.295 441.725 160.847 442.005 160.446C442.294 160.035 442.723 159.713 443.293 159.48C443.871 159.237 444.567 159.116 445.379 159.116C445.976 159.116 446.555 159.186 447.115 159.326C447.684 159.457 448.169 159.648 448.571 159.9L448.249 160.726C447.39 160.241 446.447 159.998 445.421 159.998C444.515 159.998 443.82 160.171 443.335 160.516C442.859 160.861 442.621 161.309 442.621 161.86C442.621 162.411 442.812 162.835 443.195 163.134C443.587 163.433 444.137 163.582 444.847 163.582H447.283V164.478H444.805C444.002 164.478 443.367 164.632 442.901 164.94C442.434 165.239 442.201 165.687 442.201 166.284C442.201 166.872 442.453 167.339 442.957 167.684C443.47 168.029 444.221 168.202 445.211 168.202C445.901 168.202 446.545 168.104 447.143 167.908C447.74 167.712 448.225 167.441 448.599 167.096L448.991 167.88ZM454.316 160.04C453.355 160.04 452.636 160.259 452.16 160.698C451.693 161.127 451.46 161.753 451.46 162.574V163.946H456.136V164.842H451.46V169H450.424V162.56C450.424 161.487 450.76 160.647 451.432 160.04C452.104 159.424 453.051 159.116 454.274 159.116C455.459 159.116 456.411 159.373 457.13 159.886L456.752 160.74C456.117 160.273 455.305 160.04 454.316 160.04ZM465.641 164.1H466.635V169H465.725V168.174C465.351 168.473 464.913 168.701 464.409 168.86C463.914 169.009 463.382 169.084 462.813 169.084C461.935 169.084 461.119 168.888 460.363 168.496C459.616 168.104 459.014 167.535 458.557 166.788C458.099 166.041 457.871 165.155 457.871 164.128C457.871 163.176 458.095 162.322 458.543 161.566C458.991 160.801 459.607 160.203 460.391 159.774C461.175 159.335 462.061 159.116 463.051 159.116C463.797 159.116 464.483 159.237 465.109 159.48C465.734 159.713 466.261 160.063 466.691 160.53L466.047 161.188C465.272 160.423 464.287 160.04 463.093 160.04C462.299 160.04 461.581 160.217 460.937 160.572C460.302 160.917 459.803 161.403 459.439 162.028C459.075 162.653 458.893 163.353 458.893 164.128C458.893 164.959 459.075 165.682 459.439 166.298C459.812 166.905 460.302 167.371 460.909 167.698C461.525 168.015 462.183 168.174 462.883 168.174C463.396 168.174 463.891 168.09 464.367 167.922C464.852 167.745 465.277 167.479 465.641 167.124V164.1ZM477.757 159.2V169H476.735V164.478H470.603V169H469.567V159.2H470.603V163.568H476.735V159.2H477.757ZM482.985 160.096V168.104H484.973V169H479.975V168.104H481.963V160.096H479.975V159.2H484.973V160.096H482.985ZM488.226 170.484C487.666 170.484 487.148 170.363 486.672 170.12C486.205 169.877 485.822 169.532 485.524 169.084L486.112 168.384C486.382 168.776 486.695 169.075 487.05 169.28C487.404 169.485 487.792 169.588 488.212 169.588C489.434 169.588 490.046 168.869 490.046 167.432V160.096H486.462V159.2H491.068V167.39C491.068 168.417 490.825 169.187 490.34 169.7C489.864 170.223 489.159 170.484 488.226 170.484ZM497.228 164.394L495.226 166.424V169H494.19V159.2H495.226V165.122L500.98 159.2H502.17L497.928 163.638L502.464 169H501.232L497.228 164.394ZM504.143 159.2H505.179V168.104H510.667V169H504.143V159.2ZM522.873 159.116C523.993 159.116 524.866 159.438 525.491 160.082C526.116 160.726 526.429 161.659 526.429 162.882V169H525.407V162.91C525.407 161.958 525.164 161.244 524.679 160.768C524.203 160.283 523.55 160.04 522.719 160.04C521.842 160.04 521.156 160.297 520.661 160.81C520.166 161.314 519.919 162.089 519.919 163.134V169H518.897V162.91C518.897 161.958 518.664 161.244 518.197 160.768C517.73 160.283 517.082 160.04 516.251 160.04C515.364 160.04 514.669 160.297 514.165 160.81C513.67 161.314 513.423 162.089 513.423 163.134V169H512.387V159.2H513.381V160.838C513.652 160.278 514.053 159.853 514.585 159.564C515.117 159.265 515.747 159.116 516.475 159.116C517.24 159.116 517.894 159.279 518.435 159.606C518.986 159.923 519.382 160.371 519.625 160.95C519.905 160.353 520.325 159.9 520.885 159.592C521.454 159.275 522.117 159.116 522.873 159.116ZM533.857 159.116C535.033 159.116 535.953 159.466 536.615 160.166C537.287 160.866 537.623 161.865 537.623 163.162V169H536.587V163.19C536.587 162.154 536.331 161.37 535.817 160.838C535.304 160.306 534.585 160.04 533.661 160.04C532.691 160.04 531.935 160.325 531.393 160.894C530.852 161.454 530.581 162.299 530.581 163.428V169H529.545V159.2H530.539V160.852C531.165 159.695 532.271 159.116 533.857 159.116ZM545.013 169.084C544.042 169.084 543.16 168.869 542.367 168.44C541.583 168.001 540.967 167.404 540.519 166.648C540.08 165.892 539.861 165.043 539.861 164.1C539.861 163.157 540.08 162.308 540.519 161.552C540.967 160.796 541.583 160.203 542.367 159.774C543.16 159.335 544.042 159.116 545.013 159.116C545.983 159.116 546.856 159.331 547.631 159.76C548.415 160.189 549.031 160.787 549.479 161.552C549.927 162.308 550.151 163.157 550.151 164.1C550.151 165.043 549.927 165.897 549.479 166.662C549.031 167.418 548.415 168.011 547.631 168.44C546.856 168.869 545.983 169.084 545.013 169.084ZM545.013 168.16C545.787 168.16 546.487 167.987 547.113 167.642C547.738 167.287 548.228 166.802 548.583 166.186C548.937 165.561 549.115 164.865 549.115 164.1C549.115 163.335 548.937 162.644 548.583 162.028C548.228 161.403 547.738 160.917 547.113 160.572C546.487 160.217 545.787 160.04 545.013 160.04C544.238 160.04 543.533 160.217 542.899 160.572C542.273 160.917 541.779 161.403 541.415 162.028C541.06 162.644 540.883 163.335 540.883 164.1C540.883 164.865 541.06 165.561 541.415 166.186C541.779 166.802 542.273 167.287 542.899 167.642C543.533 167.987 544.238 168.16 545.013 168.16ZM556.141 159.2C557.392 159.2 558.372 159.499 559.081 160.096C559.79 160.693 560.145 161.515 560.145 162.56C560.145 163.605 559.79 164.427 559.081 165.024C558.372 165.612 557.392 165.906 556.141 165.906H553.509V169H552.473V159.2H556.141ZM556.113 164.996C557.084 164.996 557.826 164.786 558.339 164.366C558.852 163.937 559.109 163.335 559.109 162.56C559.109 161.767 558.852 161.16 558.339 160.74C557.826 160.311 557.084 160.096 556.113 160.096H553.509V164.996H556.113ZM571.944 164.1C571.944 164.987 571.743 165.794 571.342 166.522C570.95 167.25 570.399 167.838 569.69 168.286C568.99 168.725 568.196 168.981 567.31 169.056V170.89H566.288V169.056C565.401 168.981 564.603 168.72 563.894 168.272C563.194 167.824 562.643 167.241 562.242 166.522C561.85 165.794 561.654 164.987 561.654 164.1C561.654 163.157 561.873 162.308 562.312 161.552C562.76 160.796 563.376 160.203 564.16 159.774C564.953 159.335 565.835 159.116 566.806 159.116C567.776 159.116 568.649 159.331 569.424 159.76C570.208 160.189 570.824 160.787 571.272 161.552C571.72 162.308 571.944 163.157 571.944 164.1ZM567.282 168.132C567.982 168.067 568.607 167.852 569.158 167.488C569.708 167.115 570.138 166.634 570.446 166.046C570.754 165.458 570.908 164.809 570.908 164.1C570.908 163.335 570.73 162.644 570.376 162.028C570.021 161.412 569.531 160.927 568.906 160.572C568.28 160.217 567.58 160.04 566.806 160.04C566.031 160.04 565.326 160.217 564.692 160.572C564.066 160.927 563.572 161.412 563.208 162.028C562.853 162.644 562.676 163.335 562.676 164.1C562.676 164.809 562.83 165.458 563.138 166.046C563.455 166.634 563.889 167.11 564.44 167.474C564.99 167.838 565.616 168.057 566.316 168.132V165.71H567.282V168.132ZM580.958 169L578.718 165.85C578.466 165.878 578.205 165.892 577.934 165.892H575.302V169H574.266V159.2H577.934C579.185 159.2 580.165 159.499 580.874 160.096C581.583 160.693 581.938 161.515 581.938 162.56C581.938 163.325 581.742 163.974 581.35 164.506C580.967 165.029 580.417 165.407 579.698 165.64L582.092 169H580.958ZM577.906 165.01C578.877 165.01 579.619 164.795 580.132 164.366C580.645 163.937 580.902 163.335 580.902 162.56C580.902 161.767 580.645 161.16 580.132 160.74C579.619 160.311 578.877 160.096 577.906 160.096H575.302V165.01H577.906ZM587.085 169.084C586.357 169.084 585.657 168.967 584.985 168.734C584.322 168.501 583.809 168.193 583.445 167.81L583.851 167.012C584.206 167.367 584.677 167.656 585.265 167.88C585.853 168.095 586.46 168.202 587.085 168.202C587.962 168.202 588.62 168.043 589.059 167.726C589.498 167.399 589.717 166.979 589.717 166.466C589.717 166.074 589.596 165.761 589.353 165.528C589.12 165.295 588.83 165.117 588.485 164.996C588.14 164.865 587.659 164.725 587.043 164.576C586.306 164.389 585.718 164.212 585.279 164.044C584.84 163.867 584.462 163.601 584.145 163.246C583.837 162.891 583.683 162.411 583.683 161.804C583.683 161.309 583.814 160.861 584.075 160.46C584.336 160.049 584.738 159.723 585.279 159.48C585.82 159.237 586.492 159.116 587.295 159.116C587.855 159.116 588.401 159.195 588.933 159.354C589.474 159.503 589.941 159.713 590.333 159.984L589.983 160.81C589.572 160.539 589.134 160.339 588.667 160.208C588.2 160.068 587.743 159.998 587.295 159.998C586.436 159.998 585.788 160.166 585.349 160.502C584.92 160.829 584.705 161.253 584.705 161.776C584.705 162.168 584.822 162.485 585.055 162.728C585.298 162.961 585.596 163.143 585.951 163.274C586.315 163.395 586.8 163.531 587.407 163.68C588.126 163.857 588.704 164.035 589.143 164.212C589.591 164.38 589.969 164.641 590.277 164.996C590.585 165.341 590.739 165.813 590.739 166.41C590.739 166.905 590.604 167.357 590.333 167.768C590.072 168.169 589.666 168.491 589.115 168.734C588.564 168.967 587.888 169.084 587.085 169.084ZM599.061 161.006C598.1 160.446 597.036 160.124 595.869 160.04V169H594.833V160.04C593.685 160.115 592.617 160.437 591.627 161.006L591.249 160.194C592.463 159.475 593.825 159.116 595.337 159.116C596.877 159.116 598.245 159.475 599.439 160.194L599.061 161.006ZM608.946 159.2V169H607.952V167.348C607.308 168.505 606.211 169.084 604.662 169.084C603.495 169.084 602.581 168.734 601.918 168.034C601.255 167.334 600.924 166.335 600.924 165.038V159.2H601.96V165.01C601.96 166.046 602.212 166.83 602.716 167.362C603.229 167.894 603.943 168.16 604.858 168.16C605.819 168.16 606.566 167.88 607.098 167.32C607.639 166.751 607.91 165.901 607.91 164.772V159.2H608.946ZM620.176 159.2L615.836 169H614.814L610.474 159.2H611.594L615.346 167.712L619.126 159.2H620.176ZM635.439 159.2V165.15C635.439 166.447 635.117 167.427 634.473 168.09C633.838 168.753 632.938 169.084 631.771 169.084C630.996 169.084 630.334 168.935 629.783 168.636C629.242 168.337 628.84 167.913 628.579 167.362C628.308 167.922 627.902 168.351 627.361 168.65C626.82 168.939 626.166 169.084 625.401 169.084C624.225 169.084 623.315 168.753 622.671 168.09C622.036 167.427 621.719 166.447 621.719 165.15V159.2H622.755V165.108C622.755 167.143 623.637 168.16 625.401 168.16C626.25 168.16 626.908 167.913 627.375 167.418C627.842 166.914 628.075 166.144 628.075 165.108V159.2H629.097V165.108C629.097 166.153 629.326 166.923 629.783 167.418C630.25 167.913 630.912 168.16 631.771 168.16C632.62 168.16 633.274 167.913 633.731 167.418C634.188 166.914 634.417 166.144 634.417 165.108V159.2H635.439ZM644.56 169L641.396 164.688L638.246 169H637.056L640.78 163.96L637.294 159.2H638.484L641.438 163.204L644.378 159.2H645.498L642.026 163.932L645.764 169H644.56ZM655.266 159.2V166.158C655.266 167.558 654.902 168.627 654.174 169.364C653.446 170.101 652.438 170.47 651.15 170.47C650.347 170.47 649.624 170.339 648.98 170.078C648.345 169.826 647.813 169.457 647.384 168.972L647.86 168.174C648.691 169.089 649.787 169.546 651.15 169.546C652.158 169.546 652.923 169.266 653.446 168.706C653.969 168.146 654.23 167.306 654.23 166.186V164.87C653.595 165.981 652.536 166.536 651.052 166.536C649.839 166.536 648.891 166.191 648.21 165.5C647.529 164.8 647.188 163.797 647.188 162.49V159.2H648.224V162.448C648.224 163.484 648.481 164.273 648.994 164.814C649.507 165.346 650.226 165.612 651.15 165.612C652.121 165.612 652.877 165.332 653.418 164.772C653.959 164.203 654.23 163.353 654.23 162.224V159.2H655.266ZM665.515 168.104V169H657.479V168.342L660.531 164.45H658.361V163.582H661.203L663.933 160.096H657.521V159.2H665.305V159.844L662.379 163.596H664.409V164.464H661.707L658.865 168.104H665.515ZM405.106 178.636V186H404.154V184.544C403.855 185.039 403.459 185.417 402.964 185.678C402.479 185.939 401.928 186.07 401.312 186.07C400.621 186.07 399.996 185.911 399.436 185.594C398.876 185.277 398.437 184.833 398.12 184.264C397.803 183.695 397.644 183.046 397.644 182.318C397.644 181.59 397.803 180.941 398.12 180.372C398.437 179.803 398.876 179.364 399.436 179.056C399.996 178.739 400.621 178.58 401.312 178.58C401.909 178.58 402.446 178.706 402.922 178.958C403.407 179.201 403.804 179.56 404.112 180.036V178.636H405.106ZM401.396 185.188C401.909 185.188 402.371 185.071 402.782 184.838C403.202 184.595 403.529 184.255 403.762 183.816C404.005 183.377 404.126 182.878 404.126 182.318C404.126 181.758 404.005 181.259 403.762 180.82C403.529 180.381 403.202 180.045 402.782 179.812C402.371 179.569 401.909 179.448 401.396 179.448C400.873 179.448 400.402 179.569 399.982 179.812C399.571 180.045 399.245 180.381 399.002 180.82C398.769 181.259 398.652 181.758 398.652 182.318C398.652 182.878 398.769 183.377 399.002 183.816C399.245 184.255 399.571 184.595 399.982 184.838C400.402 185.071 400.873 185.188 401.396 185.188ZM411.668 178.58C412.359 178.58 412.984 178.739 413.544 179.056C414.104 179.364 414.543 179.803 414.86 180.372C415.178 180.941 415.336 181.59 415.336 182.318C415.336 183.046 415.178 183.695 414.86 184.264C414.543 184.833 414.104 185.277 413.544 185.594C412.984 185.911 412.359 186.07 411.668 186.07C411.052 186.07 410.497 185.939 410.002 185.678C409.517 185.417 409.125 185.039 408.826 184.544V186H407.874V175.612H408.868V180.036C409.176 179.56 409.568 179.201 410.044 178.958C410.53 178.706 411.071 178.58 411.668 178.58ZM411.598 185.188C412.112 185.188 412.578 185.071 412.998 184.838C413.418 184.595 413.745 184.255 413.978 183.816C414.221 183.377 414.342 182.878 414.342 182.318C414.342 181.758 414.221 181.259 413.978 180.82C413.745 180.381 413.418 180.045 412.998 179.812C412.578 179.569 412.112 179.448 411.598 179.448C411.076 179.448 410.604 179.569 410.184 179.812C409.774 180.045 409.447 180.381 409.204 180.82C408.971 181.259 408.854 181.758 408.854 182.318C408.854 182.878 408.971 183.377 409.204 183.816C409.447 184.255 409.774 184.595 410.184 184.838C410.604 185.071 411.076 185.188 411.598 185.188ZM420.415 186.07C419.687 186.07 419.033 185.911 418.455 185.594C417.885 185.277 417.437 184.833 417.111 184.264C416.784 183.685 416.621 183.037 416.621 182.318C416.621 181.599 416.784 180.955 417.111 180.386C417.437 179.817 417.885 179.373 418.455 179.056C419.033 178.739 419.687 178.58 420.415 178.58C421.049 178.58 421.614 178.706 422.109 178.958C422.613 179.201 423.009 179.56 423.299 180.036L422.557 180.54C422.314 180.176 422.006 179.905 421.633 179.728C421.259 179.541 420.853 179.448 420.415 179.448C419.883 179.448 419.402 179.569 418.973 179.812C418.553 180.045 418.221 180.381 417.979 180.82C417.745 181.259 417.629 181.758 417.629 182.318C417.629 182.887 417.745 183.391 417.979 183.83C418.221 184.259 418.553 184.595 418.973 184.838C419.402 185.071 419.883 185.188 420.415 185.188C420.853 185.188 421.259 185.099 421.633 184.922C422.006 184.745 422.314 184.474 422.557 184.11L423.299 184.614C423.009 185.09 422.613 185.454 422.109 185.706C421.605 185.949 421.04 186.07 420.415 186.07ZM431.848 175.612V186H430.896V184.544C430.598 185.039 430.201 185.417 429.706 185.678C429.221 185.939 428.67 186.07 428.054 186.07C427.364 186.07 426.738 185.911 426.178 185.594C425.618 185.277 425.18 184.833 424.862 184.264C424.545 183.695 424.386 183.046 424.386 182.318C424.386 181.59 424.545 180.941 424.862 180.372C425.18 179.803 425.618 179.364 426.178 179.056C426.738 178.739 427.364 178.58 428.054 178.58C428.652 178.58 429.188 178.706 429.664 178.958C430.15 179.201 430.546 179.56 430.854 180.036V175.612H431.848ZM428.138 185.188C428.652 185.188 429.114 185.071 429.524 184.838C429.944 184.595 430.271 184.255 430.504 183.816C430.747 183.377 430.868 182.878 430.868 182.318C430.868 181.758 430.747 181.259 430.504 180.82C430.271 180.381 429.944 180.045 429.524 179.812C429.114 179.569 428.652 179.448 428.138 179.448C427.616 179.448 427.144 179.569 426.724 179.812C426.314 180.045 425.987 180.381 425.744 180.82C425.511 181.259 425.394 181.758 425.394 182.318C425.394 182.878 425.511 183.377 425.744 183.816C425.987 184.255 426.314 184.595 426.724 184.838C427.144 185.071 427.616 185.188 428.138 185.188ZM437.766 185.188C438.224 185.188 438.644 185.109 439.026 184.95C439.418 184.782 439.75 184.539 440.02 184.222L440.58 184.866C440.254 185.258 439.848 185.557 439.362 185.762C438.877 185.967 438.34 186.07 437.752 186.07C436.996 186.07 436.324 185.911 435.736 185.594C435.148 185.267 434.691 184.819 434.364 184.25C434.038 183.681 433.874 183.037 433.874 182.318C433.874 181.599 434.028 180.955 434.336 180.386C434.654 179.817 435.088 179.373 435.638 179.056C436.189 178.739 436.814 178.58 437.514 178.58C438.168 178.58 438.756 178.729 439.278 179.028C439.81 179.327 440.23 179.742 440.538 180.274C440.856 180.806 441.024 181.413 441.042 182.094L434.994 183.27C435.181 183.867 435.517 184.339 436.002 184.684C436.497 185.02 437.085 185.188 437.766 185.188ZM437.514 179.434C437.001 179.434 436.539 179.555 436.128 179.798C435.727 180.031 435.41 180.363 435.176 180.792C434.952 181.212 434.84 181.697 434.84 182.248C434.84 182.388 434.845 182.491 434.854 182.556L440.048 181.548C439.936 180.932 439.652 180.428 439.194 180.036C438.737 179.635 438.177 179.434 437.514 179.434ZM445.334 176.382C444.904 176.382 444.578 176.499 444.354 176.732C444.139 176.965 444.032 177.311 444.032 177.768V178.636H446.3V179.476H444.06V186H443.066V177.726C443.066 177.054 443.257 176.522 443.64 176.13C444.032 175.738 444.582 175.542 445.292 175.542C445.572 175.542 445.842 175.584 446.104 175.668C446.365 175.743 446.584 175.855 446.762 176.004L446.426 176.746C446.136 176.503 445.772 176.382 445.334 176.382ZM454.341 178.636V185.104C454.341 186.355 454.033 187.279 453.417 187.876C452.81 188.483 451.891 188.786 450.659 188.786C449.977 188.786 449.329 188.683 448.713 188.478C448.106 188.282 447.611 188.007 447.229 187.652L447.733 186.896C448.087 187.213 448.517 187.461 449.021 187.638C449.534 187.815 450.071 187.904 450.631 187.904C451.564 187.904 452.25 187.685 452.689 187.246C453.127 186.817 453.347 186.145 453.347 185.23V184.292C453.039 184.759 452.633 185.113 452.129 185.356C451.634 185.599 451.083 185.72 450.477 185.72C449.786 185.72 449.156 185.571 448.587 185.272C448.027 184.964 447.583 184.539 447.257 183.998C446.939 183.447 446.781 182.827 446.781 182.136C446.781 181.445 446.939 180.829 447.257 180.288C447.583 179.747 448.027 179.327 448.587 179.028C449.147 178.729 449.777 178.58 450.477 178.58C451.102 178.58 451.667 178.706 452.171 178.958C452.675 179.21 453.081 179.574 453.389 180.05V178.636H454.341ZM450.575 184.838C451.107 184.838 451.587 184.726 452.017 184.502C452.446 184.269 452.777 183.947 453.011 183.536C453.253 183.125 453.375 182.659 453.375 182.136C453.375 181.613 453.253 181.151 453.011 180.75C452.777 180.339 452.446 180.022 452.017 179.798C451.597 179.565 451.116 179.448 450.575 179.448C450.043 179.448 449.562 179.56 449.133 179.784C448.713 180.008 448.381 180.325 448.139 180.736C447.905 181.147 447.789 181.613 447.789 182.136C447.789 182.659 447.905 183.125 448.139 183.536C448.381 183.947 448.713 184.269 449.133 184.502C449.562 184.726 450.043 184.838 450.575 184.838ZM460.872 178.58C461.796 178.58 462.529 178.851 463.07 179.392C463.621 179.924 463.896 180.703 463.896 181.73V186H462.902V181.828C462.902 181.063 462.711 180.479 462.328 180.078C461.946 179.677 461.4 179.476 460.69 179.476C459.897 179.476 459.267 179.714 458.8 180.19C458.343 180.657 458.114 181.305 458.114 182.136V186H457.12V175.612H458.114V179.924C458.385 179.495 458.758 179.163 459.234 178.93C459.71 178.697 460.256 178.58 460.872 178.58ZM466.595 178.636H467.589V186H466.595V178.636ZM467.099 177.026C466.894 177.026 466.721 176.956 466.581 176.816C466.441 176.676 466.371 176.508 466.371 176.312C466.371 176.125 466.441 175.962 466.581 175.822C466.721 175.682 466.894 175.612 467.099 175.612C467.304 175.612 467.477 175.682 467.617 175.822C467.757 175.953 467.827 176.111 467.827 176.298C467.827 176.503 467.757 176.676 467.617 176.816C467.477 176.956 467.304 177.026 467.099 177.026ZM469.263 188.786C468.955 188.786 468.665 188.744 468.395 188.66C468.115 188.585 467.886 188.469 467.709 188.31L468.059 187.554C468.348 187.806 468.731 187.932 469.207 187.932C469.599 187.932 469.897 187.815 470.103 187.582C470.317 187.349 470.425 187.003 470.425 186.546V178.636H471.419V186.546C471.419 187.237 471.232 187.783 470.859 188.184C470.485 188.585 469.953 188.786 469.263 188.786ZM470.929 177.012C470.723 177.012 470.551 176.942 470.411 176.802C470.271 176.662 470.201 176.494 470.201 176.298C470.201 176.111 470.271 175.948 470.411 175.808C470.551 175.668 470.723 175.598 470.929 175.598C471.134 175.598 471.307 175.668 471.447 175.808C471.587 175.939 471.657 176.097 471.657 176.284C471.657 176.489 471.587 176.662 471.447 176.802C471.307 176.942 471.134 177.012 470.929 177.012ZM476.927 182.304L475.191 183.9V186H474.197V175.612H475.191V182.654L479.587 178.636H480.819L477.669 181.646L481.113 186H479.895L476.927 182.304ZM484.677 186.07C484.014 186.07 483.501 185.883 483.137 185.51C482.782 185.137 482.605 184.619 482.605 183.956V175.612H483.599V183.872C483.599 184.311 483.701 184.647 483.907 184.88C484.112 185.104 484.42 185.216 484.831 185.216C485.092 185.216 485.316 185.174 485.503 185.09L485.573 185.916C485.283 186.019 484.985 186.07 484.677 186.07ZM496.109 178.58C497.033 178.58 497.756 178.846 498.279 179.378C498.811 179.91 499.077 180.694 499.077 181.73V186H498.083V181.828C498.083 181.063 497.896 180.479 497.523 180.078C497.159 179.677 496.641 179.476 495.969 179.476C495.204 179.476 494.602 179.714 494.163 180.19C493.724 180.657 493.505 181.305 493.505 182.136V186H492.511V181.828C492.511 181.063 492.324 180.479 491.951 180.078C491.587 179.677 491.064 179.476 490.383 179.476C489.627 179.476 489.025 179.714 488.577 180.19C488.138 180.657 487.919 181.305 487.919 182.136V186H486.925V178.636H487.877V179.98C488.138 179.532 488.502 179.187 488.969 178.944C489.436 178.701 489.972 178.58 490.579 178.58C491.195 178.58 491.727 178.711 492.175 178.972C492.632 179.233 492.973 179.621 493.197 180.134C493.468 179.649 493.855 179.271 494.359 179C494.872 178.72 495.456 178.58 496.109 178.58ZM505.525 178.58C506.449 178.58 507.181 178.851 507.723 179.392C508.273 179.924 508.549 180.703 508.549 181.73V186H507.555V181.828C507.555 181.063 507.363 180.479 506.981 180.078C506.598 179.677 506.052 179.476 505.343 179.476C504.549 179.476 503.919 179.714 503.453 180.19C502.995 180.657 502.767 181.305 502.767 182.136V186H501.773V178.636H502.725V179.994C502.995 179.546 503.369 179.201 503.845 178.958C504.33 178.706 504.89 178.58 505.525 178.58ZM514.285 186.07C513.575 186.07 512.936 185.911 512.367 185.594C511.797 185.267 511.349 184.819 511.023 184.25C510.696 183.681 510.533 183.037 510.533 182.318C510.533 181.599 510.696 180.955 511.023 180.386C511.349 179.817 511.797 179.373 512.367 179.056C512.936 178.739 513.575 178.58 514.285 178.58C514.994 178.58 515.633 178.739 516.203 179.056C516.772 179.373 517.215 179.817 517.533 180.386C517.859 180.955 518.023 181.599 518.023 182.318C518.023 183.037 517.859 183.681 517.533 184.25C517.215 184.819 516.772 185.267 516.203 185.594C515.633 185.911 514.994 186.07 514.285 186.07ZM514.285 185.188C514.807 185.188 515.274 185.071 515.685 184.838C516.105 184.595 516.431 184.255 516.665 183.816C516.898 183.377 517.015 182.878 517.015 182.318C517.015 181.758 516.898 181.259 516.665 180.82C516.431 180.381 516.105 180.045 515.685 179.812C515.274 179.569 514.807 179.448 514.285 179.448C513.762 179.448 513.291 179.569 512.871 179.812C512.46 180.045 512.133 180.381 511.891 180.82C511.657 181.259 511.541 181.758 511.541 182.318C511.541 182.878 511.657 183.377 511.891 183.816C512.133 184.255 512.46 184.595 512.871 184.838C513.291 185.071 513.762 185.188 514.285 185.188ZM523.846 178.58C524.537 178.58 525.162 178.739 525.722 179.056C526.282 179.364 526.721 179.803 527.038 180.372C527.355 180.941 527.514 181.59 527.514 182.318C527.514 183.055 527.355 183.709 527.038 184.278C526.721 184.847 526.282 185.291 525.722 185.608C525.171 185.916 524.546 186.07 523.846 186.07C523.249 186.07 522.707 185.949 522.222 185.706C521.746 185.454 521.354 185.09 521.046 184.614V188.716H520.052V178.636H521.004V180.092C521.303 179.607 521.695 179.233 522.18 178.972C522.675 178.711 523.23 178.58 523.846 178.58ZM523.776 185.188C524.289 185.188 524.756 185.071 525.176 184.838C525.596 184.595 525.923 184.255 526.156 183.816C526.399 183.377 526.52 182.878 526.52 182.318C526.52 181.758 526.399 181.263 526.156 180.834C525.923 180.395 525.596 180.055 525.176 179.812C524.756 179.569 524.289 179.448 523.776 179.448C523.253 179.448 522.782 179.569 522.362 179.812C521.951 180.055 521.625 180.395 521.382 180.834C521.149 181.263 521.032 181.758 521.032 182.318C521.032 182.878 521.149 183.377 521.382 183.816C521.625 184.255 521.951 184.595 522.362 184.838C522.782 185.071 523.253 185.188 523.776 185.188ZM536.26 178.636V188.716H535.266V184.614C534.958 185.09 534.562 185.454 534.076 185.706C533.6 185.949 533.064 186.07 532.466 186.07C531.766 186.07 531.136 185.916 530.576 185.608C530.026 185.291 529.592 184.847 529.274 184.278C528.957 183.709 528.798 183.055 528.798 182.318C528.798 181.59 528.957 180.941 529.274 180.372C529.592 179.803 530.03 179.364 530.59 179.056C531.15 178.739 531.776 178.58 532.466 178.58C533.082 178.58 533.633 178.711 534.118 178.972C534.613 179.233 535.01 179.607 535.308 180.092V178.636H536.26ZM532.55 185.188C533.064 185.188 533.526 185.071 533.936 184.838C534.356 184.595 534.683 184.255 534.916 183.816C535.159 183.377 535.28 182.878 535.28 182.318C535.28 181.758 535.159 181.263 534.916 180.834C534.683 180.395 534.356 180.055 533.936 179.812C533.526 179.569 533.064 179.448 532.55 179.448C532.028 179.448 531.556 179.569 531.136 179.812C530.726 180.055 530.399 180.395 530.156 180.834C529.923 181.263 529.806 181.758 529.806 182.318C529.806 182.878 529.923 183.377 530.156 183.816C530.399 184.255 530.726 184.595 531.136 184.838C531.556 185.071 532.028 185.188 532.55 185.188ZM539.981 180.078C540.214 179.583 540.559 179.21 541.017 178.958C541.483 178.706 542.057 178.58 542.739 178.58V179.546L542.501 179.532C541.726 179.532 541.119 179.77 540.681 180.246C540.242 180.722 540.023 181.389 540.023 182.248V186H539.029V178.636H539.981V180.078ZM546.567 186.07C545.97 186.07 545.396 185.986 544.845 185.818C544.304 185.641 543.879 185.421 543.571 185.16L544.019 184.376C544.327 184.619 544.714 184.819 545.181 184.978C545.648 185.127 546.133 185.202 546.637 185.202C547.309 185.202 547.804 185.099 548.121 184.894C548.448 184.679 548.611 184.381 548.611 183.998C548.611 183.727 548.522 183.517 548.345 183.368C548.168 183.209 547.944 183.093 547.673 183.018C547.402 182.934 547.043 182.855 546.595 182.78C545.998 182.668 545.517 182.556 545.153 182.444C544.789 182.323 544.476 182.122 544.215 181.842C543.963 181.562 543.837 181.175 543.837 180.68C543.837 180.064 544.094 179.56 544.607 179.168C545.12 178.776 545.834 178.58 546.749 178.58C547.225 178.58 547.701 178.645 548.177 178.776C548.653 178.897 549.045 179.061 549.353 179.266L548.919 180.064C548.312 179.644 547.589 179.434 546.749 179.434C546.114 179.434 545.634 179.546 545.307 179.77C544.99 179.994 544.831 180.288 544.831 180.652C544.831 180.932 544.92 181.156 545.097 181.324C545.284 181.492 545.512 181.618 545.783 181.702C546.054 181.777 546.427 181.856 546.903 181.94C547.491 182.052 547.962 182.164 548.317 182.276C548.672 182.388 548.975 182.579 549.227 182.85C549.479 183.121 549.605 183.494 549.605 183.97C549.605 184.614 549.334 185.127 548.793 185.51C548.261 185.883 547.519 186.07 546.567 186.07ZM555.069 185.552C554.882 185.72 554.653 185.851 554.383 185.944C554.112 186.028 553.827 186.07 553.529 186.07C552.838 186.07 552.306 185.883 551.933 185.51C551.559 185.137 551.373 184.609 551.373 183.928V177.026H552.367V178.636H554.593V179.476H552.367V183.872C552.367 184.311 552.474 184.647 552.689 184.88C552.903 185.104 553.216 185.216 553.627 185.216C554.075 185.216 554.439 185.09 554.719 184.838L555.069 185.552ZM563.506 178.636V186H562.554V184.656C562.293 185.104 561.934 185.454 561.476 185.706C561.019 185.949 560.496 186.07 559.908 186.07C558.947 186.07 558.186 185.804 557.626 185.272C557.076 184.731 556.8 183.942 556.8 182.906V178.636H557.794V182.808C557.794 183.583 557.986 184.171 558.368 184.572C558.751 184.973 559.297 185.174 560.006 185.174C560.781 185.174 561.392 184.941 561.84 184.474C562.288 183.998 562.512 183.34 562.512 182.5V178.636H563.506ZM572.478 178.636L569.202 186H568.18L564.918 178.636H565.954L568.712 184.908L571.498 178.636H572.478ZM585.232 178.636V182.71C585.232 183.802 584.971 184.637 584.448 185.216C583.926 185.785 583.156 186.07 582.138 186.07C581.494 186.07 580.953 185.949 580.514 185.706C580.085 185.454 579.754 185.057 579.52 184.516C579.287 185.048 578.956 185.44 578.526 185.692C578.097 185.944 577.556 186.07 576.902 186.07C575.885 186.07 575.115 185.785 574.592 185.216C574.07 184.637 573.808 183.802 573.808 182.71V178.636H574.802V182.626C574.802 183.494 574.97 184.138 575.306 184.558C575.642 184.969 576.174 185.174 576.902 185.174C577.621 185.174 578.153 184.964 578.498 184.544C578.853 184.124 579.03 183.475 579.03 182.598V178.636H580.024V182.598C580.024 183.475 580.197 184.124 580.542 184.544C580.888 184.964 581.424 185.174 582.152 185.174C582.862 185.174 583.384 184.969 583.72 184.558C584.066 184.138 584.238 183.494 584.238 182.626V178.636H585.232ZM592.623 186L590.285 182.92L587.933 186H586.813L589.725 182.22L586.953 178.636H588.073L590.285 181.52L592.497 178.636H593.589L590.817 182.22L593.757 186H592.623ZM601.911 178.636V185.104C601.911 186.355 601.626 187.279 601.057 187.876C600.487 188.483 599.629 188.786 598.481 188.786C597.837 188.786 597.225 188.683 596.647 188.478C596.077 188.282 595.615 188.007 595.261 187.652L595.765 186.896C596.082 187.213 596.474 187.461 596.941 187.638C597.407 187.815 597.907 187.904 598.439 187.904C599.288 187.904 599.913 187.685 600.315 187.246C600.716 186.817 600.917 186.145 600.917 185.23V184.376C600.655 184.805 600.296 185.137 599.839 185.37C599.391 185.603 598.882 185.72 598.313 185.72C597.351 185.72 596.591 185.454 596.031 184.922C595.48 184.381 595.205 183.592 595.205 182.556V178.636H596.199V182.458C596.199 183.233 596.39 183.821 596.773 184.222C597.155 184.623 597.701 184.824 598.411 184.824C599.185 184.824 599.797 184.591 600.245 184.124C600.693 183.648 600.917 182.99 600.917 182.15V178.636H601.911ZM609.959 185.174V186H603.967V185.342L606.067 182.682H604.541V181.884H606.697L608.601 179.476H604.051V178.636H609.875V179.294L607.831 181.884H609.385V182.682H607.201L605.241 185.174H609.959ZM400.444 193.2V203H399.436V194.096H397.126V193.2H400.444ZM409.479 202.104V203H402.605V202.286L406.679 198.296C407.192 197.792 407.537 197.358 407.715 196.994C407.901 196.621 407.995 196.247 407.995 195.874C407.995 195.295 407.794 194.847 407.393 194.53C407.001 194.203 406.436 194.04 405.699 194.04C404.551 194.04 403.659 194.404 403.025 195.132L402.311 194.516C402.693 194.068 403.179 193.723 403.767 193.48C404.364 193.237 405.036 193.116 405.783 193.116C406.781 193.116 407.57 193.354 408.149 193.83C408.737 194.297 409.031 194.941 409.031 195.762C409.031 196.266 408.919 196.751 408.695 197.218C408.471 197.685 408.046 198.221 407.421 198.828L404.089 202.104H409.479ZM414.076 197.4C415.102 197.456 415.882 197.736 416.414 198.24C416.955 198.735 417.226 199.383 417.226 200.186C417.226 200.746 417.09 201.245 416.82 201.684C416.549 202.113 416.148 202.454 415.616 202.706C415.084 202.958 414.435 203.084 413.67 203.084C412.96 203.084 412.288 202.972 411.654 202.748C411.028 202.515 410.524 202.207 410.142 201.824L410.632 201.026C410.958 201.362 411.392 201.637 411.934 201.852C412.475 202.057 413.054 202.16 413.67 202.16C414.472 202.16 415.093 201.987 415.532 201.642C415.97 201.287 416.19 200.802 416.19 200.186C416.19 199.579 415.97 199.103 415.532 198.758C415.093 198.413 414.43 198.24 413.544 198.24H412.844V197.498L415.56 194.096H410.548V193.2H416.848V193.914L414.076 197.4ZM426.976 200.424H425.016V203H424.008V200.424H418.478V199.696L423.672 193.2H424.792L419.78 199.528H424.036V197.26H425.016V199.528H426.976V200.424ZM430.423 197.218C431.842 197.218 432.873 197.475 433.517 197.988C434.17 198.492 434.497 199.201 434.497 200.116C434.497 200.685 434.362 201.194 434.091 201.642C433.83 202.09 433.433 202.445 432.901 202.706C432.369 202.958 431.716 203.084 430.941 203.084C430.241 203.084 429.574 202.972 428.939 202.748C428.314 202.515 427.81 202.207 427.427 201.824L427.917 201.026C428.244 201.362 428.673 201.637 429.205 201.852C429.737 202.057 430.311 202.16 430.927 202.16C431.739 202.16 432.364 201.978 432.803 201.614C433.251 201.25 433.475 200.765 433.475 200.158C433.475 199.486 433.223 198.977 432.719 198.632C432.224 198.287 431.384 198.114 430.199 198.114H428.113L428.617 193.2H433.979V194.096H429.499L429.163 197.218H430.423ZM439.837 197.134C440.481 197.134 441.05 197.255 441.545 197.498C442.049 197.741 442.441 198.086 442.721 198.534C443.001 198.973 443.141 199.486 443.141 200.074C443.141 200.671 442.996 201.199 442.707 201.656C442.417 202.113 442.016 202.468 441.503 202.72C440.999 202.963 440.429 203.084 439.795 203.084C438.497 203.084 437.503 202.659 436.813 201.81C436.122 200.951 435.777 199.743 435.777 198.184C435.777 197.092 435.963 196.168 436.337 195.412C436.71 194.656 437.233 194.087 437.905 193.704C438.577 193.312 439.361 193.116 440.257 193.116C441.227 193.116 442.002 193.293 442.581 193.648L442.175 194.46C441.708 194.152 441.073 193.998 440.271 193.998C439.188 193.998 438.339 194.343 437.723 195.034C437.107 195.715 436.799 196.709 436.799 198.016C436.799 198.249 436.813 198.515 436.841 198.814C437.083 198.282 437.471 197.871 438.003 197.582C438.535 197.283 439.146 197.134 439.837 197.134ZM439.753 202.23C440.462 202.23 441.036 202.039 441.475 201.656C441.923 201.264 442.147 200.746 442.147 200.102C442.147 199.458 441.923 198.945 441.475 198.562C441.036 198.179 440.439 197.988 439.683 197.988C439.188 197.988 438.749 198.081 438.367 198.268C437.993 198.455 437.699 198.711 437.485 199.038C437.27 199.365 437.163 199.729 437.163 200.13C437.163 200.503 437.261 200.849 437.457 201.166C437.662 201.483 437.961 201.74 438.353 201.936C438.745 202.132 439.211 202.23 439.753 202.23ZM451.115 193.2V193.914L447.013 203H445.921L449.953 194.096H444.913V195.93H443.919V193.2H451.115ZM457.797 197.862C458.413 198.067 458.884 198.375 459.211 198.786C459.547 199.197 459.715 199.691 459.715 200.27C459.715 200.839 459.561 201.339 459.253 201.768C458.945 202.188 458.502 202.515 457.923 202.748C457.354 202.972 456.682 203.084 455.907 203.084C454.731 203.084 453.807 202.832 453.135 202.328C452.463 201.824 452.127 201.138 452.127 200.27C452.127 199.682 452.286 199.187 452.603 198.786C452.93 198.375 453.401 198.067 454.017 197.862C453.513 197.666 453.13 197.386 452.869 197.022C452.608 196.649 452.477 196.21 452.477 195.706C452.477 194.913 452.785 194.283 453.401 193.816C454.026 193.349 454.862 193.116 455.907 193.116C456.598 193.116 457.2 193.223 457.713 193.438C458.236 193.643 458.642 193.942 458.931 194.334C459.22 194.726 459.365 195.183 459.365 195.706C459.365 196.21 459.23 196.649 458.959 197.022C458.688 197.386 458.301 197.666 457.797 197.862ZM453.485 195.734C453.485 196.275 453.7 196.705 454.129 197.022C454.558 197.339 455.151 197.498 455.907 197.498C456.663 197.498 457.256 197.339 457.685 197.022C458.124 196.705 458.343 196.28 458.343 195.748C458.343 195.197 458.119 194.763 457.671 194.446C457.232 194.129 456.644 193.97 455.907 193.97C455.16 193.97 454.568 194.129 454.129 194.446C453.7 194.763 453.485 195.193 453.485 195.734ZM455.907 202.23C456.775 202.23 457.452 202.053 457.937 201.698C458.432 201.343 458.679 200.863 458.679 200.256C458.679 199.649 458.432 199.173 457.937 198.828C457.452 198.473 456.775 198.296 455.907 198.296C455.048 198.296 454.372 198.473 453.877 198.828C453.392 199.173 453.149 199.649 453.149 200.256C453.149 200.872 453.392 201.357 453.877 201.712C454.362 202.057 455.039 202.23 455.907 202.23ZM464.163 193.116C465.46 193.116 466.454 193.545 467.145 194.404C467.835 195.253 468.181 196.457 468.181 198.016C468.181 199.108 467.994 200.032 467.621 200.788C467.247 201.544 466.725 202.118 466.053 202.51C465.381 202.893 464.597 203.084 463.701 203.084C462.73 203.084 461.955 202.907 461.377 202.552L461.783 201.74C462.249 202.048 462.884 202.202 463.687 202.202C464.769 202.202 465.619 201.861 466.235 201.18C466.851 200.489 467.159 199.491 467.159 198.184C467.159 197.941 467.145 197.675 467.117 197.386C466.874 197.918 466.487 198.333 465.955 198.632C465.423 198.921 464.811 199.066 464.121 199.066C463.477 199.066 462.903 198.945 462.399 198.702C461.904 198.459 461.517 198.119 461.237 197.68C460.957 197.232 460.817 196.714 460.817 196.126C460.817 195.529 460.961 195.001 461.251 194.544C461.54 194.087 461.937 193.737 462.441 193.494C462.954 193.242 463.528 193.116 464.163 193.116ZM464.275 198.212C464.769 198.212 465.203 198.119 465.577 197.932C465.959 197.745 466.258 197.489 466.473 197.162C466.687 196.835 466.795 196.471 466.795 196.07C466.795 195.697 466.692 195.351 466.487 195.034C466.291 194.717 465.997 194.46 465.605 194.264C465.213 194.068 464.746 193.97 464.205 193.97C463.495 193.97 462.917 194.166 462.469 194.558C462.03 194.941 461.811 195.454 461.811 196.098C461.811 196.742 462.03 197.255 462.469 197.638C462.917 198.021 463.519 198.212 464.275 198.212Z" fill="black"/>
<path d="M154.304 406L149.056 391.664H118.08L112.32 406H88.896L121.664 320.624H145.856L177.984 406H154.304ZM124.224 374.768H143.168L133.568 347.12L124.224 374.768ZM230.203 354.288V348.784H250.683V406H230.203V399.728C226.278 405.189 220.347 407.92 212.411 407.92C204.39 407.92 197.52 404.891 191.803 398.832C186.342 393.029 183.611 386.032 183.611 377.84C183.611 368.453 186.555 360.816 192.443 354.928C197.819 349.552 204.688 346.864 213.051 346.864C220.048 346.864 225.766 349.339 230.203 354.288ZM217.659 364.272C214.246 364.272 211.259 365.509 208.699 367.984C205.968 370.629 204.603 373.744 204.603 377.328C204.603 381.083 205.926 384.197 208.571 386.672C211.302 389.232 214.374 390.512 217.787 390.512C221.286 390.512 224.358 389.189 227.003 386.544C229.563 383.984 230.843 380.912 230.843 377.328C230.843 373.659 229.52 370.544 226.875 367.984C224.23 365.509 221.158 364.272 217.659 364.272Z" fill="black"/>
<path d="M406.936 318.992V321.296H401.368V325.352H406.744V327.656H401.368V335H398.92V318.992H406.936ZM409.293 324.896H411.645V330.68C411.645 331.528 411.789 332.136 412.077 332.504C412.429 332.968 412.941 333.2 413.613 333.2C414.285 333.2 414.797 332.968 415.149 332.504C415.437 332.136 415.581 331.528 415.581 330.68V324.896H417.933V330.752C417.933 332.24 417.573 333.344 416.853 334.064C416.021 334.896 414.925 335.312 413.565 335.312C412.253 335.312 411.189 334.896 410.373 334.064C409.653 333.344 409.293 332.24 409.293 330.752V324.896ZM425.142 327.056H423.342V335H420.99V327.056H420.006V324.896H420.99V321.2H423.342V324.896H425.142V327.056ZM426.73 324.896H429.082V330.68C429.082 331.528 429.226 332.136 429.514 332.504C429.866 332.968 430.378 333.2 431.05 333.2C431.722 333.2 432.234 332.968 432.586 332.504C432.874 332.136 433.018 331.528 433.018 330.68V324.896H435.37V330.752C435.37 332.24 435.01 333.344 434.29 334.064C433.458 334.896 432.362 335.312 431.002 335.312C429.69 335.312 428.626 334.896 427.81 334.064C427.09 333.344 426.73 332.24 426.73 330.752V324.896ZM438.355 335V324.896H440.707V325.808C441.011 325.456 441.339 325.176 441.691 324.968C442.075 324.744 442.555 324.632 443.131 324.632C443.819 324.632 444.435 324.792 444.979 325.112L444.019 327.248C443.635 327.008 443.235 326.888 442.819 326.888C442.195 326.888 441.707 327.072 441.355 327.44C440.923 327.904 440.707 328.68 440.707 329.768V335H438.355ZM453.2 326.072V324.896H455.552V335H453.2V333.944C452.416 334.856 451.408 335.312 450.176 335.312C448.688 335.312 447.496 334.784 446.6 333.728C445.72 332.672 445.28 331.408 445.28 329.936C445.28 328.336 445.752 327.056 446.696 326.096C447.656 325.12 448.824 324.632 450.2 324.632C451.464 324.632 452.464 325.112 453.2 326.072ZM450.488 326.744C449.656 326.744 448.976 327.056 448.448 327.68C447.936 328.304 447.68 329.072 447.68 329.984C447.68 330.88 447.936 331.64 448.448 332.264C448.976 332.888 449.656 333.2 450.488 333.2C451.288 333.2 451.96 332.92 452.504 332.36C453.064 331.8 453.344 331.016 453.344 330.008C453.344 328.968 453.064 328.168 452.504 327.608C451.96 327.032 451.288 326.744 450.488 326.744ZM464.568 318.992H468.096C469.568 318.992 470.736 319.28 471.6 319.856C472.24 320.288 472.728 320.856 473.064 321.56C473.416 322.248 473.592 322.976 473.592 323.744C473.592 325.184 473.072 326.352 472.032 327.248C471.056 328.08 469.752 328.496 468.12 328.496H467.016V335H464.568V318.992ZM467.016 321.248V326.24H468.12C469.144 326.24 469.92 326.016 470.448 325.568C470.976 325.104 471.24 324.488 471.24 323.72C471.24 323.448 471.2 323.192 471.12 322.952C471.056 322.712 470.92 322.456 470.712 322.184C470.52 321.896 470.2 321.672 469.752 321.512C469.304 321.336 468.752 321.248 468.096 321.248H467.016ZM484.212 321.296H480.54V335H478.092V321.296H474.42V318.992H484.212V321.296Z" fill="black"/>
<path d="M404.448 363L403.356 360.368H399.38L398.26 363H397.112L401.41 353.214L405.596 363H404.448ZM399.786 359.388H402.95L401.382 355.65L399.786 359.388ZM406.913 353.662H408.593C409.526 353.662 410.24 353.858 410.735 354.25C411.295 354.679 411.575 355.323 411.575 356.182C411.575 356.985 411.267 357.596 410.651 358.016C411.248 358.165 411.692 358.469 411.981 358.926C412.28 359.374 412.429 359.855 412.429 360.368C412.429 360.788 412.336 361.175 412.149 361.53C411.972 361.885 411.748 362.169 411.477 362.384C410.954 362.795 410.208 363 409.237 363H406.913V353.662ZM407.949 354.642V357.764H408.733C408.873 357.764 409.008 357.759 409.139 357.75C409.27 357.731 409.424 357.694 409.601 357.638C409.788 357.573 409.946 357.489 410.077 357.386C410.217 357.283 410.334 357.129 410.427 356.924C410.52 356.719 410.567 356.481 410.567 356.21C410.567 355.921 410.511 355.673 410.399 355.468C410.287 355.253 410.161 355.095 410.021 354.992C409.881 354.889 409.713 354.81 409.517 354.754C409.321 354.698 409.172 354.665 409.069 354.656C408.966 354.647 408.864 354.642 408.761 354.642H407.949ZM407.949 358.688V362.02H409.139C409.895 362.02 410.441 361.889 410.777 361.628C411.188 361.329 411.393 360.9 411.393 360.34C411.393 359.715 411.127 359.257 410.595 358.968C410.259 358.781 409.732 358.688 409.013 358.688H407.949ZM421.477 354.432V355.72C421.103 355.347 420.697 355.057 420.259 354.852C419.727 354.609 419.19 354.488 418.649 354.488C417.575 354.488 416.679 354.866 415.961 355.622C415.251 356.369 414.897 357.288 414.897 358.38C414.897 359.556 415.284 360.485 416.059 361.166C416.843 361.847 417.711 362.188 418.663 362.188C419.26 362.188 419.839 362.043 420.399 361.754C420.791 361.558 421.15 361.297 421.477 360.97V362.258C420.627 362.865 419.689 363.168 418.663 363.168C417.281 363.168 416.129 362.706 415.205 361.782C414.29 360.858 413.833 359.719 413.833 358.366C413.833 356.975 414.295 355.818 415.219 354.894C416.152 353.97 417.319 353.508 418.719 353.508C419.745 353.508 420.665 353.816 421.477 354.432ZM423.388 363V353.662H425.292C426.729 353.662 427.877 354.026 428.736 354.754C429.8 355.641 430.332 356.835 430.332 358.338C430.332 359.794 429.786 360.989 428.694 361.922C428.246 362.305 427.765 362.58 427.252 362.748C426.738 362.916 426.08 363 425.278 363H423.388ZM424.424 354.642V362.02H425.334C426.444 362.02 427.336 361.74 428.008 361.18C428.848 360.471 429.268 359.523 429.268 358.338C429.268 357.218 428.908 356.322 428.19 355.65C427.471 354.978 426.519 354.642 425.334 354.642H424.424ZM437.077 353.662V354.642H433.269V357.414H436.965V358.394H433.269V362.02H437.077V363H432.233V353.662H437.077ZM443.243 353.662V354.642H440.023V357.4H443.131V358.38H440.023V363H438.987V353.662H443.243ZM449.874 359.29V358.31H453.766V358.534C453.766 359.691 453.467 360.676 452.87 361.488C452.039 362.608 450.882 363.168 449.398 363.168C448.016 363.168 446.864 362.706 445.94 361.782C445.016 360.849 444.554 359.701 444.554 358.338C444.554 356.975 445.016 355.832 445.94 354.908C446.873 353.975 448.035 353.508 449.426 353.508C450.527 353.508 451.479 353.816 452.282 354.432C452.692 354.749 453.052 355.118 453.36 355.538L452.59 356.238C452.319 355.855 452.025 355.533 451.708 355.272C451.064 354.749 450.308 354.488 449.44 354.488C448.329 354.488 447.414 354.857 446.696 355.594C445.977 356.331 445.618 357.251 445.618 358.352C445.618 359.155 445.814 359.859 446.206 360.466C446.598 361.063 447.074 361.502 447.634 361.782C448.203 362.053 448.796 362.188 449.412 362.188C450.028 362.188 450.588 362.048 451.092 361.768C451.605 361.479 451.997 361.096 452.268 360.62C452.501 360.219 452.627 359.775 452.646 359.29H449.874ZM456.703 353.662V357.456H461.491V353.662H462.527V363H461.491V358.436H456.703V363H455.667V353.662H456.703ZM464.936 353.662H465.972V363H464.936V353.662ZM469.222 353.662H470.258V360.382C470.258 360.718 470.248 360.989 470.23 361.194C470.22 361.39 470.169 361.623 470.076 361.894C469.992 362.165 469.861 362.393 469.684 362.58C469.32 362.972 468.825 363.168 468.2 363.168C467.49 363.168 466.935 362.939 466.534 362.482L467.108 361.67C467.425 362.015 467.78 362.188 468.172 362.188C468.461 362.188 468.694 362.099 468.872 361.922C469.105 361.689 469.222 361.185 469.222 360.41V353.662ZM473.697 353.662V357.666L477.673 353.662H479.073L474.705 358.016L479.213 363H477.785L473.963 358.716L473.697 358.982V363H472.661V353.662H473.697ZM480.618 353.662H481.654V362.02H484.23V363H480.618V353.662ZM486.378 363H485.314L486.868 353.144L490.452 361.026L494.106 353.13L495.562 363H494.498L493.616 356.504L490.438 363.392L487.302 356.504L486.378 363ZM498.758 363H497.722V353.27L505.002 360.9V353.662H506.038V363.42L498.758 355.79V363ZM516.238 361.782C515.305 362.706 514.157 363.168 512.794 363.168C511.432 363.168 510.279 362.706 509.336 361.782C508.403 360.858 507.936 359.71 507.936 358.338C507.936 356.957 508.408 355.809 509.35 354.894C510.293 353.97 511.441 353.508 512.794 353.508C514.148 353.508 515.296 353.97 516.238 354.894C517.181 355.809 517.652 356.957 517.652 358.338C517.652 359.71 517.181 360.858 516.238 361.782ZM515.482 355.608C514.745 354.861 513.849 354.488 512.794 354.488C511.74 354.488 510.844 354.861 510.106 355.608C509.369 356.355 509 357.265 509 358.338C509 359.411 509.369 360.321 510.106 361.068C510.844 361.815 511.74 362.188 512.794 362.188C513.849 362.188 514.745 361.815 515.482 361.068C516.22 360.321 516.588 359.411 516.588 358.338C516.588 357.265 516.22 356.355 515.482 355.608ZM519.556 353.662H521.25C522.314 353.662 523.098 353.881 523.602 354.32C524.171 354.805 524.456 355.473 524.456 356.322C524.456 357.05 524.208 357.671 523.714 358.184C523.228 358.688 522.491 358.94 521.502 358.94H520.592V363H519.556V353.662ZM520.592 354.642V357.96H521.446C522.062 357.96 522.542 357.811 522.888 357.512C523.242 357.213 523.42 356.798 523.42 356.266C523.42 355.183 522.734 354.642 521.362 354.642H520.592ZM533.864 363.098L533.108 362.314C532.268 362.883 531.33 363.168 530.294 363.168C528.941 363.168 527.793 362.706 526.85 361.782C525.908 360.858 525.436 359.71 525.436 358.338C525.436 356.957 525.908 355.809 526.85 354.894C527.793 353.97 528.941 353.508 530.294 353.508C531.648 353.508 532.796 353.97 533.738 354.894C534.681 355.809 535.152 356.957 535.152 358.338C535.152 359.645 534.714 360.76 533.836 361.684L535.208 363.098H533.864ZM531.456 359.248L533.094 360.928C533.757 360.209 534.088 359.346 534.088 358.338C534.088 357.274 533.715 356.369 532.968 355.622C532.231 354.866 531.34 354.488 530.294 354.488C529.24 354.488 528.344 354.861 527.606 355.608C526.869 356.355 526.5 357.265 526.5 358.338C526.5 359.411 526.869 360.321 527.606 361.068C528.344 361.815 529.24 362.188 530.294 362.188C531.05 362.188 531.741 361.983 532.366 361.572L530.112 359.248H531.456ZM537.056 353.662H538.554C539.562 353.662 540.318 353.835 540.822 354.18C541.503 354.637 541.844 355.328 541.844 356.252C541.844 356.971 541.624 357.568 541.186 358.044C540.756 358.52 540.192 358.781 539.492 358.828L542.46 363H541.2L538.358 358.912H538.092V363H537.056V353.662ZM538.092 354.642V357.988H538.75C539.394 357.988 539.898 357.839 540.262 357.54C540.626 357.241 540.808 356.821 540.808 356.28C540.808 355.645 540.56 355.188 540.066 354.908C539.748 354.731 539.3 354.642 538.722 354.642H538.092ZM549.081 354.964L548.255 355.51C548.106 355.221 547.924 354.987 547.709 354.81C547.429 354.595 547.079 354.488 546.659 354.488C546.192 354.488 545.814 354.623 545.525 354.894C545.236 355.155 545.091 355.501 545.091 355.93C545.091 356.247 545.208 356.518 545.441 356.742C545.628 356.929 545.954 357.125 546.421 357.33L547.317 357.722C547.98 358.011 548.46 358.305 548.759 358.604C549.207 359.052 549.431 359.617 549.431 360.298C549.431 361.147 549.151 361.838 548.591 362.37C548.031 362.902 547.326 363.168 546.477 363.168C545.637 363.168 544.96 362.916 544.447 362.412C544.027 362.001 543.738 361.451 543.579 360.76L544.587 360.48C544.652 360.947 544.839 361.343 545.147 361.67C545.492 362.015 545.94 362.188 546.491 362.188C547.088 362.188 547.55 362.011 547.877 361.656C548.204 361.292 548.367 360.853 548.367 360.34C548.367 359.892 548.213 359.528 547.905 359.248C547.728 359.08 547.354 358.865 546.785 358.604L545.945 358.212C545.376 357.951 544.96 357.694 544.699 357.442C544.27 357.031 544.055 356.523 544.055 355.916C544.055 355.197 544.298 354.619 544.783 354.18C545.278 353.732 545.908 353.508 546.673 353.508C547.252 353.508 547.751 353.648 548.171 353.928C548.554 354.18 548.857 354.525 549.081 354.964ZM555.305 354.642H553.037V363H552.001V354.642H549.733V353.662H555.305V354.642ZM557.738 353.662V359.388C557.738 359.743 557.743 360.018 557.752 360.214C557.771 360.41 557.836 360.653 557.948 360.942C558.069 361.222 558.247 361.46 558.48 361.656C558.9 362.011 559.413 362.188 560.02 362.188C560.627 362.188 561.14 362.011 561.56 361.656C561.793 361.46 561.966 361.222 562.078 360.942C562.199 360.653 562.265 360.41 562.274 360.214C562.293 360.018 562.302 359.743 562.302 359.388V353.662H563.338V359.668C563.338 360.62 563.142 361.367 562.75 361.908C562.461 362.3 562.078 362.608 561.602 362.832C561.135 363.056 560.608 363.168 560.02 363.168C559.432 363.168 558.9 363.056 558.424 362.832C557.957 362.608 557.579 362.3 557.29 361.908C556.898 361.367 556.702 360.62 556.702 359.668V353.662H557.738ZM564.661 353.662H565.809L568.441 360.788L571.073 353.662H572.221L568.441 363.56L564.661 353.662ZM572.44 353.662H573.588L576.052 360.662L578.978 353.186L581.75 360.662L584.48 353.662H585.628L581.708 363.49L578.964 356.014L576.024 363.49L572.44 353.662ZM585.936 363L588.694 358.17L586.188 353.662H587.364L589.296 357.176L591.284 353.662H592.46L589.898 358.17L592.6 363H591.424L589.282 359.164L587.112 363H585.936ZM595.973 363V358.982L592.907 353.662H594.111L596.491 357.834L598.899 353.662H600.103L597.009 358.982V363H595.973ZM607.387 353.662L602.291 362.02H607.247V363H600.555L605.651 354.642H601.213V353.662H607.387ZM402.404 376.016V375.19H403.412V381H402.404V380.188C401.9 380.841 401.237 381.168 400.416 381.168C399.632 381.168 398.965 380.897 398.414 380.356C397.863 379.815 397.588 379.059 397.588 378.088C397.588 377.136 397.859 376.394 398.4 375.862C398.951 375.321 399.623 375.05 400.416 375.05C401.256 375.05 401.919 375.372 402.404 376.016ZM400.528 375.946C399.996 375.946 399.543 376.137 399.17 376.52C398.806 376.893 398.624 377.416 398.624 378.088C398.624 378.732 398.792 379.259 399.128 379.67C399.473 380.071 399.94 380.272 400.528 380.272C401.116 380.272 401.583 380.062 401.928 379.642C402.283 379.222 402.46 378.709 402.46 378.102C402.46 377.411 402.264 376.879 401.872 376.506C401.48 376.133 401.032 375.946 400.528 375.946ZM406.329 380.188V381H405.321V370.794H406.329V376.002C406.842 375.367 407.505 375.05 408.317 375.05C409.185 375.05 409.871 375.358 410.375 375.974C410.888 376.581 411.145 377.299 411.145 378.13C411.145 378.97 410.893 379.689 410.389 380.286C409.885 380.874 409.208 381.168 408.359 381.168C407.51 381.168 406.833 380.841 406.329 380.188ZM408.219 380.272C408.788 380.272 409.246 380.067 409.591 379.656C409.936 379.236 410.109 378.727 410.109 378.13C410.109 377.458 409.918 376.926 409.535 376.534C409.152 376.142 408.709 375.946 408.205 375.946C407.701 375.946 407.253 376.142 406.861 376.534C406.469 376.926 406.273 377.453 406.273 378.116C406.273 378.723 406.45 379.236 406.805 379.656C407.169 380.067 407.64 380.272 408.219 380.272ZM417.24 375.61V376.814C416.783 376.235 416.176 375.946 415.42 375.946C414.851 375.946 414.366 376.142 413.964 376.534C413.563 376.917 413.362 377.444 413.362 378.116C413.362 378.788 413.563 379.315 413.964 379.698C414.366 380.081 414.846 380.272 415.406 380.272C416.153 380.272 416.778 379.969 417.282 379.362V380.566C416.732 380.967 416.116 381.168 415.434 381.168C414.529 381.168 413.782 380.883 413.194 380.314C412.616 379.735 412.326 379.007 412.326 378.13C412.326 377.243 412.62 376.511 413.208 375.932C413.796 375.344 414.538 375.05 415.434 375.05C416.106 375.05 416.708 375.237 417.24 375.61ZM423.281 376.016V370.794H424.289V381H423.281V380.188C422.777 380.841 422.114 381.168 421.293 381.168C420.509 381.168 419.842 380.897 419.291 380.356C418.74 379.815 418.465 379.059 418.465 378.088C418.465 377.136 418.736 376.394 419.277 375.862C419.828 375.321 420.5 375.05 421.293 375.05C422.133 375.05 422.796 375.372 423.281 376.016ZM421.405 375.946C420.873 375.946 420.42 376.137 420.047 376.52C419.683 376.893 419.501 377.416 419.501 378.088C419.501 378.732 419.669 379.259 420.005 379.67C420.35 380.071 420.817 380.272 421.405 380.272C421.993 380.272 422.46 380.062 422.805 379.642C423.16 379.222 423.337 378.709 423.337 378.102C423.337 377.411 423.141 376.879 422.749 376.506C422.357 376.133 421.909 375.946 421.405 375.946ZM430.51 379.054L431.35 379.516C431.154 379.889 430.916 380.202 430.636 380.454C430.104 380.93 429.46 381.168 428.704 381.168C427.92 381.168 427.243 380.916 426.674 380.412C426.114 379.899 425.834 379.138 425.834 378.13C425.834 377.243 426.086 376.511 426.59 375.932C427.103 375.344 427.789 375.05 428.648 375.05C429.619 375.05 430.351 375.405 430.846 376.114C431.238 376.674 431.42 377.402 431.392 378.298H426.87C426.879 378.886 427.061 379.362 427.416 379.726C427.771 380.09 428.205 380.272 428.718 380.272C429.175 380.272 429.572 380.132 429.908 379.852C430.169 379.628 430.37 379.362 430.51 379.054ZM426.94 377.458H430.356C430.272 377.001 430.071 376.637 429.754 376.366C429.446 376.086 429.077 375.946 428.648 375.946C428.228 375.946 427.855 376.091 427.528 376.38C427.211 376.66 427.015 377.019 426.94 377.458ZM435.402 376.114H433.974V381H432.966V376.114H432.406V375.19H432.966V372.656C432.966 371.881 433.153 371.335 433.526 371.018C433.825 370.766 434.212 370.64 434.688 370.64C434.94 370.64 435.178 370.682 435.402 370.766V371.746C435.197 371.662 434.978 371.62 434.744 371.62C434.436 371.62 434.222 371.723 434.1 371.928C434.016 372.068 433.974 372.348 433.974 372.768V375.19H435.402V376.114ZM440.754 376.016V375.19H441.762V380.86C441.762 381.877 441.575 382.638 441.202 383.142C440.67 383.861 439.895 384.22 438.878 384.22C438.019 384.22 437.328 383.959 436.806 383.436C436.302 382.932 436.05 382.307 436.05 381.56H437.044C437.044 382.027 437.193 382.428 437.492 382.764C437.828 383.137 438.294 383.324 438.892 383.324C439.592 383.324 440.105 383.053 440.432 382.512C440.646 382.167 440.754 381.672 440.754 381.028V380.188C440.25 380.841 439.587 381.168 438.766 381.168C437.963 381.168 437.3 380.907 436.778 380.384C436.218 379.824 435.938 379.059 435.938 378.088C435.938 377.145 436.218 376.394 436.778 375.834C437.319 375.311 437.982 375.05 438.766 375.05C439.596 375.05 440.259 375.372 440.754 376.016ZM438.878 375.946C438.364 375.946 437.926 376.128 437.562 376.492C437.17 376.893 436.974 377.425 436.974 378.088C436.974 378.825 437.193 379.395 437.632 379.796C437.977 380.113 438.392 380.272 438.878 380.272C439.4 380.272 439.825 380.109 440.152 379.782C440.59 379.362 440.81 378.802 440.81 378.102C440.81 377.402 440.604 376.856 440.194 376.464C439.848 376.119 439.41 375.946 438.878 375.946ZM443.671 381V370.794H444.679V375.862C445.089 375.321 445.645 375.05 446.345 375.05C447.091 375.05 447.647 375.316 448.011 375.848C448.235 376.175 448.347 376.693 448.347 377.402V381H447.339V377.43C447.339 376.954 447.25 376.599 447.073 376.366C446.858 376.086 446.541 375.946 446.121 375.946C445.691 375.946 445.351 376.095 445.099 376.394C444.819 376.721 444.679 377.243 444.679 377.962V381H443.671ZM450.247 375.19H451.255V381H450.247V375.19ZM450.247 373.496C450.107 373.356 450.037 373.188 450.037 372.992C450.037 372.796 450.107 372.628 450.247 372.488C450.387 372.348 450.555 372.278 450.751 372.278C450.947 372.278 451.115 372.348 451.255 372.488C451.395 372.628 451.465 372.796 451.465 372.992C451.465 373.188 451.395 373.356 451.255 373.496C451.115 373.636 450.947 373.706 450.751 373.706C450.555 373.706 450.387 373.636 450.247 373.496ZM453.159 375.19H454.167V384.22H453.159V375.19ZM453.159 373.496C453.019 373.356 452.949 373.188 452.949 372.992C452.949 372.796 453.019 372.628 453.159 372.488C453.299 372.348 453.467 372.278 453.663 372.278C453.859 372.278 454.027 372.348 454.167 372.488C454.307 372.628 454.377 372.796 454.377 372.992C454.377 373.188 454.307 373.356 454.167 373.496C454.027 373.636 453.859 373.706 453.663 373.706C453.467 373.706 453.299 373.636 453.159 373.496ZM456.071 370.794H457.079V377.346L459.207 375.19H460.523L458.031 377.682L460.971 381H459.655L457.331 378.354L457.079 378.606V381H456.071V370.794ZM461.977 370.794H462.985V381H461.977V370.794ZM464.89 381V375.19H465.898V375.806C466.243 375.302 466.724 375.05 467.34 375.05C468.04 375.05 468.567 375.363 468.922 375.988C469.323 375.363 469.906 375.05 470.672 375.05C471.932 375.05 472.562 375.806 472.562 377.318V381H471.554V377.472C471.554 377.192 471.535 376.959 471.498 376.772C471.47 376.576 471.372 376.389 471.204 376.212C471.045 376.035 470.816 375.946 470.518 375.946C469.659 375.946 469.23 376.553 469.23 377.766V381H468.222V377.556C468.222 376.483 467.872 375.946 467.172 375.946C466.322 375.946 465.898 376.576 465.898 377.836V381H464.89ZM474.473 381V375.19H475.481V375.862C475.892 375.321 476.447 375.05 477.147 375.05C477.894 375.05 478.449 375.316 478.813 375.848C479.037 376.175 479.149 376.693 479.149 377.402V381H478.141V377.43C478.141 376.954 478.053 376.599 477.875 376.366C477.661 376.086 477.343 375.946 476.923 375.946C476.494 375.946 476.153 376.095 475.901 376.394C475.621 376.721 475.481 377.243 475.481 377.962V381H474.473ZM485.964 380.3C485.385 380.879 484.652 381.168 483.766 381.168C482.879 381.168 482.142 380.879 481.554 380.3C480.975 379.721 480.686 378.993 480.686 378.116C480.686 377.229 480.975 376.497 481.554 375.918C482.142 375.339 482.879 375.05 483.766 375.05C484.652 375.05 485.385 375.339 485.964 375.918C486.552 376.497 486.846 377.229 486.846 378.116C486.846 378.993 486.552 379.721 485.964 380.3ZM485.208 376.52C484.816 376.137 484.335 375.946 483.766 375.946C483.196 375.946 482.711 376.142 482.31 376.534C481.918 376.917 481.722 377.444 481.722 378.116C481.722 378.788 481.922 379.315 482.324 379.698C482.725 380.081 483.206 380.272 483.766 380.272C484.326 380.272 484.806 380.081 485.208 379.698C485.609 379.315 485.81 378.788 485.81 378.116C485.81 377.435 485.609 376.903 485.208 376.52ZM489.399 380.188V384.22H488.391V375.19H489.399V376.002C489.913 375.367 490.575 375.05 491.387 375.05C492.255 375.05 492.941 375.358 493.445 375.974C493.959 376.581 494.215 377.299 494.215 378.13C494.215 378.97 493.963 379.689 493.459 380.286C492.955 380.874 492.279 381.168 491.429 381.168C490.58 381.168 489.903 380.841 489.399 380.188ZM491.289 380.272C491.859 380.272 492.316 380.067 492.661 379.656C493.007 379.236 493.179 378.727 493.179 378.13C493.179 377.458 492.988 376.926 492.605 376.534C492.223 376.142 491.779 375.946 491.275 375.946C490.771 375.946 490.323 376.142 489.931 376.534C489.539 376.926 489.343 377.453 489.343 378.116C489.343 378.723 489.521 379.236 489.875 379.656C490.239 380.067 490.711 380.272 491.289 380.272ZM500.213 376.016V375.19H501.221V384.22H500.213V380.188C499.709 380.841 499.046 381.168 498.225 381.168C497.441 381.168 496.773 380.897 496.223 380.356C495.672 379.815 495.397 379.059 495.397 378.088C495.397 377.136 495.667 376.394 496.209 375.862C496.759 375.321 497.431 375.05 498.225 375.05C499.065 375.05 499.727 375.372 500.213 376.016ZM498.337 375.946C497.805 375.946 497.352 376.137 496.979 376.52C496.615 376.893 496.433 377.416 496.433 378.088C496.433 378.732 496.601 379.259 496.937 379.67C497.282 380.071 497.749 380.272 498.337 380.272C498.925 380.272 499.391 380.062 499.737 379.642C500.091 379.222 500.269 378.709 500.269 378.102C500.269 377.411 500.073 376.879 499.681 376.506C499.289 376.133 498.841 375.946 498.337 375.946ZM503.13 381V375.19H504.138V375.82C504.464 375.307 504.903 375.05 505.454 375.05C505.734 375.05 506.032 375.129 506.35 375.288L505.874 376.198C505.687 376.067 505.491 376.002 505.286 376.002C504.931 376.002 504.66 376.123 504.474 376.366C504.25 376.665 504.138 377.187 504.138 377.934V381H503.13ZM510.342 376.1L509.516 376.534C509.357 376.142 509.087 375.946 508.704 375.946C508.508 375.946 508.34 376.002 508.2 376.114C508.069 376.226 508.004 376.389 508.004 376.604C508.004 376.8 508.065 376.949 508.186 377.052C508.317 377.145 508.569 377.271 508.942 377.43C509.679 377.738 510.165 378.037 510.398 378.326C510.603 378.578 510.706 378.891 510.706 379.264C510.706 379.852 510.515 380.319 510.132 380.664C509.759 381 509.283 381.168 508.704 381.168C508.592 381.168 508.471 381.154 508.34 381.126C508.209 381.107 508.027 381.061 507.794 380.986C507.57 380.902 507.355 380.748 507.15 380.524C506.945 380.3 506.786 380.02 506.674 379.684L507.542 379.32C507.775 379.955 508.167 380.272 508.718 380.272C509.026 380.272 509.259 380.179 509.418 379.992C509.586 379.805 509.67 379.591 509.67 379.348C509.67 379.217 509.647 379.105 509.6 379.012C509.563 378.909 509.493 378.821 509.39 378.746C509.297 378.671 509.203 378.611 509.11 378.564C509.026 378.517 508.9 378.457 508.732 378.382C507.985 378.055 507.514 377.771 507.318 377.528C507.141 377.304 507.052 377.019 507.052 376.674C507.052 376.17 507.206 375.773 507.514 375.484C507.831 375.195 508.242 375.05 508.746 375.05C509.483 375.05 510.015 375.4 510.342 376.1ZM514.088 376.114H513.08V381H512.072V376.114H511.456V375.19H512.072V373.09H513.08V375.19H514.088V376.114ZM516.046 375.19V378.578C516.046 379.166 516.139 379.581 516.326 379.824C516.559 380.123 516.9 380.272 517.348 380.272C517.796 380.272 518.137 380.123 518.37 379.824C518.557 379.581 518.65 379.166 518.65 378.578V375.19H519.658V378.69C519.658 379.474 519.481 380.057 519.126 380.44C518.669 380.925 518.076 381.168 517.348 381.168C516.62 381.168 516.027 380.925 515.57 380.44C515.215 380.057 515.038 379.474 515.038 378.69V375.19H516.046ZM520.719 375.19H521.839L523.575 379.11L525.311 375.19H526.431L523.575 381.378L520.719 375.19ZM526.653 375.19H527.773L529.495 379.138L531.315 374.742L533.121 379.138L534.857 375.19H535.977L533.093 381.406L531.301 377.066L529.509 381.406L526.653 375.19ZM536.196 381L538.674 377.892L536.56 375.19H537.792L539.29 377.164L540.816 375.19H542.048L539.92 377.906L542.328 381H541.096L539.262 378.634L537.428 381H536.196ZM543.379 384.22L545.227 380.454L542.553 375.19H543.701L545.759 379.348L547.649 375.19H548.769L544.499 384.22H543.379ZM555.209 375.19L551.009 380.076H555.041V381H548.993L553.193 376.114H549.805V375.19H555.209ZM400.724 399V390.642H399.156L399.702 389.662H401.76V399H400.724ZM409.586 399H403.552L406.954 395.066C407.532 394.385 407.896 393.932 408.046 393.708C408.391 393.213 408.564 392.737 408.564 392.28C408.564 391.748 408.391 391.314 408.046 390.978C407.7 390.633 407.252 390.46 406.702 390.46C406.03 390.46 405.512 390.735 405.148 391.286C404.952 391.585 404.849 391.953 404.84 392.392H403.804C403.841 391.599 404.074 390.955 404.504 390.46C405.064 389.825 405.801 389.508 406.716 389.508C407.546 389.508 408.232 389.774 408.774 390.306C409.324 390.829 409.6 391.491 409.6 392.294C409.6 392.919 409.352 393.587 408.858 394.296C408.606 394.641 408.181 395.159 407.584 395.85L405.638 398.048H409.586V399ZM412.515 391.972H411.479C411.507 391.477 411.652 391.02 411.913 390.6C412.38 389.872 413.103 389.508 414.083 389.508C414.914 389.508 415.558 389.755 416.015 390.25C416.482 390.745 416.715 391.337 416.715 392.028C416.715 393.008 416.314 393.699 415.511 394.1C415.633 394.147 415.749 394.212 415.861 394.296C415.983 394.371 416.127 394.492 416.295 394.66C416.463 394.828 416.599 395.061 416.701 395.36C416.804 395.649 416.855 395.981 416.855 396.354C416.855 397.203 416.58 397.885 416.029 398.398C415.488 398.911 414.807 399.168 413.985 399.168C413.435 399.168 412.921 399.042 412.445 398.79C411.969 398.529 411.615 398.118 411.381 397.558C411.26 397.259 411.19 396.933 411.171 396.578H412.207C412.254 396.961 412.366 397.273 412.543 397.516C412.861 397.983 413.341 398.216 413.985 398.216C414.499 398.216 414.933 398.034 415.287 397.67C415.642 397.297 415.819 396.849 415.819 396.326C415.819 395.561 415.511 395.038 414.895 394.758C414.587 394.609 414.233 394.543 413.831 394.562V393.638C414.233 393.666 414.587 393.601 414.895 393.442C415.418 393.171 415.679 392.709 415.679 392.056C415.679 391.599 415.549 391.221 415.287 390.922C415.026 390.614 414.625 390.46 414.083 390.46C413.561 390.46 413.159 390.637 412.879 390.992C412.665 391.272 412.543 391.599 412.515 391.972ZM423.639 389.144V396.284H424.787V397.236H423.639V399H422.603V397.236H417.815L423.639 389.144ZM419.649 396.284H422.603V392.154L419.649 396.284ZM432.198 389.662V390.614H429.202L428.6 392.63C428.759 392.593 428.955 392.574 429.188 392.574C430.112 392.574 430.854 392.882 431.414 393.498C431.984 394.114 432.268 394.884 432.268 395.808C432.268 396.816 431.937 397.628 431.274 398.244C430.621 398.86 429.818 399.168 428.866 399.168C428.064 399.168 427.368 398.925 426.78 398.44C426.444 398.151 426.174 397.833 425.968 397.488L426.794 396.9C426.934 397.18 427.144 397.432 427.424 397.656C427.882 398.029 428.386 398.216 428.936 398.216C429.59 398.216 430.136 397.983 430.574 397.516C431.013 397.049 431.232 396.485 431.232 395.822C431.232 395.15 431.013 394.599 430.574 394.17C430.145 393.741 429.599 393.526 428.936 393.526C428.348 393.526 427.746 393.741 427.13 394.17L428.488 389.662H432.198ZM438.153 389.438L438.937 390.026L436.795 393.008C437.066 392.924 437.341 392.882 437.621 392.882C438.508 392.882 439.231 393.176 439.791 393.764C440.361 394.352 440.645 395.085 440.645 395.962C440.645 396.895 440.342 397.665 439.735 398.272C439.138 398.869 438.373 399.168 437.439 399.168C436.749 399.168 436.147 399.005 435.633 398.678C435.129 398.342 434.765 397.941 434.541 397.474C434.317 396.998 434.205 396.503 434.205 395.99C434.205 395.281 434.462 394.567 434.975 393.848L438.153 389.438ZM437.425 398.216C438.06 398.216 438.583 398.006 438.993 397.586C439.404 397.157 439.609 396.625 439.609 395.99C439.609 395.365 439.399 394.851 438.979 394.45C438.569 394.039 438.046 393.834 437.411 393.834C436.777 393.834 436.254 394.039 435.843 394.45C435.442 394.861 435.241 395.374 435.241 395.99C435.241 396.625 435.442 397.157 435.843 397.586C436.254 398.006 436.781 398.216 437.425 398.216ZM441.779 398.678L447.085 390.614H441.975V389.662H448.835L442.591 399.224L441.779 398.678ZM453.537 394.142C454.48 394.562 454.951 395.323 454.951 396.424C454.951 397.199 454.699 397.852 454.195 398.384C453.7 398.907 453 399.168 452.095 399.168C451.19 399.168 450.485 398.907 449.981 398.384C449.486 397.852 449.239 397.199 449.239 396.424C449.239 395.323 449.71 394.562 450.653 394.142C449.897 393.703 449.519 393.022 449.519 392.098C449.519 391.389 449.748 390.782 450.205 390.278C450.662 389.765 451.292 389.508 452.095 389.508C452.898 389.508 453.528 389.765 453.985 390.278C454.442 390.782 454.671 391.389 454.671 392.098C454.671 393.022 454.293 393.703 453.537 394.142ZM450.947 393.26C451.255 393.568 451.638 393.722 452.095 393.722C452.552 393.722 452.93 393.568 453.229 393.26C453.537 392.952 453.691 392.569 453.691 392.112C453.691 391.617 453.532 391.221 453.215 390.922C452.907 390.614 452.534 390.46 452.095 390.46C451.656 390.46 451.278 390.614 450.961 390.922C450.653 391.221 450.499 391.617 450.499 392.112C450.499 392.569 450.648 392.952 450.947 393.26ZM450.779 397.712C451.115 398.048 451.554 398.216 452.095 398.216C452.636 398.216 453.075 398.048 453.411 397.712C453.747 397.367 453.915 396.928 453.915 396.396C453.915 395.873 453.742 395.449 453.397 395.122C453.061 394.786 452.627 394.618 452.095 394.618C451.563 394.618 451.124 394.786 450.779 395.122C450.443 395.449 450.275 395.873 450.275 396.396C450.275 396.928 450.443 397.367 450.779 397.712ZM458.969 399.224L458.185 398.65L460.327 395.668C460.056 395.752 459.781 395.794 459.501 395.794C458.614 395.794 457.886 395.5 457.317 394.912C456.757 394.324 456.477 393.591 456.477 392.714C456.477 391.781 456.775 391.015 457.373 390.418C457.979 389.811 458.749 389.508 459.683 389.508C460.373 389.508 460.971 389.676 461.475 390.012C461.988 390.339 462.357 390.74 462.581 391.216C462.805 391.683 462.917 392.173 462.917 392.686C462.917 393.405 462.66 394.119 462.147 394.828L458.969 399.224ZM459.697 390.46C459.062 390.46 458.539 390.675 458.129 391.104C457.718 391.524 457.513 392.051 457.513 392.686C457.513 393.311 457.718 393.829 458.129 394.24C458.549 394.641 459.076 394.842 459.711 394.842C460.345 394.842 460.863 394.637 461.265 394.226C461.675 393.815 461.881 393.302 461.881 392.686C461.881 392.051 461.675 391.524 461.265 391.104C460.863 390.675 460.341 390.46 459.697 390.46Z" fill="black"/>
<line x1="337.5" y1="53" x2="337.5" y2="506" stroke="black"/>
</svg>
