<svg width="800" height="800" viewBox="0 0 800 800" fill="none" xmlns="http://www.w3.org/2000/svg">
<g clip-path="url(#clip0_47_525)">
<path d="M800 0H0V800H800V0Z" fill="white"/>
<mask id="mask0_47_525" style="mask-type:luminance" maskUnits="userSpaceOnUse" x="259" y="251" width="283" height="297">
<path d="M541.196 251H259V548H541.196V251Z" fill="white"/>
</mask>
<g mask="url(#mask0_47_525)">
<path d="M541.134 252.546H522.643L524.375 251H539.759L541.134 252.546Z" fill="#231F20"/>
<path d="M540.918 545.48L540.16 546.454H522.132L400.562 450.742V435.004L540.918 545.48Z" fill="#231F20"/>
<path d="M540.16 546.454L538.939 548H524.096L522.132 546.454H540.16Z" fill="#231F20"/>
<path d="M522.642 252.546H541.134L541.196 252.623L536.944 256.395L400.562 377.214V360.673L522.642 252.546Z" fill="#231F20"/>
<path d="M400.562 546.454H388.193V547.227H400.562V546.454Z" fill="#231F20"/>
<path d="M400.562 450.742V546.454H388.193V441.002L400.562 450.742Z" fill="#231F20"/>
<path d="M400.562 435.004V450.742L388.193 441.002V425.264L400.562 435.004Z" fill="#231F20"/>
<path d="M400.562 377.214V435.004L388.193 425.264V388.176L400.562 377.214Z" fill="#231F20"/>
<path d="M400.562 360.673V377.214L388.193 388.176V371.633L400.562 360.673Z" fill="#231F20"/>
<path d="M400.562 252.546V360.673L388.193 371.633V306.006L273.271 546.454H259.603L260.438 544.645L400.037 252.546H400.562Z" fill="#231F20"/>
<path d="M400.562 251.433V252.546H400.037L400.562 251.433Z" fill="#231F20"/>
<path d="M388.193 425.264V441.002L346.727 408.366L388.193 371.633V388.176L366.022 407.81L388.193 425.264Z" fill="#231F20"/>
<path d="M273.271 546.454L272.528 548H259.51L259 547.768L259.603 546.454H273.271Z" fill="#231F20"/>
</g>
</g>
<defs>
<clipPath id="clip0_47_525">
<rect width="800" height="800" fill="white"/>
</clipPath>
</defs>
</svg>
