<svg width="320" height="418" viewBox="0 0 320 418" fill="none" xmlns="http://www.w3.org/2000/svg">
<g opacity="0.2" clip-path="url(#clip0_10_5055)">
<path d="M32.6172 13.5139L32.8189 9.27822L36.2478 11.4969L32.6172 13.5139Z" fill="#18171B"/>
<path d="M33.8276 349.547L34.0293 340.874L41.8957 345.109L33.8276 349.547Z" fill="#1F1D1E"/>
<path d="M35.0376 392.711L35.2393 384.038L43.1056 388.273L35.0376 392.711Z" fill="#1E1C1E"/>
<path d="M37.0547 50.2234L37.2564 41.9537L44.7193 46.1894L37.0547 50.2234Z" fill="#1E1C1D"/>
<path d="M39.4751 253.941L40.0802 253.739L40.2819 254.344L40.0802 254.546L39.4751 253.941Z" fill="#141117"/>
<path d="M40.6855 87.7397L40.8872 87.1346L41.4923 87.3363L41.2906 87.538L40.6855 87.7397Z" fill="#464744"/>
<path d="M49.9635 413.486L47.5431 413.486L41.8955 409.653L49.7618 405.014L49.9635 413.486Z" fill="#1D1B1D"/>
<path d="M41.8955 69.9901L48.3499 66.3594L48.1482 73.419L41.8955 69.9901Z" fill="#1D1B1D"/>
<path d="M42.7021 26.8262L52.3838 21.582L51.7787 32.2721L42.7021 26.8262Z" fill="#1E1B1D"/>
<path d="M43.106 111.54L49.5604 108.313L49.3587 114.969L43.106 111.54Z" fill="#1E1C1E"/>
<path d="M44.7192 323.729L51.1737 319.695L50.972 327.158L44.7192 323.729Z" fill="#1D1B1D"/>
<path d="M44.7192 224.493L51.5771 220.459L51.3754 227.921L44.7192 224.493Z" fill="#1B181A"/>
<path d="M46.7363 369.313L51.9805 366.49L51.7788 372.339L46.7363 369.313Z" fill="#1E1D1F"/>
<path d="M51.1736 169.63C50.9518 169.018 51.7678 168.743 51.9804 169.227C52.2399 169.817 51.3496 170.116 51.1736 169.63Z" fill="#3A3E3B"/>
<path d="M52.7871 301.945C52.6606 301.361 53.5885 300.994 53.9973 301.139C54.498 302.762 52.9926 302.895 52.7871 301.945Z" fill="#010102"/>
<path d="M64.8892 34.0874L65.0909 20.1701L77.3946 27.2296L64.8892 34.0874Z" fill="#1E1C1D"/>
<path d="M70.5372 413.486L65.293 413.486L65.4947 401.787L77.395 408.847L70.5372 413.486Z" fill="#1E1C1D"/>
<path d="M65.2928 129.693C65.0709 129.081 65.887 128.806 66.0996 129.29C66.359 129.881 65.4686 130.179 65.2928 129.693Z" fill="#1D1B1A"/>
<path d="M65.6963 375.364L65.898 360.64L79.0085 368.103L65.6963 375.364Z" fill="#1F1C1E"/>
<path d="M66.0996 188.186L66.3013 182.741C72.272 185.55 71.8166 185.497 66.0996 188.186Z" fill="#1A191B"/>
<path d="M66.5029 285.809L66.7046 279.153L72.5539 282.582L66.5029 285.809Z" fill="#1C1A1C"/>
<path d="M66.9062 328.973L67.1079 317.88L76.9913 323.326L66.9062 328.973Z" fill="#1D1B1D"/>
<path d="M67.3096 76.4445L67.5113 63.3339L79.0082 69.9901L67.3096 76.4445Z" fill="#1E1B1D"/>
<path d="M69.3267 115.574L69.5284 109.322L74.9743 112.347L69.3267 115.574Z" fill="#1D1B1D"/>
<path d="M69.73 250.714L69.9317 246.074C74.6555 248.433 75.4684 249.099 69.73 250.714Z" fill="#1A191B"/>
<path d="M72.5542 343.092C73.693 342.765 80.5125 337.674 81.0256 339.058L80.4205 347.731L72.5542 343.092Z" fill="#1E1C1E"/>
<path d="M73.3608 389.483L84.2527 383.836L84.051 395.333L73.3608 389.483Z" fill="#1E1C1E"/>
<path d="M73.3608 302.349L79.8153 298.718L79.6136 305.778L73.3608 302.349Z" fill="#1E1B1C"/>
<path d="M73.3608 6.65611L83.8493 1.00849L83.6476 12.5054L73.3608 6.65611Z" fill="#1E1C1D"/>
<path d="M74.1675 266.446L80.2185 263.219L80.0168 269.875L74.1675 266.446Z" fill="#1C191B"/>
<path d="M75.3779 91.7737L81.4289 88.9499L80.8238 95.2026L75.3779 91.7737Z" fill="#1D1C1E"/>
<path d="M76.1846 49.0132L86.673 42.9622L86.0679 54.8625L76.1846 49.0132Z" fill="#1E1B1C"/>
<path d="M76.5879 201.095C77.4709 200.282 84.4207 195.915 84.6559 197.061L84.4542 205.331L76.5879 201.095Z" fill="#1D1A1C"/>
<path d="M79.0083 175.681C78.419 174.345 80.1972 174.588 80.2185 175.278C80.225 175.483 79.2633 176.259 79.0083 175.681Z" fill="#141110"/>
<path d="M89.4971 136.148L90.1022 124.247L100.792 130.5L89.4971 136.148Z" fill="#1F1C1E"/>
<path d="M95.5479 234.174L95.7496 222.274L106.036 228.123L95.5479 234.174Z" fill="#1D1B1C"/>
<path d="M95.9512 308.803L96.1529 296.903L106.843 302.752L95.9512 308.803Z" fill="#1D1B1C"/>
<path d="M96.3545 167.613L96.9596 158.537L105.229 163.579C103.968 163.743 96.9281 169.162 96.3545 167.613Z" fill="#1E1B1C"/>
<path d="M96.7578 99.8417L96.9595 85.9244L109.263 92.9839L96.7578 99.8417Z" fill="#1E1B1D"/>
<path d="M96.7578 0.40342L102.809 0.40342L113.297 6.65613L96.9595 15.7327L96.7578 0.40342Z" fill="#1F1C1E"/>
<path d="M97.1616 399.165L97.7667 380.407L114.104 389.887L97.1616 399.165Z" fill="#1F1C1E"/>
<path d="M97.5649 353.177L97.7666 336.436L112.491 345.109L97.5649 353.177Z" fill="#1F1C1E"/>
<path d="M97.9683 57.4846L98.17 40.3401L113.297 49.0132L97.9683 57.4846Z" fill="#1F1C1D"/>
<path d="M98.3716 270.884L98.5733 261L107.65 266.043L98.3716 270.884Z" fill="#1E1C1D"/>
<path d="M120.962 413.486L110.474 413.486L105.229 409.653L120.76 400.577L120.962 413.486Z" fill="#1E1C1D"/>
<path d="M105.229 71.2002L116.928 64.7458L116.726 77.453L105.229 71.2002Z" fill="#1F1C1E"/>
<path d="M105.633 27.633L118.945 20.3717L118.743 35.0959L105.633 27.633Z" fill="#1E1B1D"/>
<path d="M106.843 325.343L118.945 318.485L118.744 331.999L106.843 325.343Z" fill="#1E1C1D"/>
<path d="M108.053 193.431C107.539 185.05 108.747 187.986 114.105 190.607L108.86 193.834L108.053 193.431Z" fill="#1F1D1E"/>
<path d="M108.86 286.213L119.348 280.565L119.147 292.062L108.86 286.213Z" fill="#1D1A1C"/>
<path d="M109.264 368.103L122.374 360.64L122.576 375.768L109.264 368.103Z" fill="#1F1C1D"/>
<path d="M109.264 111.137L119.752 105.489L119.55 116.986L109.264 111.137Z" fill="#1E1C1D"/>
<path d="M109.667 245.066L119.349 239.418L119.147 250.512L109.667 245.066Z" fill="#1D1B1C"/>
<path d="M111.28 147.443L120.558 142.602L119.953 152.485L111.28 147.443Z" fill="#1F1C1E"/>
<path d="M111.684 209.163L123.786 202.709L123.584 215.416L111.684 209.163Z" fill="#1D1B1D"/>
<path d="M114.911 174.874L124.593 169.63L124.391 179.917L114.911 174.874Z" fill="#1E1B1D"/>
<path d="M127.82 80.0751L128.425 61.7204L144.763 71.2003L127.82 80.0751Z" fill="#1F1C1E"/>
<path d="M130.644 36.5078L131.249 15.7327L149.603 26.4228L130.644 36.5078Z" fill="#1F1D1E"/>
<path d="M131.451 292.264L132.056 278.347L144.36 285.406L131.451 292.264Z" fill="#1F1C1E"/>
<path d="M131.854 116.381L132.056 104.077L143.149 110.33L131.854 116.381Z" fill="#1E1C1E"/>
<path d="M132.661 333.007L133.266 315.863L148.393 324.536L132.661 333.007Z" fill="#1F1C1E"/>
<path d="M132.661 250.31L133.266 235.989L145.973 243.452L132.661 250.31Z" fill="#1F1D1E"/>
<path d="M132.661 152.687L133.266 141.594L143.149 147.04L132.661 152.687Z" fill="#1E1C1D"/>
<path d="M133.064 50.2234L146.376 42.9622L146.174 57.2829L133.064 50.2234Z" fill="#1F1C1E"/>
<path d="M149.604 413.486L133.871 413.486L134.476 399.77L152.629 409.855L153.234 410.864L149.604 413.486Z" fill="#1F1D1E"/>
<path d="M145.166 0.403404L146.376 0.403404L146.376 12.7071L145.368 12.9088L134.678 6.65612L145.166 0.403404Z" fill="#1E1B1D"/>
<path d="M135.081 380.205L135.283 358.22L154.848 369.313L135.081 380.205Z" fill="#1E1C1D"/>
<path d="M135.888 180.925L136.493 171.445L145.166 176.488C144.069 176.943 136.43 182.39 135.888 180.925Z" fill="#201D1E"/>
<path d="M137.501 128.483L146.376 123.642L146.175 133.122L137.501 128.483Z" fill="#1D1B1D"/>
<path d="M137.905 91.3703L150.41 84.9159L150.209 98.0264L137.905 91.3703Z" fill="#1E1B1D"/>
<path d="M139.922 303.156L152.831 296.298L152.629 309.812L139.922 303.156Z" fill="#1F1C1E"/>
<path d="M139.922 214.004L140.124 202.911L150.007 208.357C150.272 209.171 140.261 214.635 139.922 214.004Z" fill="#1F1C1D"/>
<path d="M140.325 264.429L154.444 256.361L154.243 272.296L140.325 264.429Z" fill="#1F1C1D"/>
<path d="M140.325 161.562L149.603 156.318L149.402 166.605L140.325 161.562Z" fill="#1D1B1C"/>
<path d="M141.939 345.513L158.882 335.831L158.68 354.589L141.939 345.513Z" fill="#1E1B1D"/>
<path d="M142.342 389.887L162.512 378.592L162.311 401.384L142.342 389.887Z" fill="#1F1D1E"/>
<path d="M146.78 190.203L159.89 182.741L160.092 197.868L146.78 190.203Z" fill="#1F1D1E"/>
<path d="M147.183 227.316L163.319 218.442L163.117 236.393L147.183 227.316Z" fill="#1F1C1E"/>
<path d="M155.655 135.341L155.856 118.196L171.791 126.466L155.655 135.341Z" fill="#1F1C1D"/>
<path d="M156.461 0.40341L165.74 0.40341L178.245 7.86632L157.067 19.7666L156.461 0.40341Z" fill="#1F1C1E"/>
<path d="M156.865 59.905L157.47 38.7265L176.228 49.4166L156.865 59.905Z" fill="#1F1C1E"/>
<path d="M160.496 100.245L161.101 80.6802L178.245 90.5635L160.496 100.245Z" fill="#1F1D1E"/>
<path d="M160.899 170.033L161.101 154.099L175.421 161.965L160.899 170.033Z" fill="#1E1C1E"/>
<path d="M162.916 69.9901L177.035 62.3254L176.833 77.8564L162.916 69.9901Z" fill="#1F1C1E"/>
<path d="M163.319 144.216L174.211 138.165L174.009 150.469L163.319 144.216Z" fill="#1E1B1D"/>
<path d="M164.126 110.734L176.228 103.472L176.026 117.39L164.126 110.734Z" fill="#1F1C1E"/>
<path d="M166.546 27.2296L180.262 19.9684L179.657 34.6925L166.546 27.2296Z" fill="#1E1B1D"/>
<path d="M167.756 314.451L167.958 293.676L186.313 303.962L167.756 314.451Z" fill="#1E1C1D"/>
<path d="M168.563 275.724L169.169 255.353L186.717 265.236L168.563 275.724Z" fill="#1E1C1D"/>
<path d="M170.984 197.465L171.589 180.724L186.313 188.993L170.984 197.465Z" fill="#1F1C1D"/>
<path d="M171.791 400.779L171.992 378.793L191.557 389.483L171.791 400.779Z" fill="#1F1C1E"/>
<path d="M175.018 353.581L175.623 337.646L189.943 345.916L175.018 353.581Z" fill="#1F1C1E"/>
<path d="M176.228 237.401L176.833 218.24L193.978 228.123L176.228 237.401Z" fill="#1F1C1E"/>
<path d="M176.631 367.7L199.827 354.589L200.029 381.012L176.631 367.7Z" fill="#1F1D1E"/>
<path d="M177.035 284.599L198.818 272.094L198.617 296.903L177.035 284.599Z" fill="#1F1C1D"/>
<path d="M177.438 323.729L198.617 311.425L199.222 335.831L177.438 323.729Z" fill="#1F1C1E"/>
<path d="M181.069 247.89L199.222 238.208L199.02 257.773L181.069 247.89Z" fill="#1F1D1E"/>
<path d="M181.069 207.55L193.574 200.288L193.373 214.609L181.069 207.55Z" fill="#1E1B1D"/>
<path d="M201.239 413.486L185.506 413.486L181.472 410.864C187.196 406.499 194.457 403.456 200.634 399.367L201.239 413.486Z" fill="#1F1C1E"/>
<path d="M183.893 156.721L184.094 138.366L200.835 147.443L183.893 156.721Z" fill="#1F1C1E"/>
<path d="M184.699 171.244L200.634 162.167L200.835 180.522L184.699 171.244Z" fill="#1E1B1D"/>
<path d="M185.91 82.0921L186.515 58.0897L207.693 69.99L185.91 82.0921Z" fill="#1F1C1E"/>
<path d="M186.716 120.819L186.918 99.2366L206.483 109.927L186.716 120.819Z" fill="#1F1C1E"/>
<path d="M187.523 38.5248L188.129 14.5224L209.71 26.8262L187.523 38.5248Z" fill="#1F1C1E"/>
<path d="M198.415 0.403401L212.131 0.4034L211.525 16.136L191.557 4.63911L198.415 0.403401Z" fill="#1F1C1E"/>
<path d="M193.574 126.87L210.92 117.188L210.719 136.753L193.574 126.87Z" fill="#1E1B1D"/>
<path d="M194.381 88.5465L210.113 80.0751L209.508 97.2196L194.381 88.5465Z" fill="#1E1B1D"/>
<path d="M196.801 49.82L211.324 41.752L211.122 58.0897L196.801 49.82Z" fill="#1F1C1E"/>
<path d="M206.08 220.055L206.685 194.036L229.477 207.146L206.08 220.055Z" fill="#1F1C1E"/>
<path d="M209.307 345.513L235.528 330.99L235.326 360.237L209.307 345.513Z" fill="#1F1C1E"/>
<path d="M209.71 182.135L209.912 154.099L235.125 168.016L209.71 182.135Z" fill="#1F1C1E"/>
<path d="M210.114 304.769L235.528 290.65L235.326 319.09L210.114 304.769Z" fill="#1F1C1E"/>
<path d="M225.846 413.486L210.92 413.486L211.929 400.577L229.275 410.259L225.846 413.486Z" fill="#1F1D1F"/>
<path d="M210.92 295.491L211.526 274.716L230.284 285.003L210.92 295.491Z" fill="#1F1D1E"/>
<path d="M210.92 264.429L233.107 251.924L232.906 276.733L210.92 264.429Z" fill="#1F1C1D"/>
<path d="M210.92 253.537L211.122 232.359L229.88 243.049L210.92 253.537Z" fill="#1E1B1D"/>
<path d="M211.324 389.08L235.124 376.171L234.923 402.191L211.324 389.08Z" fill="#201D1E"/>
<path d="M211.324 374.558L211.525 358.22L226.25 366.086L211.324 374.558Z" fill="#1F1C1D"/>
<path d="M211.324 334.218L211.525 317.88L226.25 326.15L211.324 334.218Z" fill="#1F1D1E"/>
<path d="M211.727 26.4228L235.124 13.9173L234.519 39.5333L211.727 26.4228Z" fill="#1F1D1E"/>
<path d="M215.761 187.38L231.494 178.908L231.292 196.053L215.761 187.38Z" fill="#201D1E"/>
<path d="M216.165 226.51L231.09 218.038L230.889 235.183L216.165 226.51Z" fill="#1F1C1D"/>
<path d="M217.778 137.761L217.98 116.179L236.738 126.87L217.778 137.761Z" fill="#1F1C1D"/>
<path d="M218.182 0.403386L223.022 0.403386L230.284 4.63909L218.383 11.6986L218.182 0.403386Z" fill="#1E1C1D"/>
<path d="M218.988 112.347L238.755 101.455L238.553 123.441L218.988 112.347Z" fill="#1F1C1D"/>
<path d="M219.392 146.233L235.125 137.358L234.923 155.309L219.392 146.233Z" fill="#1F1C1E"/>
<path d="M220.602 62.3254L221.207 44.7775L236.335 53.4506L220.602 62.3254Z" fill="#1F1C1E"/>
<path d="M221.812 99.4383L222.014 79.0666L239.966 89.3533L221.812 99.4383Z" fill="#1E1B1D"/>
<path d="M221.812 72.007L242.386 60.3084L242.184 83.9073L221.812 72.007Z" fill="#1F1C1D"/>
<path d="M250.857 413.486L238.352 413.486L238.957 406.225L250.857 413.486Z" fill="#1E1B1D"/>
<path d="M238.352 0.403381L252.471 0.403381L238.553 9.2782L238.352 0.403381Z" fill="#1F1C1C"/>
<path d="M241.579 241.435L242.184 212.189L268.204 226.913L241.579 241.435Z" fill="#1F1D1E"/>
<path d="M241.579 200.692L242.184 171.849L267.397 186.169L241.579 200.692Z" fill="#1F1C1E"/>
<path d="M242.386 320.502L268.203 305.98L268.002 335.226L242.386 320.502Z" fill="#1F1C1E"/>
<path d="M242.789 284.196L269.414 269.673L269.212 298.92L242.789 284.196Z" fill="#1F1C1E"/>
<path d="M242.789 159.545L243.394 131.509L268.607 145.829L242.789 159.545Z" fill="#201D1E"/>
<path d="M243.192 274.918L243.797 255.756L260.942 265.236L243.192 274.918Z" fill="#201D1E"/>
<path d="M243.596 390.694L243.797 369.515L262.152 380.205L243.596 390.694Z" fill="#1F1C1E"/>
<path d="M243.596 350.354L243.797 333.209L258.925 341.479L243.596 350.354Z" fill="#1F1C1E"/>
<path d="M243.596 310.82L243.797 294.886L257.715 302.752L243.596 310.82Z" fill="#1F1C1D"/>
<path d="M243.596 45.786L244.201 24.6075L262.152 35.2976L243.596 45.786Z" fill="#1F1C1E"/>
<path d="M245.209 358.422L268.002 345.311L268.607 371.33L245.209 358.422Z" fill="#1F1C1E"/>
<path d="M245.209 119.205L245.411 104.077L258.522 111.54L245.209 119.205Z" fill="#1E1B1C"/>
<path d="M245.613 401.182L264.976 390.29L264.774 412.276L245.613 401.182Z" fill="#1F1C1E"/>
<path d="M245.613 14.7241L264.976 3.42891L264.774 25.8177L245.613 14.7241Z" fill="#1F1C1E"/>
<path d="M246.016 95.8077L268.203 82.8989L268.001 108.515L246.016 95.8077Z" fill="#1F1C1D"/>
<path d="M246.016 56.6778L268.607 44.1724L268.001 69.7883L246.016 56.6778Z" fill="#1F1C1E"/>
<path d="M247.227 127.676L270.22 115.171L270.019 140.383L247.227 127.676Z" fill="#1F1D1E"/>
<path d="M247.63 83.3022L247.832 64.9475L263.766 74.024L247.63 83.3022Z" fill="#1F1C1D"/>
<path d="M248.437 247.486L266.993 236.998L266.791 257.773L248.437 247.486Z" fill="#1F1C1D"/>
<path d="M248.84 164.789L267.397 154.301L267.195 175.076L248.84 164.789Z" fill="#1F1C1D"/>
<path d="M249.244 205.936L265.38 197.465L265.178 214.609L249.244 205.936Z" fill="#1E1C1D"/>
<path d="M271.431 221.669L271.632 189.598L300.879 205.936L271.431 221.669Z" fill="#201C1E"/>
<path d="M271.431 113.961L294.626 100.85L294.828 127.273L271.431 113.961Z" fill="#1F1C1E"/>
<path d="M271.834 302.349L294.828 289.44L294.626 315.459L271.834 302.349Z" fill="#1F1C1E"/>
<path d="M272.237 381.415L294.021 368.507L293.819 393.719L272.237 381.415Z" fill="#1F1C1D"/>
<path d="M272.237 261.605L272.439 231.955L298.458 246.68L272.237 261.605Z" fill="#1F1C1D"/>
<path d="M272.237 179.715L272.439 150.065L298.862 164.789L272.237 179.715Z" fill="#1F1C1E"/>
<path d="M272.237 34.4907L294.021 21.9853L293.819 46.7945L272.237 34.4907Z" fill="#1F1C1D"/>
<path d="M280.305 413.486L272.641 413.486L272.842 391.702L294.021 404.409L280.305 413.486Z" fill="#1F1D1E"/>
<path d="M272.641 0.403414L277.078 0.403414L294.021 11.0935L272.842 23.8007L272.641 0.403414Z" fill="#1F1D1E"/>
<path d="M273.448 336.638L294.021 324.939L293.819 348.538L273.448 336.638Z" fill="#1F1C1E"/>
<path d="M273.448 78.8649L294.021 67.1663L293.819 90.7652L273.448 78.8649Z" fill="#201D1E"/>
<path d="M274.658 328.167L274.859 311.022L289.584 319.695L274.658 328.167Z" fill="#1F1C1E"/>
<path d="M274.658 103.876L274.859 87.1346L289.584 95.4043L274.658 103.876Z" fill="#1E1C1D"/>
<path d="M275.061 227.316L294.828 216.021L294.626 238.813L275.061 227.316Z" fill="#1F1C1E"/>
<path d="M275.061 184.152L295.231 173.261L294.626 195.649L275.061 184.152Z" fill="#1F1C1E"/>
<path d="M275.061 144.619L295.231 133.324L295.029 156.116L275.061 144.619Z" fill="#1F1C1E"/>
<path d="M275.061 137.358L275.666 122.634L288.373 130.097L275.061 137.358Z" fill="#1E1C1E"/>
<path d="M275.464 292.667L275.666 274.716L291.197 283.389L275.464 292.667Z" fill="#1E1B1C"/>
<path d="M275.868 370.927L276.07 347.328L296.845 359.228L275.868 370.927Z" fill="#1F1C1E"/>
<path d="M275.868 266.85L299.669 253.537L299.467 280.364L275.868 266.85Z" fill="#1F1C1E"/>
<path d="M275.868 67.5696L276.07 44.3741L296.845 55.871L275.868 67.5696Z" fill="#1F1C1E"/>
<path d="M308.947 413.486L297.652 413.486L298.257 406.628L308.947 413.486Z" fill="#1E1C1F"/>
<path d="M297.652 0.403431L311.367 0.40343L298.257 8.87485L297.652 0.403431Z" fill="#201D1E"/>
<path d="M300.476 398.762L300.677 363.868L330.731 381.415L300.476 398.762Z" fill="#1F1C1E"/>
<path d="M300.476 356.001L300.677 322.317L329.52 339.058L300.476 356.001Z" fill="#1F1C1E"/>
<path d="M300.476 92.1771L300.677 58.8965L329.117 75.6376L300.476 92.1771Z" fill="#1F1C1E"/>
<path d="M300.476 51.0302L300.677 16.136L330.731 33.6839L300.476 51.0302Z" fill="#1F1C1E"/>
<path d="M300.879 315.661L301.081 286.818L326.293 301.139L300.879 315.661Z" fill="#1F1C1E"/>
<path d="M300.879 126.466L301.081 98.4298L325.486 112.751L300.879 126.466Z" fill="#1F1D1E"/>
<path d="M301.282 160.352L301.887 131.105L327.503 145.829L301.282 160.352Z" fill="#1F1C1E"/>
<path d="M301.686 245.066L302.291 210.172L333.151 227.72L301.686 245.066Z" fill="#1F1C1E"/>
<path d="M301.686 201.095L302.291 166.605L332.747 184.152L301.686 201.095Z" fill="#1F1D1E"/>
<path d="M304.913 277.338L305.518 254.949L325.486 266.446L304.913 277.338Z" fill="#1F1C1E"/>
<path d="M305.316 283.792L329.52 270.48L329.319 297.306L305.316 283.792Z" fill="#1F1C1E"/>
<path d="M305.316 250.31L329.52 236.595L329.319 264.228L305.316 250.31Z" fill="#1F1C1E"/>
<path d="M305.72 318.888L328.915 305.374L329.117 332.604L305.72 318.888Z" fill="#1F1C1E"/>
<path d="M305.72 206.34L328.915 192.826L329.52 219.248L305.72 206.34Z" fill="#1E1C1E"/>
<path d="M305.72 162.772L329.52 149.057L329.319 176.286L305.72 162.772Z" fill="#1F1C1E"/>
<path d="M305.72 95.4043L329.117 82.0921L328.915 108.918L305.72 95.4043Z" fill="#1F1D1E"/>
<path d="M306.526 11.4969L324.478 1.21021L324.679 21.9854L306.526 11.4969Z" fill="#1F1C1E"/>
<path d="M324.679 413.486L322.259 413.486L306.93 403.602L324.478 393.316L324.679 413.486Z" fill="#1F1C1D"/>
<path d="M308.14 360.035L327.1 349.547L326.495 371.129L308.14 360.035Z" fill="#1F1C1D"/>
<path d="M308.14 55.4676L327.1 44.1724L326.898 66.1577L308.14 55.4676Z" fill="#1F1C1E"/>
<path d="M308.543 128.08L329.117 116.785L328.915 139.577L308.543 128.08Z" fill="#1F1C1E"/>
</g>
<g clip-path="url(#clip1_10_5055)">
<path d="M203.111 51.1936C195.439 47.6056 185.626 54.2443 178.175 57.2266C183.015 55.0865 188.668 49.8136 193.66 48.7804C195.658 48.3669 210.383 47.7483 204.318 50.1881L206.128 50.7914L203.111 51.1936Z" fill="#070706"/>
<path d="M301.248 230.575L296.824 226.754C297.135 228.763 299.497 230.19 301.248 230.575C301.206 230.579 301.368 231.4 301.047 231.379C299.447 231.278 296.616 229.234 295.215 228.363C295.532 233.622 300.057 235.351 304.465 236.809C298.383 238.085 293.47 233.119 289.785 228.966C290.097 235.847 287.401 243.395 281.138 246.864C282.131 246.187 284.844 237.581 283.752 237.412C282.479 241.56 281.713 247.464 277.518 249.679C277.866 248.076 278.161 246.266 278.322 244.652C279.464 233.202 281.277 221.458 278.926 210.063L275.507 236.407L274.703 231.178C271.629 236.708 267.861 242.001 266.256 247.668L264.849 245.858C264.293 245.921 263.655 252.08 263.441 253.098L261.631 253.902C260.256 250.242 260.541 251.384 259.419 253.5C258.563 252.804 257.435 254.391 257.006 254.908C243.019 271.764 232.248 292.275 211.155 301.764H210.753C210.608 300.652 197.582 284.643 196.475 284.47C196.088 284.409 190.953 286.61 189.034 286.883C180.053 288.16 170.73 286.748 163.092 281.654C160.935 290.401 162.553 299.173 164.098 307.797C160.954 299.55 160.485 290.045 162.489 281.453C159.692 276.034 153.372 282.425 152.434 285.877C142.815 321.278 187.991 355.407 217.791 362.497C230.165 365.44 239.884 363.113 251.576 358.072C255.062 356.569 258.888 354.265 261.832 351.838C261.881 351.137 253.097 346.186 252.38 346.006C252.293 345.985 251.264 346.937 250.772 346.811L251.174 345.202C250.793 345.946 250.197 345.816 249.766 346.006C250.564 345.224 249.755 344.859 249.766 344.8C250.66 339.983 252.358 339.893 247.956 335.147C247.017 335.045 242.146 344.348 241.32 345.604C240.684 346.571 239.721 347.059 239.309 347.615C238.992 346.639 240.671 345.416 240.918 344.599C241.214 343.617 239.766 344.77 240.113 343.794C241.062 341.124 243.375 338.007 244.538 335.549C250.963 321.961 255.28 307.252 261.43 293.318C263.315 289.046 265.54 283.35 267.865 279.442C268.094 279.058 269.243 276.984 269.876 277.431C265.322 290.584 264.231 304.849 262.435 318.657L275.105 295.128L278.121 298.547C283.813 293.67 280.096 284.837 277.719 278.839C277.7 278.791 277.026 279.725 276.714 279.04C276.006 277.489 275.544 263.906 276.512 263.153C285.447 268.946 294.715 273.756 304.264 278.437C336.074 294.029 369.349 306.816 401.597 321.472C405.631 324.444 408.647 328.266 411.451 332.331V339.973V405.532V417.196H237.499L231.064 403.521L225.031 417.196H138.558L163.695 398.493L117.241 357.268L166.712 395.879L195.469 375.568C166.791 367.86 139.025 357.456 112.013 345.202L216.987 379.791L216.182 373.758C217.001 373.244 224.961 374.687 225.433 375.367C226.192 376.46 224.91 379.496 225.835 379.791C227.903 380.451 240.032 375.433 243.13 375.367L269.474 356.665C263.593 351.5 264.909 353.966 260.022 356.464C254.052 359.515 239.72 366.373 233.477 366.921C213.077 368.713 176.522 346.753 163.293 330.522C151.722 316.324 147.936 302.517 149.819 284.067C139.369 287.647 128.976 291.583 118.448 294.927C106.774 298.634 98.4512 300.47 86.8751 305.384C75.7715 310.098 64.7231 315.352 53.8947 320.668C43.8779 325.585 27.7121 331.848 20.9143 340.376C16.7477 345.602 12.3147 354.31 9.65266 360.486C8.3914 363.412 7.42938 365.386 6.43506 368.53C3.9598 376.355 3.10485 385.223 0.804257 392.863C0.658077 393.348 0.327543 394.513 -0.402344 394.27V388.237C2.61697 380.069 3.27197 370.79 6.43506 362.698C8.24633 358.064 18.9141 337.846 21.7187 334.141C25.228 329.506 54.0817 316.735 61.3354 313.428C91.9255 299.48 123.333 286.923 154.445 274.214C148.247 265.572 152.681 256.27 150.825 247.266C150.394 248.623 151.77 252.988 150.021 253.299L148.412 214.286C142.573 209.269 140.093 197.896 135.943 191.763C135.705 191.409 133.14 188.763 132.927 188.746C132.847 188.74 132.407 190.043 132.123 189.953C131.994 189.912 131.468 187.262 130.715 189.752C129.823 192.7 132.994 198.59 134.737 201.013C129.595 199.807 127.637 191.138 127.497 186.132C124.885 187.232 124.305 182.288 123.877 180.099V186.534L129.709 198.801C114.241 186.58 118.713 163.652 128.302 149.129L124.682 153.956C121.887 159.632 119.284 165.762 118.247 172.055C117.594 176.014 119.757 180.99 116.035 183.92C114.392 183.595 114.735 170.772 115.431 168.636C119.705 155.503 127.253 143.889 135.139 132.639L133.329 130.025C120.577 139.876 121.355 155.001 114.627 168.234C109.06 164.709 117.382 140.374 119.855 135.052C123.061 128.155 128.416 121.643 133.128 115.747L131.921 116.149C132.921 111.156 135.158 106.495 136.748 101.67C136.773 101.592 135.918 100.943 135.943 100.865C139.454 90.1495 148.343 79.449 157.662 73.1135C148.253 77.3676 141.745 87.3864 136.949 96.24L139.965 84.7773V88.3971C145.409 72.877 158.835 64.8049 173.75 60.042C173.175 60.4096 171.4 61.1476 171.94 62.053C181.158 56.3212 192.252 52.5695 203.111 51.5958C220.737 50.0156 231.878 52.1311 240.314 68.8904C238.914 63.2407 232.994 56.0835 227.846 53.2046C220.61 49.1581 214.83 50.7327 206.932 50.7914L207.334 49.5848C214.736 49.65 222.454 47.8988 229.857 48.3782C238.291 48.9244 247.941 52.4489 256.805 51.998C257.793 50.9543 251.816 49.9323 254.391 49.5848C255.119 49.4867 267.37 51.6316 268.871 51.998C282.511 55.3302 301.534 65.5417 294.008 82.3641C295.087 81.3795 297.825 78.4616 298.03 77.1355C298.303 75.3715 296.709 72.8903 297.427 71.3036C299.725 74.2389 300.274 76.6726 300.041 80.3531C300.013 80.8024 298.716 82.8274 298.835 83.1685C298.966 83.5466 304.594 85.9964 305.873 86.9894C322.23 99.6905 311.864 116.861 313.716 134.248C314.142 138.251 315.582 146.408 316.531 150.336C318.831 159.845 325.887 167.071 324.173 178.088C324.008 179.147 316.488 196.694 315.727 197.796C315.141 198.644 311.051 203.123 310.096 202.22C312.807 200.06 312.489 195.894 313.515 192.768C311.42 198.616 309.668 202.494 304.666 206.443C300.609 209.646 294.654 211.32 291.997 214.286C293.628 216.133 294.756 224.409 297.427 222.129C294.858 224.494 303.581 229.426 303.661 229.972C303.265 231.529 301.901 230.508 301.248 230.575ZM226.64 50.3892C228.735 51.8677 232.31 51.3267 234.684 51.998C242.268 54.1429 246.779 59.8164 252.179 65.0695C246.15 56.3072 237.585 50.2669 226.64 50.3892ZM220.003 70.4992C217.016 68.333 214.07 65.8659 209.948 66.2761C212.9 67.4972 217.482 68.5598 220.003 70.4992C220.123 70.5913 221.43 72.4302 221.813 72.9124C221.927 73.056 222.91 72.6703 223.221 73.1135C224.104 74.3712 223.064 81.0091 222.819 82.7663C227.031 75.5862 221.49 63.5387 215.378 58.8354C203.649 49.8092 192.357 56.1069 179.783 59.0365C192.317 58.0431 199.409 50.9535 211.758 57.6288C215.523 59.6639 222.732 67.1324 222.819 71.5047C222.858 73.5016 221.101 71.2952 220.003 70.4992ZM273.697 54.4112C276.758 56.8039 280.438 59.384 283.953 61.0475C281.04 58.1694 277.34 56.1849 273.697 54.4112ZM255.598 55.6178L267.463 62.6563L261.631 58.031L255.598 55.6178ZM249.967 56.4222L259.017 63.0585L255.598 59.2376L249.967 56.4222ZM181.191 62.4552C180.784 63.1373 182.626 62.9077 182.599 62.6563C182.562 62.3108 181.526 62.4918 181.191 62.4552ZM286.97 63.2596L293.405 73.7168C293.226 69.6369 289.656 66.0525 286.97 63.2596ZM184.006 64.064C195.978 68.9797 211.663 69.6188 217.992 82.7663C213.854 68.6249 195.941 67.5346 184.006 64.064ZM201.904 65.2706C209.096 68.5417 214.499 71.8196 220.003 77.5377C216.275 71.5075 208.545 67.0222 201.904 65.2706C201.412 65.0466 200.769 63.9325 199.893 64.6673C200.449 65.6157 201.247 65.0973 201.904 65.2706ZM193.659 70.9014C190.986 71.0752 183.722 72.6461 180.789 73.3146C177.322 74.1045 173.435 75.9756 169.929 76.9344C168.161 77.0249 169.423 76.354 169.929 76.13C173.193 74.6873 177.399 73.7763 180.789 72.5102C176.54 73.0918 168.393 75.3546 164.299 77.3366C161.03 78.9193 158.989 81.2388 157.26 84.3751C163.078 78.801 171.101 77.2811 178.577 75.1245C175.293 77.6676 171.376 79.7385 168.321 82.5652C166.996 83.7907 163.942 87.3305 162.891 88.7993C162.838 88.8733 161.77 90.935 162.69 90.6092C169.629 86.1725 177.236 79.7048 184.811 76.5322C196.724 71.5425 208.367 79.0327 208.138 92.218C211.537 82.4381 201.228 72.6035 191.849 72.3091H203.111C200.067 71.3096 196.891 70.6915 193.659 70.9014ZM158.266 78.9454C154.589 81.3735 152.003 86.3089 151.026 90.6092C153.004 86.3845 155.25 82.5165 158.266 78.9454ZM180.387 82.163L148.01 113.334C148.902 114.44 150.913 111.437 151.83 111.121C152.784 110.949 151.694 112.824 151.629 112.931C148.874 117.446 139.711 122.491 136.145 126.807C150.675 118.184 161.594 104.975 172.343 92.218C164.326 105.363 159.14 120.469 148.01 131.433C162.716 118.203 170.132 98.7147 180.387 82.163ZM298.231 83.7718L297.628 84.3751L297.829 84.5762L298.432 84.3751L298.231 83.7718ZM172.343 84.5762L140.368 114.138C150.062 108.52 155.934 98.5124 165.505 92.6202L172.343 84.5762ZM241.32 95.8378C237.11 96.6398 232.934 98.5925 229.455 100.262L231.466 96.6422C229.3 97.2242 226.849 98.1147 225.835 100.262L223.422 96.6422C223.871 101.144 221.694 95.9685 218.998 99.8598C219.351 96.1185 218.086 100.596 217.389 100.262L217.791 97.8488L216.182 99.8598C214.818 98.8861 218.041 93.7508 217.389 93.4246C215.325 95.4481 213.015 96.1202 210.351 97.0444C209.07 97.4884 207.653 97.4325 206.53 98.6532C205.202 98.7988 207.492 97.1566 206.127 97.4466C204.146 97.8677 200.1 99.8916 197.681 100.262C196.999 97.6188 195.579 100.675 194.866 100.664C193.802 100.648 193.838 99.4359 193.659 99.4576C193.424 99.4858 191.617 100.664 190.844 100.664C188.991 100.665 188.907 98.9903 186.822 99.8598C186.029 100.19 177.91 111.432 176.164 113.334C168.601 121.568 156.46 127.861 152.032 137.868C146.368 150.666 163.733 137.348 164.5 149.733C164.657 151.425 165.129 153.192 165.304 154.961C162.169 154.781 159.126 153.864 156.054 153.352C154.263 153.054 146.51 150.598 146.401 153.755C146.212 159.204 156.026 154.713 159.07 155.766C160.032 156.098 157.774 156.73 159.07 157.374C161.083 158.376 165.537 159.058 168.12 160.19C169.121 160.629 169.799 161.529 170.935 161.396C170.874 162.007 170.892 162.206 170.332 162.603L168.12 162.402C168.462 163.317 170.37 162.042 168.723 163.81C163.864 165.336 159.369 162.824 154.445 164.614C153.058 164.544 151.191 164.577 150.423 165.418C146.544 159.701 147.012 168.962 146.803 170.044C146.054 173.923 144.275 177.46 143.988 181.506C143.342 190.608 146.192 192.937 148.814 200.41C150.687 205.748 152.69 211.042 154.244 216.498C158.595 211.995 163.701 211.03 169.326 209.057C165.94 207.057 161.112 206.351 159.673 202.22C160.374 201.556 160.455 202.455 160.478 202.421C160.752 203.916 162.521 204.953 163.695 205.638C171.668 210.292 168.338 203.109 172.343 202.019C173.363 201.741 182.579 202.026 183.604 202.421C185.953 203.326 184.557 204.302 184.61 204.432C180.329 207.464 190.722 211.377 193.257 212.074C200.82 214.15 207.101 212.788 213.568 219.313C216.268 222.038 216.007 223.593 217.59 226.151C217.879 226.618 217.928 227.479 218.596 227.357L242.728 212.878L246.347 218.107C246.65 216.905 243.66 212.727 243.733 212.275C244.026 210.468 254.85 205.968 256 204.834C256.885 203.96 256.424 203.554 256.604 203.225C257.206 202.121 257.007 200.246 258.413 199.605C259.226 200.605 257.631 204.711 259.419 204.633L258.816 196.79L261.028 200.209C261.495 198.709 259.908 196.181 260.223 194.98C260.314 194.635 261.597 194.249 261.832 193.371C262.188 192.041 261.613 190.69 261.832 189.752C261.886 189.519 262.926 190.182 263.039 189.349C263.412 186.599 262.765 183.137 263.039 180.3C263.2 180.296 265.315 181.125 265.452 181.305C265.995 182.023 265.553 183.759 266.659 184.121C268.02 175.758 269.142 170.922 267.061 162.603C264.934 154.103 260.743 144.107 252.179 140.482C253.579 136.335 253.751 122.035 252.582 117.758C251.187 112.655 246.525 110.896 243.331 107.301C243.039 106.972 243.9 106.492 243.733 106.295L279.127 87.1905C266.564 89.027 254.751 93.9503 242.325 96.24C242.834 93.9748 241.821 95.7421 241.32 95.8378ZM157.461 91.0114C153.984 94.4985 151.274 98.94 149.417 103.48C152.565 99.6824 155.122 95.3318 157.461 91.0114ZM305.873 93.8268C310.204 99.0558 311.516 105.584 313.515 111.926C313.726 110.292 313.926 108.107 313.716 106.496C313.667 106.119 312.255 100.358 312.107 100.061C311.621 99.0828 307.14 94.6561 305.873 93.8268ZM148.211 95.4356C145.622 100.246 141.833 104.422 139.764 109.513C141.87 107.445 143.049 104.723 144.591 102.273C145.822 100.316 148.363 97.9136 148.211 95.4356ZM142.178 97.0444C140.656 99.6692 138.853 102.505 138.156 105.491C139.748 102.869 141.554 100.11 142.178 97.0444ZM172.343 101.871L166.712 113.132C167.84 112.287 173.575 102.462 172.343 101.871ZM159.673 112.328C155.88 115.665 150.818 120.125 148.613 124.394C152.637 120.579 156.283 116.735 159.673 112.328C160.339 111.742 161.619 111.495 161.483 110.317C160.256 110.301 160.002 111.901 159.673 112.328ZM129.307 130.829C127.773 132.29 125.412 134.176 125.285 136.46L129.307 130.829ZM277.116 194.779C284.686 195.893 287.237 193.092 293.204 190.355C291.052 193.366 285.448 198.653 281.741 199.203C279.388 199.553 273.732 196.799 275.507 200.611C276.789 203.364 279.884 202.278 282.143 201.616C286.415 200.365 291.856 195.663 294.813 192.366C298.168 188.625 299.921 185.519 302.052 180.903L298.231 185.528L297.226 185.327C302.806 181.416 307.335 160.008 305.27 154.961C302.417 147.989 289.655 156.77 286.165 159.788C284.768 160.996 278.952 167.106 278.322 168.435C277.154 170.903 275.231 189.576 275.507 192.567C275.628 193.873 276.607 193.556 276.311 194.98C277.041 195.62 277.075 194.773 277.116 194.779ZM315.928 153.755L319.95 178.289L319.749 166.826L315.928 153.755ZM154.445 160.592C153.974 160.37 153.641 160.034 153.037 160.19C146.504 166.888 163.817 162.365 167.114 162.201C166.223 160.9 159.123 158.937 158.467 159.587C158.401 159.652 158.588 160.677 158.065 161.396C156.895 160.524 155.076 158.257 154.445 160.592ZM150.222 162.201C149.961 162.166 149.258 163.333 149.819 163.407C150.08 163.442 150.783 162.275 150.222 162.201ZM130.514 167.429C128.68 172.217 126.816 177.501 126.894 182.713C127.897 177.569 129.682 172.601 130.514 167.429ZM321.157 173.865L320.352 183.92C321.429 180.988 322.617 176.875 321.157 173.865ZM308.89 197.192C308.754 197.793 308.164 197.705 309.091 198.399C309.418 198.215 309.517 197.861 309.694 197.594C310.301 196.684 311.824 193.222 311.504 191.964C311.011 193.457 309.172 195.939 308.89 197.192ZM179.582 205.236C178.911 205.589 179.798 206.955 179.984 206.845C180.431 206.581 180.301 204.859 179.582 205.236ZM176.767 205.638C176.421 205.877 176.461 206.652 176.767 206.845C177.297 207.179 177.264 205.296 176.767 205.638ZM299.438 206.845L295.416 211.269C296.405 210.15 301.12 208.653 299.438 206.845ZM169.326 223.335C171.424 223.082 177.556 223.447 177.973 223.335C178.057 223.313 179.026 222.032 178.979 221.928C177.72 221.535 175.781 220.74 174.957 219.715C174.052 218.589 172.538 214.127 173.951 212.878C174.597 214.436 175.559 217.88 177.37 219.917C178.596 221.295 177.963 219.291 178.376 219.313C178.738 219.333 179.037 222.509 179.783 220.721L173.147 208.856C172.175 211.79 172.93 212.982 172.946 215.895C169.994 214.122 166.847 228.463 166.31 218.509C163.914 220.159 164.728 218.311 162.69 217.704L158.869 223.134C159.27 224.809 160.093 222.352 160.277 222.531C161.026 223.259 159.678 224.79 160.679 224.944C161.744 215.823 164.298 224.325 164.701 224.542C165.528 224.987 168.64 223.418 169.326 223.335ZM251.174 211.671L251.576 221.324C252.691 218.688 251.644 214.491 251.174 211.671ZM159.271 213.682C156.278 215.36 155.34 216.133 154.646 218.911L163.293 212.275C161.61 211.452 160.242 213.138 159.271 213.682ZM194.061 212.878C193.83 214.267 203.283 218.354 202.307 216.297C201.698 215.015 195.409 214.526 194.061 212.878ZM183.001 220.52C183.012 220.554 182.355 220.555 182.599 221.123C182.853 221.422 183.445 221.387 183.805 221.324C185.461 221.038 183.79 220.413 183.805 220.319C184.345 216.95 186.402 215.989 182.197 213.884C184.379 216.269 182.34 218.428 183.001 220.52ZM242.325 216.9L246.347 224.14C245.588 221.458 244.379 218.825 242.325 216.9ZM188.632 219.715C188.96 220.729 189.22 221.77 190.039 222.531L188.632 219.715C196.825 215.284 202.87 221.248 207.133 227.961C203.513 219.037 199.771 218.103 190.844 218.107C190.668 218.107 189.466 216.619 187.827 218.308C187.442 219.271 188.607 219.638 188.632 219.715ZM236.695 217.704C236.695 221.788 240.071 225.571 241.521 229.368L236.695 217.704ZM157.059 220.922C153.395 222.211 155.546 228.678 157.863 230.977C155.961 227.282 155.613 224.916 157.059 220.922ZM185.213 220.922C184.652 221.495 184.652 223.023 184.811 223.737C185.875 223.661 185.431 221.519 185.213 220.922ZM192.05 222.531C191.385 222.699 191.456 223.631 192.05 223.737C194.03 224.091 194.337 221.953 192.05 222.531ZM296.622 224.944C296.138 225.119 296.436 226.007 297.025 225.748C297.507 225.537 297.233 224.723 296.622 224.944ZM178.979 226.955C174.623 227.12 170.269 227.63 165.907 227.357C164.227 228.973 162.298 230.956 162.087 233.39L160.478 235.2C161.555 237.018 159.625 240.492 160.076 241.635C160.252 242.082 162.423 242.505 162.489 243.244C162.576 244.229 155.256 245.537 154.847 247.668L161.885 244.652L162.891 245.255C161.845 246.163 160.933 247.829 160.076 249.076C159.956 249.25 158.595 250.055 158.065 250.886C155.702 254.589 155.486 259.873 155.651 264.159C156.375 259.244 156.816 254.034 160.478 250.283C160.77 252.118 159.34 252.632 159.472 254.305C160.954 252.234 162.377 249.125 164.902 248.071C164.125 251.982 162.089 254.772 160.679 258.729C163.696 255.688 164.688 250.747 166.511 247.467C168.058 244.681 170.842 242.114 171.739 238.82C172.423 239.575 171.585 241.72 171.337 242.641C170.163 247.006 168.083 251.213 166.712 255.511L169.326 251.288C169.639 248.27 170.962 245.524 171.739 242.641C171.987 241.721 173.008 239.828 172.946 239.021L175.359 239.624C171.971 249.092 165.788 259.575 167.114 269.99C167.198 263.695 169.03 257.514 171.337 251.69C173.026 247.429 176.224 240.325 180.186 238.016C176.676 235.717 176.209 238.52 172.946 238.619C172.789 238.147 166.733 234.771 169.125 233.792C170.563 233.204 182.868 235.087 185.816 234.195L187.023 240.228C184.432 243.714 188.127 243.257 189.637 243.847C192.607 245.009 193.243 245.297 195.67 245.054C199.976 244.623 208.495 242.334 207.535 236.407C207.476 236.042 204.18 230.228 203.915 229.972C202.327 228.434 201.451 229.363 200.296 228.966C195.265 227.237 193.734 227.258 188.632 226.955C184.903 226.734 182.645 226.816 178.979 226.955ZM298.231 226.553C297.877 227.465 300.509 229.404 301.248 229.167C300.396 228.098 299.243 227.439 298.231 226.553ZM230.662 228.966C230.253 230.139 231.604 231.069 232.27 231.781C233.08 231.522 231.054 229.139 230.662 228.966ZM233.477 229.368C233.225 230.684 234.733 232.09 235.488 232.988C235.528 231.761 234.272 230.21 233.477 229.368ZM159.07 232.184C158.869 232.902 158.383 235.254 159.472 235.401C159.784 234.431 160.002 232.883 159.07 232.184ZM206.127 232.184C205.567 232.256 206.268 233.424 206.53 233.39C207.09 233.318 206.389 232.15 206.127 232.184ZM206.932 233.792L207.133 234.396L207.334 234.597L207.535 233.994L206.932 233.792ZM181.191 239.825C180.99 240.544 180.504 242.896 181.593 243.043C181.785 242.35 182.292 240.006 181.191 239.825ZM215.78 240.63L221.813 251.489C220.695 247.462 218.364 243.849 215.78 240.63ZM179.984 243.445C180.31 247.409 181.485 251.337 183.604 254.707L179.984 243.445ZM177.169 245.054L175.56 251.891L177.37 248.875C176.664 255.786 174.38 262.625 175.962 269.588C176.435 269.588 176.074 261.081 176.164 260.137C176.3 258.7 179.396 245.035 177.169 245.054ZM186.017 247.467C190.666 258.7 192.42 271.358 187.626 282.861C194.666 273.465 191.892 256.879 186.017 247.467ZM205.323 249.076L208.943 256.718C209.61 256.538 206.615 249.482 205.323 249.076ZM178.778 257.522L179.18 267.979C179.194 264.556 180.525 260.641 178.778 257.522ZM171.94 259.935C171.456 260.474 169.385 265.817 170.332 265.968C170.392 265.384 172.64 260.092 171.94 259.935ZM207.736 260.338C206.538 265.357 205.371 270.472 204.921 275.621C205.653 274.53 208.619 260.461 207.736 260.338ZM155.45 273.61C154.966 273.786 155.264 274.673 155.852 274.415C156.335 274.203 156.061 273.389 155.45 273.61ZM182.398 282.459L178.175 285.073C178.679 285.448 183.74 283.32 182.398 282.459ZM343.68 340.778C339.33 343.298 335.062 346.059 330.407 348.017C326.009 349.869 314.757 352.145 311.906 354.05C308.871 356.079 308.263 362.089 307.08 365.312C306.93 363.24 303.627 364.434 303.259 363.502C303.011 362.876 304.212 360.213 301.851 360.083C301.343 360.056 292.949 362.937 292.198 363.301C284.76 366.907 259.432 399.238 256.201 407.342C255.079 410.157 254.432 413.693 253.386 416.592L280.132 416.794L297.829 381.4C298.129 381.529 298.555 385.863 300.443 385.623L285.562 416.592L309.493 416.794C315.05 403.321 321.745 389.767 323.369 375.166C320 376.136 312.581 388.606 310.297 389.042C310.2 389.06 308.875 387.733 308.89 387.634C309.347 384.548 326.338 366.644 329.402 362.698C333.4 357.546 340.42 348.075 343.479 342.588C343.689 342.21 344.869 340.766 343.68 340.778Z" fill="#010101"/>
<path d="M203.111 51.1936V51.5958C192.252 52.5695 181.158 56.3212 171.941 62.053C171.4 61.1476 173.175 60.4096 173.75 60.042C174.674 59.452 176.299 59.9732 174.354 58.8354C175.443 57.8596 176.776 57.7864 178.175 57.2266C185.625 54.2443 195.439 47.6056 203.111 51.1936ZM196.877 50.7914C196.572 50.8256 191.812 51.9409 191.849 52.1991L200.899 51.1936C200.066 50.5481 197.886 50.6788 196.877 50.7914ZM190.442 52.4002C190.21 52.434 187.856 53.2641 187.827 53.8079L191.246 52.8024C191.705 52.2992 190.784 52.3503 190.442 52.4002Z" fill="#B6B5B5"/>
<path d="M226.64 50.3892C237.585 50.2669 246.15 56.3072 252.179 65.0695C246.779 59.8164 242.268 54.1429 234.684 51.998C232.31 51.3267 228.736 51.8677 226.64 50.3892Z" fill="#363535"/>
<path d="M196.877 50.7914C197.886 50.6788 200.066 50.5481 200.899 51.1936L191.849 52.1991C191.812 51.9409 196.572 50.8256 196.877 50.7914Z" fill="#4A4A47"/>
<path d="M190.442 52.4002C190.784 52.3503 191.706 52.2992 191.246 52.8024L187.828 53.8079C187.856 53.2641 190.21 52.434 190.442 52.4002Z" fill="#54534F"/>
<path d="M220.004 70.4992C221.101 71.2951 222.859 73.5016 222.819 71.5047C222.733 67.1324 215.523 59.6639 211.759 57.6288C199.41 50.9535 192.318 58.0431 179.784 59.0365C192.357 56.1069 203.649 49.8092 215.378 58.8354C221.49 63.5387 227.031 75.5862 222.819 82.7663C223.064 81.0091 224.104 74.3712 223.221 73.1135C222.91 72.6703 221.928 73.056 221.814 72.9124C221.43 72.4302 220.123 70.5913 220.004 70.4992Z" fill="#494849"/>
<path d="M273.697 54.4112C277.34 56.1849 281.04 58.1693 283.953 61.0475C280.438 59.384 276.758 56.8039 273.697 54.4112Z" fill="#9A9A97"/>
<path d="M255.598 55.6178L261.631 58.031L267.463 62.6563L255.598 55.6178Z" fill="#2C2B2E"/>
<path d="M249.967 56.4222L255.598 59.2376L259.017 63.0585L249.967 56.4222Z" fill="#383737"/>
<path d="M181.191 62.4552C181.527 62.4918 182.562 62.3108 182.599 62.6563C182.626 62.9077 180.784 63.1373 181.191 62.4552Z" fill="#8E8E8D"/>
<path d="M286.97 63.2596C289.656 66.0525 293.226 69.6369 293.405 73.7168L286.97 63.2596Z" fill="#333331"/>
<path d="M184.006 64.064C195.941 67.5346 213.854 68.6249 217.992 82.7663C211.662 69.6188 195.978 68.9797 184.006 64.064Z" fill="#9A9A98"/>
<path d="M201.905 65.2706C201.247 65.0972 200.449 65.6157 199.894 64.6673C200.77 63.9325 201.412 65.0466 201.905 65.2706Z" fill="#3A3B3C"/>
<path d="M201.904 65.2706C208.545 67.0222 216.275 71.5075 220.003 77.5377C214.499 71.8196 209.096 68.5417 201.904 65.2706Z" fill="#3A3B3C"/>
<path d="M220.003 70.4992C217.482 68.5598 212.9 67.4972 209.948 66.2761C214.07 65.8658 217.016 68.3329 220.003 70.4992Z" fill="#494849"/>
<path d="M193.659 70.9014C196.891 70.6915 200.068 71.3096 203.111 72.3091H191.849C201.228 72.6035 211.538 82.4381 208.139 92.218C208.367 79.0327 196.724 71.5425 184.811 76.5322C177.236 79.7048 169.63 86.1725 162.69 90.6092C161.77 90.935 162.838 88.8733 162.891 88.7993C163.942 87.3305 166.996 83.7907 168.321 82.5652C171.376 79.7385 175.293 77.6676 178.577 75.1245C171.101 77.2811 163.078 78.801 157.26 84.3751C158.989 81.2387 161.03 78.9193 164.299 77.3366C168.393 75.3546 176.54 73.0918 180.789 72.5102C177.399 73.7763 173.193 74.6873 169.93 76.13C169.423 76.354 168.161 77.0249 169.93 76.9344C173.436 75.9756 177.322 74.1045 180.789 73.3146C183.722 72.6461 190.986 71.0751 193.659 70.9014Z" fill="#CECECC"/>
<path d="M158.266 78.9454C155.25 82.5165 153.004 86.3845 151.026 90.6092C152.003 86.3089 154.59 81.3735 158.266 78.9454Z" fill="#535251"/>
<path d="M180.387 82.163C170.132 98.7147 162.715 118.203 148.009 131.433C159.14 120.469 164.326 105.363 172.343 92.218C161.594 104.975 150.675 118.184 136.145 126.807C139.711 122.491 148.874 117.446 151.629 112.931C151.694 112.824 152.784 110.949 151.83 111.121C150.913 111.437 148.902 114.44 148.009 113.334L180.387 82.163Z" fill="#CDCBC9"/>
<path d="M298.231 83.7718L298.432 84.3751L297.829 84.5762L297.628 84.3751L298.231 83.7718Z" fill="#9A9491"/>
<path d="M172.343 84.5762L165.505 92.6202C155.934 98.5124 150.062 108.52 140.368 114.138L172.343 84.5762Z" fill="#B9B8B8"/>
<path d="M243.733 106.295C239.815 101.659 236.609 102.578 241.32 95.8378C241.822 95.7421 242.834 93.9748 242.326 96.24C254.751 93.9503 266.565 89.027 279.127 87.1905L243.733 106.295Z" fill="#90908E"/>
<path d="M157.461 91.0114C155.122 95.3318 152.566 99.6824 149.417 103.48C151.274 98.94 153.984 94.4985 157.461 91.0114Z" fill="#72706F"/>
<path d="M241.32 95.8378C236.609 102.578 239.815 101.659 243.733 106.295C243.9 106.492 243.039 106.972 243.331 107.301C246.525 110.896 251.187 112.655 252.582 117.758C253.751 122.035 253.579 136.335 252.18 140.482C251.278 143.154 247.615 147.119 246.147 149.733C245.692 149.571 245 149.483 244.538 149.33C240.746 146.254 235.104 145.288 231.064 143.297C230.125 142.834 228.488 140.453 227.042 139.678C220.8 136.327 211.062 137.824 204.318 138.873L210.351 97.0444C213.015 96.1202 215.326 95.4481 217.389 93.4246C218.041 93.7508 214.819 98.8861 216.183 99.8598L217.792 97.8488L217.389 100.262C218.086 100.596 219.351 96.1185 218.998 99.8598C221.694 95.9685 223.871 101.144 223.422 96.6422L225.836 100.262C226.85 98.1147 229.3 97.2242 231.466 96.6422L229.455 100.262C232.935 98.5925 237.11 96.6398 241.32 95.8378Z" fill="#A5A4A3"/>
<path d="M305.873 93.8268C307.14 94.6561 311.621 99.0827 312.107 100.061C312.255 100.358 313.667 106.119 313.716 106.496C313.926 108.107 313.726 110.292 313.515 111.926C311.516 105.584 310.204 99.0558 305.873 93.8268Z" fill="#B9B9B6"/>
<path d="M148.211 95.4356C148.364 97.9135 145.823 100.316 144.591 102.273C143.049 104.723 141.871 107.444 139.765 109.513C141.833 104.422 145.622 100.246 148.211 95.4356Z" fill="#5E5B58"/>
<path d="M142.178 97.0444C141.554 100.11 139.748 102.869 138.156 105.491C138.854 102.505 140.656 99.6691 142.178 97.0444Z" fill="#8F8F8D"/>
<path d="M210.351 97.0444L204.318 138.873C201.011 139.388 189.138 141.958 186.822 143.7C184.313 145.586 182.519 154.576 179.784 157.374C179.36 168.589 169.743 184.062 168.12 193.774C167.706 196.251 169.606 199.192 167.718 201.214C165.279 203.826 161.062 201.094 160.679 201.214C160.293 201.335 161.074 201.524 160.478 202.421C160.455 202.455 160.374 201.556 159.674 202.22C161.112 206.351 165.94 207.057 169.326 209.057C163.701 211.03 158.595 211.995 154.244 216.498C152.69 211.042 150.687 205.748 148.814 200.41C150.069 199.422 152.792 202.883 153.037 202.823C153.049 200.888 158.125 194.616 158.065 193.774C157.974 192.499 146.528 181.945 143.988 181.506C144.275 177.459 146.055 173.923 146.803 170.044C147.012 168.962 146.544 159.701 150.423 165.418C151.36 166.799 150.641 170.254 153.439 171.451C155.149 172.182 167.326 169.804 168.321 169.038C169.387 168.217 169.583 166.064 169.729 164.815L151.831 167.027L151.428 165.821L158.266 165.418C157.477 165.093 155.184 164.651 154.445 164.614C159.37 162.824 163.865 165.336 168.723 163.81C170.371 162.042 168.462 163.317 168.12 162.402L170.332 162.603C170.892 162.206 170.874 162.007 170.935 161.396C170.971 161.037 169.564 154.63 169.326 154.358C168.896 153.864 167.753 154.366 167.315 154.157L166.511 152.95C171.131 152.989 173.909 156.739 179.18 155.363C181.404 154.783 183.072 148.857 183.806 146.716C183.468 145.923 167.522 144.209 166.712 144.504C166.186 144.696 165.498 146.732 165.304 147.319C164.629 147.487 164.51 147.892 164.5 148.526C164.494 148.92 164.464 149.343 164.5 149.733C163.733 137.348 146.368 150.666 152.032 137.868C156.46 127.861 168.601 121.568 176.164 113.333C177.911 111.431 186.029 100.19 186.822 99.8598C188.908 98.9902 188.991 100.665 190.844 100.664C191.617 100.664 193.425 99.4857 193.66 99.4576C193.838 99.4359 193.802 100.648 194.866 100.664C195.579 100.675 197 97.6187 197.682 100.262C200.1 99.8916 204.146 97.8677 206.128 97.4466C207.492 97.1566 205.202 98.7988 206.53 98.6532C207.654 97.4325 209.071 97.4884 210.351 97.0444ZM163.897 187.942C161.544 189.344 154.829 200.282 161.886 196.388C164.534 194.927 165.443 190.63 163.897 187.942Z" fill="#FDFDFE"/>
<path d="M172.343 101.871C173.575 102.462 167.84 112.287 166.712 113.132L172.343 101.871Z" fill="#B9B5B1"/>
<path d="M159.673 112.328C160.002 111.901 160.256 110.301 161.483 110.317C161.619 111.495 160.339 111.742 159.673 112.328Z" fill="#C3BEBF"/>
<path d="M159.673 112.328C156.283 116.735 152.637 120.579 148.613 124.394C150.818 120.125 155.88 115.665 159.673 112.328Z" fill="#C3BEBF"/>
<path d="M115.431 168.636C115.159 168.572 114.856 168.379 114.627 168.234C121.355 155.001 120.577 139.876 133.329 130.025L135.139 132.639C127.253 143.889 119.705 155.503 115.431 168.636Z" fill="#CAC9C7"/>
<path d="M129.307 130.829L125.285 136.46C125.412 134.176 127.773 132.29 129.307 130.829Z" fill="#C5BFC0"/>
<path d="M244.538 149.33C239.724 147.742 233.511 146.478 228.45 145.711C226.939 145.481 225.077 145.026 223.624 144.906C216.373 144.307 212.961 144.046 206.329 147.319C203.645 148.645 200.35 150.154 199.29 153.352C202.235 151.822 205.983 150.182 209.345 150.135C211.965 150.098 215.545 151.75 217.993 151.744L225.635 155.967L222.417 157.777C221.917 157.573 221.713 157.16 221.21 156.972C219.992 156.518 213.62 154.74 212.965 154.961C211.689 155.392 213.172 159.057 210.753 159.385C211.985 156.813 212.323 153.927 208.742 154.76L209.345 157.374L206.128 155.363L204.318 158.179C204.036 157.573 203.842 157.294 203.111 157.374C202.22 157.473 202.408 158.432 202.307 158.581C201.977 159.065 202.096 158.926 201.905 159.385C201.655 159.984 202.329 160.341 202.307 160.391C201.194 162.949 199.898 160.557 199.491 160.592C197.797 160.737 193.503 164.689 193.056 166.625C193.069 166.553 192.473 166.455 192.654 165.217L194.263 162.804L193.458 162.402C191.271 166.877 191.928 164.341 191.85 160.994C193.213 161.916 193.21 161.466 193.861 159.989C195.149 157.065 194.811 152.801 196.676 149.934C196.348 149.527 194.824 149.771 194.263 149.733C188.355 149.324 186.936 151.379 183.001 154.961C182.096 155.785 180.959 157.071 179.784 157.374C182.519 154.576 184.313 145.586 186.822 143.7C189.138 141.958 201.011 139.388 204.318 138.873C211.062 137.824 220.8 136.327 227.042 139.678C228.488 140.453 230.125 142.834 231.064 143.297C235.104 145.288 240.746 146.254 244.538 149.33ZM188.029 145.711L188.23 146.314L188.431 146.515L188.632 145.912L188.029 145.711Z" fill="#020202"/>
<path d="M267.061 162.603C267.111 164.015 266.457 162.993 266.055 162.603C260.178 156.902 253.962 152.501 246.146 149.733C247.615 147.119 251.278 143.154 252.179 140.482C260.743 144.107 264.934 154.103 267.061 162.603Z" fill="#858584"/>
<path d="M166.511 152.95L166.109 153.554C166.651 154.277 166.973 153.994 167.315 154.157C167.753 154.366 168.896 153.864 169.326 154.358C169.564 154.63 170.971 161.037 170.935 161.396C169.799 161.529 169.122 160.629 168.12 160.19C170.882 159.022 166.875 157.03 165.707 156.57C165.727 155.92 165.376 155.679 165.304 154.961C165.129 153.192 164.657 151.425 164.5 149.733C164.464 149.343 164.494 148.92 164.5 148.526C165.732 148.706 165.128 147.855 165.304 147.319C165.498 146.732 166.186 144.696 166.712 144.504C167.522 144.209 183.468 145.923 183.806 146.716C183.072 148.857 181.404 154.783 179.18 155.363C173.909 156.739 171.132 152.989 166.511 152.95ZM165.908 149.733C165.635 150.342 165.324 152.211 166.31 152.146C165.886 151.347 166.758 150.384 165.908 149.733Z" fill="#BABAB9"/>
<path d="M223.623 144.906C220.695 148.107 215.221 144.568 211.557 147.319C209.71 147.218 207.9 148.129 206.329 147.319C212.96 144.046 216.372 144.307 223.623 144.906Z" fill="#A2A2A0"/>
<path d="M228.45 145.711C228.556 147.029 227.151 146.934 226.036 147.319C220.322 149.292 216.176 147.572 211.557 147.319C215.221 144.568 220.695 148.107 223.623 144.906C225.077 145.026 226.938 145.481 228.45 145.711Z" fill="#444341"/>
<path d="M188.028 145.711L188.632 145.912L188.431 146.515L188.229 146.314L188.028 145.711Z" fill="#1C1A1A"/>
<path d="M244.538 149.33C245 149.483 245.692 149.571 246.147 149.733C253.962 152.501 260.178 156.902 266.056 162.603C266.457 162.993 267.111 164.015 267.061 162.603C269.142 170.922 268.02 175.758 266.659 184.121C265.554 183.759 265.995 182.023 265.452 181.305C265.316 181.125 263.2 180.296 263.039 180.3C261.292 180.34 259.456 182.98 258.414 183.115C255.666 183.473 243.044 172.771 240.114 170.647C237.852 169.008 235.774 166.728 233.276 165.418L241.32 157.173C238.009 158.057 234.727 159.128 231.265 159.385C226.3 159.755 226.299 159.357 222.417 157.777L225.634 155.967L217.993 151.744C218.92 151.741 222.42 150.944 223.422 150.537C223.628 150.454 227.569 147.868 226.037 147.319C227.152 146.935 228.556 147.029 228.45 145.711C233.511 146.478 239.724 147.742 244.538 149.33Z" fill="#1E1D1E"/>
<path d="M164.5 148.526C164.51 147.892 164.629 147.487 165.304 147.319C165.128 147.855 165.732 148.706 164.5 148.526Z" fill="#12130E"/>
<path d="M211.557 147.319C216.176 147.572 220.322 149.292 226.036 147.319C227.568 147.868 223.627 150.454 223.422 150.537C222.42 150.944 218.919 151.741 217.992 151.744C215.544 151.75 211.965 150.098 209.345 150.135C205.982 150.182 202.235 151.822 199.29 153.352C200.35 150.154 203.644 148.645 206.329 147.319C207.9 148.129 209.71 147.218 211.557 147.319Z" fill="#2B2929"/>
<path d="M165.908 149.733C166.758 150.384 165.886 151.347 166.31 152.146C165.324 152.211 165.635 150.342 165.908 149.733Z" fill="#020203"/>
<path d="M194.263 149.733C191.156 151.992 191.765 157.373 191.849 160.994C191.928 164.341 191.271 166.877 193.458 162.402L194.263 162.804L192.654 165.217C192.473 166.455 193.068 166.553 193.056 166.625C192.949 167.237 193.183 168.059 193.056 168.636C192.951 169.115 192.388 169.74 192.252 170.245C190.142 171.707 187.952 171.138 186.017 169.44C184.475 168.087 185.564 167.489 185.414 167.228C185.316 167.059 183.907 167.298 183.805 164.212C185.539 163.635 186.124 158.708 185.816 157.576C185.721 157.224 185.032 157.421 185.012 157.374C184.575 156.378 184.023 155.464 183.001 154.961C186.936 151.379 188.355 149.324 194.263 149.733Z" fill="#646363"/>
<path d="M191.85 160.994C191.765 157.373 191.156 151.992 194.263 149.733C194.824 149.771 196.348 149.527 196.676 149.934C194.811 152.801 195.149 157.065 193.861 159.989C193.21 161.466 193.213 161.916 191.85 160.994Z" fill="#292727"/>
<path d="M156.054 153.352L155.651 153.755C152.617 153.138 149.262 152.232 146.401 153.755C146.51 150.598 154.263 153.054 156.054 153.352Z" fill="#8A8989"/>
<path d="M166.511 152.95L167.315 154.157C166.973 153.994 166.651 154.277 166.109 153.554L166.511 152.95Z" fill="#18171A"/>
<path d="M305.27 154.961C304.364 155.645 304.386 155.226 303.661 154.961C299.273 153.36 297.84 154.579 294.411 156.57C291.019 158.539 289.088 160.456 287.171 163.81C281.171 165.936 281.144 173.475 279.127 178.49C283.811 178.722 281.665 174.201 283.953 172.658C283.594 174.545 283.139 176.112 283.149 178.088C283.151 178.393 284.525 179.85 284.356 180.903C284.253 181.541 278.471 188.16 277.518 191.561C277.203 192.686 276.925 193.576 277.116 194.779C277.075 194.773 277.041 195.62 276.312 194.98C276.607 193.556 275.628 193.873 275.507 192.567C275.231 189.576 277.154 170.903 278.323 168.435C278.952 167.106 284.768 160.996 286.166 159.788C289.655 156.77 302.417 147.989 305.27 154.961Z" fill="#71706E"/>
<path d="M155.651 153.755C157.5 154.13 164.093 155.935 165.706 156.57C166.874 157.03 170.881 159.022 168.119 160.19C165.537 159.058 161.083 158.376 159.07 157.374C157.774 156.73 160.032 156.098 159.07 155.766C156.026 154.713 146.212 159.204 146.401 153.755C149.261 152.232 152.617 153.138 155.651 153.755Z" fill="#222121"/>
<path d="M165.304 154.961C165.375 155.679 165.726 155.92 165.706 156.57C164.093 155.935 157.5 154.13 155.651 153.755L156.054 153.352C159.126 153.864 162.169 154.781 165.304 154.961Z" fill="#3E3D3C"/>
<path d="M315.928 153.755L319.749 166.826L319.95 178.289L315.928 153.755Z" fill="#9A9997"/>
<path d="M303.661 154.961L304.265 162.201C302.815 159.404 304.009 156.822 300.444 155.766C298.577 155.213 297.531 154.492 296.019 156.972C295.493 156.661 295.065 156.444 294.411 156.57C297.84 154.579 299.273 153.36 303.661 154.961Z" fill="#131111"/>
<path d="M210.753 159.385C208.37 159.709 205.439 158.335 204.117 160.994C201.792 159.809 205.586 160.904 204.318 158.179L206.128 155.363L209.345 157.374L208.742 154.76C212.323 153.927 211.985 156.813 210.753 159.385Z" fill="#3099B5"/>
<path d="M185.012 157.374C184.75 159.637 183.729 161.895 183.805 164.212C183.907 167.298 185.316 167.059 185.414 167.228C185.564 167.489 184.475 168.087 186.017 169.44C187.952 171.138 190.142 171.707 192.251 170.245C190.506 176.686 186.774 182.941 185.816 189.148C185.588 190.629 185.156 192.015 185.414 193.572C185.04 193.21 182.33 191.431 181.995 191.561C180.866 192.209 181.68 193.743 181.392 194.377C180.21 196.975 177.439 196.088 175.158 197.192C173.768 197.865 172.607 198.769 171.337 199.605C169.973 200.503 168.757 203.006 167.717 201.214C169.606 199.192 167.705 196.251 168.119 193.774C169.743 184.062 179.36 168.589 179.783 157.374C180.959 157.071 182.096 155.785 183.001 154.961C184.023 155.464 184.575 156.378 185.012 157.374Z" fill="#8B8B8A"/>
<path d="M221.21 156.972C220.883 159.291 219.306 159.127 217.992 160.19L199.491 162.603V160.592C199.897 160.557 201.194 162.949 202.307 160.391C202.328 160.341 201.655 159.984 201.904 159.385C203.345 159.512 202.153 158.743 202.307 158.581C202.48 158.398 204.275 159.091 203.111 157.374C203.842 157.294 204.036 157.573 204.318 158.179C205.586 160.904 201.792 159.809 204.117 160.994C205.439 158.335 208.37 159.709 210.753 159.385C213.172 159.057 211.688 155.392 212.965 154.961C213.62 154.74 219.991 156.518 221.21 156.972Z" fill="#EDF1F2"/>
<path d="M300.444 155.766C301.645 156.574 300.735 156.43 300.846 157.777C301.131 161.245 301.223 163.109 300.846 166.625L299.639 165.821C299.953 163.046 298.534 158.46 296.02 156.972C297.531 154.492 298.578 155.213 300.444 155.766Z" fill="#4E4D4C"/>
<path d="M305.27 154.961C307.335 160.008 302.807 181.416 297.226 185.327L298.231 185.528L302.052 180.903C299.921 185.519 298.168 188.625 294.813 192.366L296.019 189.752C295.141 188.396 293.967 190.005 293.204 190.355C287.237 193.092 284.686 195.893 277.116 194.779C276.925 193.576 277.203 192.686 277.518 191.561C281.598 192.791 280.387 185.145 285.16 186.333C284.391 186.894 281.787 188.908 283.551 188.746C282.663 189.419 282.076 191.617 280.132 191.964L280.535 192.768C288.131 189.355 295.361 186.646 299.639 178.892C302.885 173.01 304.456 163.442 300.846 157.777C300.735 156.43 301.645 156.574 300.444 155.766C304.009 156.822 302.815 159.403 304.264 162.201L303.661 154.961C304.386 155.226 304.364 155.645 305.27 154.961Z" fill="#656463"/>
<path d="M296.019 156.972C298.533 158.46 299.952 163.046 299.639 165.821C299.27 169.085 298.036 167.542 296.824 169.642C296.594 170.039 296.348 172.523 296.019 173.462C295.711 174.342 295.813 175.623 295.215 177.082C292.979 182.531 289.207 183.377 285.16 186.333C280.387 185.145 281.598 192.791 277.518 191.561C278.47 188.16 284.253 181.541 284.355 180.903C284.524 179.85 283.15 178.393 283.149 178.088C283.139 176.112 283.594 174.545 283.953 172.658C284.528 169.639 285.651 166.469 287.171 163.81C289.088 160.456 291.019 158.539 294.41 156.57C295.064 156.444 295.492 156.661 296.019 156.972ZM291.394 164.614C285.619 168.258 292.9 173.524 293.204 169.239C293.222 168.992 291.996 164.663 291.394 164.614ZM288.78 181.909C288.776 181.97 287.865 182.357 288.579 183.115C290.026 181.752 291.259 180.628 291.997 178.691C292.192 178.179 293.215 175.804 292.198 175.473C291.022 178.346 288.925 179.069 288.78 181.909Z" fill="#010101"/>
<path d="M222.417 157.777C226.299 159.357 226.3 159.755 231.265 159.385C231.036 161.192 227.773 160.276 227.042 160.592L219.199 167.429C214.003 168.756 207.92 168.274 202.508 167.832L203.312 169.038C199.699 168.759 196.666 168.002 193.056 168.636C193.183 168.059 192.949 167.237 193.056 166.625C193.503 164.689 197.797 160.737 199.491 160.592V162.603L217.993 160.19C219.306 159.127 220.884 159.291 221.21 156.972C221.713 157.16 221.917 157.573 222.417 157.777Z" fill="#989898"/>
<path d="M233.276 165.418C226.103 161.655 225.718 165.764 219.199 167.429L227.042 160.592C227.773 160.276 231.036 161.192 231.265 159.385C234.727 159.128 238.009 158.057 241.32 157.173L233.276 165.418Z" fill="#B5B6B5"/>
<path d="M183.805 164.212C183.729 161.895 184.75 159.637 185.012 157.374C185.032 157.421 185.721 157.224 185.816 157.576C186.124 158.708 185.539 163.635 183.805 164.212Z" fill="#242322"/>
<path d="M202.307 158.581C202.408 158.432 202.219 157.473 203.111 157.374C204.275 159.091 202.48 158.398 202.307 158.581Z" fill="#2D636F"/>
<path d="M283.551 188.746C287.004 186.13 291.809 185.867 294.41 181.909L294.813 182.914C297.562 179.921 298.601 177.328 299.639 173.462C300.164 171.507 300.628 168.655 300.846 166.625C301.223 163.109 301.131 161.245 300.846 157.777C304.456 163.442 302.885 173.01 299.639 178.892C295.36 186.646 288.131 189.355 280.535 192.768L280.132 191.964C282.075 191.617 282.663 189.419 283.551 188.746Z" fill="#070707"/>
<path d="M201.904 159.385C202.096 158.926 201.977 159.065 202.306 158.581C202.152 158.743 203.345 159.512 201.904 159.385Z" fill="#334F58"/>
<path d="M158.065 161.396C157.988 161.502 158.107 162.35 157.461 162.603C156.182 163.231 155.046 160.875 154.445 160.592C155.076 158.257 156.895 160.524 158.065 161.396Z" fill="#0A8AB0"/>
<path d="M154.445 160.592C155.046 160.875 156.182 163.231 157.461 162.603C158.107 162.35 157.988 161.502 158.065 161.396C158.588 160.676 158.401 159.652 158.467 159.587C159.123 158.937 166.223 160.9 167.114 162.201C163.817 162.365 146.504 166.888 153.037 160.19C153.641 160.034 153.974 160.37 154.445 160.592Z" fill="#F9FAFB"/>
<path d="M150.222 162.201C150.783 162.275 150.08 163.442 149.82 163.407C149.258 163.333 149.961 162.166 150.222 162.201Z" fill="#8F8D8A"/>
<path d="M233.276 165.418C235.773 166.728 237.851 169.008 240.113 170.647L204.72 204.432C200.65 202.36 196.073 198.103 192.252 194.779C190.131 192.935 188.31 190.581 185.816 189.148C186.774 182.941 190.506 176.686 192.252 170.245C192.388 169.74 192.951 169.115 193.056 168.636C196.666 168.002 199.699 168.759 203.312 169.038L202.508 167.832C207.92 168.274 214.003 168.756 219.199 167.429C225.718 165.764 226.103 161.655 233.276 165.418ZM224.629 183.517L224.428 184.121L224.629 184.322L225.232 183.719L224.629 183.517Z" fill="#FDFDFE"/>
<path d="M287.171 163.81C285.651 166.469 284.528 169.639 283.953 172.658C281.665 174.201 283.811 178.722 279.127 178.49C281.144 173.475 281.171 165.936 287.171 163.81Z" fill="#5B5A59"/>
<path d="M154.445 164.614C155.184 164.651 157.477 165.093 158.266 165.418L151.428 165.821L151.831 167.027L169.728 164.815C169.583 166.064 169.387 168.217 168.321 169.038C167.326 169.804 155.149 172.182 153.439 171.451C150.64 170.254 151.36 166.799 150.423 165.418C151.191 164.577 153.058 164.544 154.445 164.614Z" fill="#D0D1D1"/>
<path d="M291.394 164.614C291.997 164.663 293.222 168.992 293.204 169.239C292.9 173.524 285.619 168.258 291.394 164.614Z" fill="#999996"/>
<path d="M300.846 166.625C300.628 168.655 300.164 171.507 299.639 173.462C298.66 173.647 297.659 170.59 297.427 170.647C297.021 170.746 298.25 173.671 296.02 173.462C296.349 172.523 296.594 170.039 296.824 169.642C298.037 167.542 299.271 169.085 299.639 165.821L300.846 166.625Z" fill="#6E6C6B"/>
<path d="M130.514 167.429C129.682 172.6 127.897 177.568 126.894 182.713C126.816 177.501 128.68 172.217 130.514 167.429Z" fill="#343332"/>
<path d="M263.039 180.3C262.765 183.137 263.412 186.599 263.039 189.349C262.926 190.182 261.886 189.519 261.832 189.752C261.613 190.69 262.188 192.041 261.832 193.371C261.597 194.249 260.314 194.635 260.223 194.98C259.908 196.181 261.495 198.709 261.028 200.209L258.816 196.79L259.419 204.633C257.631 204.711 259.226 200.605 258.413 199.605C257.007 200.246 257.206 202.121 256.604 203.225L234.684 205.236C238.51 201.644 242.008 197.653 245.744 193.975C247.651 192.098 250.01 190.6 251.777 188.545C249.135 189.103 247.522 192.055 245.744 193.572C240.334 198.19 234.45 202.443 228.852 206.845C226.643 208.582 224.499 209.593 222.014 211.671C216.571 208.54 210.302 207.273 204.72 204.432L240.113 170.647C243.044 172.771 255.666 183.473 258.413 183.115C259.456 182.98 261.292 180.34 263.039 180.3ZM243.13 175.473C238.437 180.089 234.753 192.024 229.053 194.779C227.126 195.71 223.893 195.585 222.215 197.192C225.111 197.224 227.664 194.723 228.651 197.997C235.349 191.073 245.112 190.967 252.582 185.73L234.483 191.763L243.13 175.473ZM226.64 197.192C226.567 197.199 225.488 198.106 225.835 198.399C227.656 198.859 228.075 197.068 226.64 197.192Z" fill="#90908F"/>
<path d="M299.639 173.462C298.602 177.328 297.562 179.921 294.813 182.914L294.411 181.909C294.86 181.225 297.084 177.174 295.215 177.082C295.814 175.623 295.711 174.342 296.019 173.462C298.25 173.671 297.021 170.746 297.427 170.647C297.659 170.59 298.66 173.647 299.639 173.462Z" fill="#464443"/>
<path d="M243.13 175.473L234.483 191.763L252.582 185.73C245.112 190.967 235.35 191.073 228.651 197.997C227.664 194.723 225.112 197.224 222.216 197.192C223.893 195.585 227.126 195.71 229.053 194.779C234.753 192.024 238.437 180.089 243.13 175.473Z" fill="#0C0C0B"/>
<path d="M291.997 178.691L288.78 181.909C288.925 179.069 291.022 178.346 292.198 175.473C293.215 175.804 292.192 178.179 291.997 178.691Z" fill="#1E1D1C"/>
<path d="M294.41 181.909C291.808 185.867 287.004 186.13 283.551 188.746C281.787 188.908 284.391 186.894 285.16 186.333C289.207 183.377 292.979 182.531 295.215 177.082C297.084 177.174 294.86 181.225 294.41 181.909Z" fill="#A3A2A1"/>
<path d="M291.997 178.691C291.259 180.628 290.027 181.752 288.579 183.115C287.866 182.357 288.777 181.97 288.78 181.909L291.997 178.691Z" fill="#8E8A89"/>
<path d="M148.814 200.41C146.193 192.937 143.342 190.608 143.988 181.506C146.528 181.945 157.974 192.499 158.065 193.774C158.125 194.616 153.049 200.888 153.037 202.823C152.792 202.883 150.069 199.422 148.814 200.41Z" fill="#ACACAB"/>
<path d="M224.629 183.517L225.232 183.719L224.629 184.322L224.428 184.121L224.629 183.517Z" fill="#CECBC6"/>
<path d="M163.897 187.942C165.443 190.63 164.534 194.927 161.886 196.388C154.829 200.282 161.544 189.344 163.897 187.942Z" fill="#C0BFBE"/>
<path d="M245.744 193.975V193.572C247.522 192.055 249.135 189.103 251.777 188.545C250.01 190.6 247.651 192.098 245.744 193.975Z" fill="#5B5C59"/>
<path d="M192.251 194.779L191.045 199.002C190.726 199.173 189.36 198.205 189.034 197.997C188.414 197.6 188.667 196.909 187.425 197.192C186.978 195.823 186.462 194.585 185.414 193.572C185.156 192.015 185.588 190.629 185.816 189.148C188.31 190.581 190.131 192.935 192.251 194.779Z" fill="#A0A09F"/>
<path d="M294.813 192.366C291.856 195.663 286.416 200.365 282.144 201.616C279.884 202.278 276.789 203.364 275.507 200.611C273.732 196.798 279.388 199.553 281.741 199.203C285.448 198.653 291.053 193.366 293.204 190.355C293.967 190.005 295.141 188.396 296.019 189.752L294.813 192.366Z" fill="#525150"/>
<path d="M185.414 193.572C186.462 194.585 186.978 195.823 187.425 197.192C187.774 198.258 188.843 199.582 187.627 200.41C186.167 198.017 183.492 197.107 181.392 194.377C181.681 193.743 180.867 192.209 181.996 191.561C182.33 191.431 185.04 193.21 185.414 193.572Z" fill="#444243"/>
<path d="M309.694 197.594L308.89 197.192C309.172 195.939 311.011 193.457 311.504 191.964C311.825 193.222 310.301 196.684 309.694 197.594Z" fill="#6F6E6B"/>
<path d="M245.744 193.572V193.975C242.008 197.653 238.51 201.644 234.684 205.236L256.604 203.225C256.424 203.554 256.886 203.96 256 204.834C254.851 205.968 244.027 210.468 243.733 212.275C243.66 212.727 246.65 216.905 246.348 218.107L242.728 212.878L218.596 227.357C217.929 227.479 217.879 226.618 217.59 226.151L228.852 206.845C234.451 202.443 240.334 198.19 245.744 193.572Z" fill="#211F20"/>
<path d="M187.425 197.192C188.667 196.909 188.415 197.6 189.034 197.997C188.577 199.046 190.647 201.95 190.643 202.22C190.619 203.676 186.485 209.094 184.61 204.432C184.557 204.302 185.953 203.326 183.604 202.421C182.579 202.026 173.363 201.741 172.343 202.019C168.338 203.109 171.668 210.292 163.695 205.638C166.111 203.717 170.759 203.524 171.337 199.605C172.607 198.769 173.768 197.865 175.158 197.192C177.439 196.088 180.21 196.975 181.392 194.377C183.492 197.107 186.167 198.017 187.626 200.41C188.842 199.582 187.773 198.258 187.425 197.192Z" fill="#5D5C5C"/>
<path d="M204.72 204.432C210.302 207.273 216.572 208.54 222.015 211.671C219.107 214.104 216.672 217.091 213.568 219.313C207.101 212.788 200.821 214.15 193.257 212.074C190.722 211.377 180.329 207.464 184.61 204.432C186.485 209.094 190.619 203.676 190.643 202.22C190.647 201.95 188.577 199.046 189.034 197.997C189.36 198.205 190.727 199.173 191.045 199.002L192.252 194.779C196.073 198.103 200.65 202.36 204.72 204.432Z" fill="#C9C9C8"/>
<path d="M226.64 197.192C228.075 197.068 227.656 198.859 225.835 198.399C225.488 198.106 226.567 197.199 226.64 197.192Z" fill="#706F6D"/>
<path d="M309.694 197.594C309.517 197.861 309.418 198.215 309.091 198.399C308.165 197.705 308.755 197.793 308.89 197.192L309.694 197.594Z" fill="#C7C5C5"/>
<path d="M163.696 205.638C162.522 204.953 160.752 203.916 160.478 202.421C161.074 201.524 160.293 201.335 160.679 201.214C161.062 201.094 165.279 203.826 167.718 201.214C168.758 203.006 169.973 200.503 171.337 199.605C170.759 203.524 166.112 203.717 163.696 205.638Z" fill="#2A2827"/>
<path d="M179.583 205.236C180.301 204.859 180.432 206.581 179.985 206.845C179.798 206.955 178.911 205.589 179.583 205.236Z" fill="#7F7E7A"/>
<path d="M176.767 205.638C177.264 205.296 177.297 207.179 176.767 206.845C176.461 206.652 176.421 205.877 176.767 205.638Z" fill="#1B1B1C"/>
<path d="M217.59 226.151C216.008 223.593 216.268 222.038 213.568 219.313C216.673 217.091 219.107 214.104 222.015 211.671C224.499 209.593 226.643 208.582 228.852 206.845L217.59 226.151Z" fill="#767675"/>
<path d="M299.438 206.845C301.12 208.653 296.405 210.15 295.416 211.269L299.438 206.845Z" fill="#BAB6B4"/>
<path d="M174.957 219.715C171.915 220.39 170.165 219.574 169.326 223.335C168.64 223.418 165.528 224.987 164.701 224.542C164.298 224.325 161.744 215.823 160.679 224.944C159.678 224.79 161.026 223.259 160.277 222.531C160.093 222.352 159.27 224.809 158.869 223.134L162.69 217.704C164.728 218.311 163.914 220.159 166.31 218.509C166.848 228.463 169.994 214.122 172.946 215.895C172.93 212.982 172.176 211.79 173.147 208.856L179.784 220.721C179.037 222.509 178.739 219.333 178.376 219.313C177.963 219.291 178.597 221.295 177.37 219.917C175.559 217.88 174.597 214.436 173.952 212.878C172.538 214.127 174.052 218.589 174.957 219.715Z" fill="#464545"/>
<path d="M278.323 244.652C277.16 244.686 277.887 243.66 276.312 243.847C274.999 244.004 265.107 254.968 263.039 256.316C263.828 254.841 263.143 254.513 263.441 253.098C263.656 252.08 264.293 245.921 264.849 245.858L266.257 247.668C267.861 242.001 271.629 236.708 274.703 231.178L275.507 236.407L278.926 210.063C281.278 221.458 279.464 233.202 278.323 244.652Z" fill="#BDBCBB"/>
<path d="M251.174 211.671C251.644 214.491 252.691 218.688 251.576 221.324L251.174 211.671Z" fill="#313031"/>
<path d="M159.271 213.682C159.207 213.702 158.408 214.702 158.668 214.889C159.705 214.813 160.61 213.277 159.271 213.682C160.243 213.138 161.61 211.452 163.293 212.275L154.646 218.911C155.341 216.133 156.279 215.36 159.271 213.682ZM157.461 215.291C157.171 215.765 156.01 216.296 156.255 216.9C156.52 217.107 158.758 215.364 157.461 215.291Z" fill="#969594"/>
<path d="M194.062 212.878C195.409 214.526 201.698 215.015 202.307 216.297C203.283 218.354 193.83 214.267 194.062 212.878Z" fill="#414444"/>
<path d="M159.271 213.682C160.61 213.277 159.705 214.813 158.668 214.889C158.408 214.702 159.207 213.702 159.271 213.682Z" fill="#22211F"/>
<path d="M183.806 221.324L183.001 220.52C182.34 218.428 184.379 216.269 182.197 213.884C186.402 215.989 184.345 216.95 183.806 220.319C183.791 220.413 185.461 221.037 183.806 221.324Z" fill="#40403E"/>
<path d="M157.461 215.291C158.758 215.364 156.52 217.107 156.255 216.9C156.01 216.296 157.171 215.765 157.461 215.291Z" fill="black"/>
<path d="M242.326 216.9C244.379 218.825 245.589 221.458 246.348 224.14L242.326 216.9Z" fill="#3B3A39"/>
<path d="M188.632 219.715C188.607 219.638 187.442 219.271 187.827 218.308C189.466 216.619 190.668 218.107 190.844 218.107C199.771 218.103 203.513 219.037 207.133 227.961C202.87 221.248 196.824 215.284 188.632 219.715Z" fill="#3E3F40"/>
<path d="M236.695 217.704L241.521 229.368C240.071 225.571 236.695 221.788 236.695 217.704Z" fill="#3C3B3E"/>
<path d="M169.326 223.335C170.164 219.574 171.915 220.39 174.957 219.715C175.781 220.74 177.72 221.535 178.979 221.928C179.026 222.032 178.057 223.313 177.973 223.335C177.556 223.447 171.424 223.082 169.326 223.335Z" fill="#8C8B89"/>
<path d="M188.632 219.715L190.04 222.531C189.22 221.769 188.96 220.729 188.632 219.715Z" fill="#3E3F40"/>
<path d="M183.805 221.324C183.445 221.387 182.853 221.422 182.599 221.123C182.355 220.555 183.012 220.554 183.001 220.52L183.805 221.324Z" fill="#909088"/>
<path d="M157.059 220.922C155.614 224.916 155.961 227.282 157.863 230.977C155.546 228.678 153.395 222.211 157.059 220.922Z" fill="#3D3C3A"/>
<path d="M185.213 220.922C185.431 221.519 185.876 223.661 184.811 223.737C184.653 223.023 184.653 221.495 185.213 220.922Z" fill="#3A3839"/>
<path d="M192.051 222.531C194.338 221.953 194.03 224.091 192.051 223.737C191.456 223.631 191.385 222.699 192.051 222.531Z" fill="#2E2D2C"/>
<path d="M296.623 224.944C297.233 224.723 297.507 225.536 297.025 225.748C296.436 226.007 296.138 225.119 296.623 224.944Z" fill="#A5A2A1"/>
<path d="M188.632 226.955C189.828 230.934 187.157 231.221 183.805 231.379L178.979 226.955C182.645 226.816 184.903 226.734 188.632 226.955Z" fill="#B2B3B2"/>
<path d="M200.296 228.966C198.154 233.708 189.449 236.964 187.023 240.228L185.817 234.195C187.056 233.82 187.213 232.072 186.42 231.781C185.951 231.61 178.242 232.538 176.566 231.178C178.765 230.314 181.629 231.482 183.806 231.379C187.157 231.221 189.828 230.934 188.632 226.955C193.734 227.257 195.265 227.237 200.296 228.966Z" fill="#757473"/>
<path d="M301.248 230.575C299.498 230.19 297.135 228.763 296.824 226.754L301.248 230.575Z" fill="#A5A5A4"/>
<path d="M298.231 226.553C299.243 227.438 300.396 228.098 301.248 229.167C300.509 229.404 297.877 227.465 298.231 226.553Z" fill="#959594"/>
<path d="M178.979 226.955L183.806 231.379C181.629 231.482 178.765 230.314 176.566 231.178C178.242 232.538 185.951 231.61 186.42 231.781C187.213 232.072 187.056 233.82 185.817 234.195C182.869 235.087 170.564 233.204 169.125 233.792C166.733 234.771 172.789 238.147 172.946 238.619C172.98 238.719 172.935 238.88 172.946 239.021C173.009 239.828 171.988 241.721 171.74 242.641H171.337C171.585 241.72 172.424 239.575 171.74 238.82C170.843 242.114 168.059 244.681 166.511 247.467C165.017 243.087 161.671 238.191 162.087 233.39C162.298 230.956 164.227 228.972 165.908 227.357C170.269 227.63 174.623 227.12 178.979 226.955Z" fill="#DFDFDE"/>
<path d="M187.023 240.228C189.449 236.964 198.154 233.708 200.296 228.966C201.452 229.363 202.328 228.434 203.916 229.972C204.181 230.228 207.476 236.042 207.535 236.407C208.495 242.334 199.976 244.623 195.671 245.054C193.244 245.297 192.607 245.009 189.638 243.847C188.127 243.257 184.432 243.714 187.023 240.228Z" fill="#AEAEAD"/>
<path d="M230.662 228.966C231.054 229.139 233.08 231.522 232.271 231.781C231.605 231.069 230.254 230.139 230.662 228.966Z" fill="#383838"/>
<path d="M233.477 229.368C234.272 230.21 235.528 231.761 235.488 232.988C234.733 232.09 233.225 230.684 233.477 229.368Z" fill="#2F2F2F"/>
<path d="M159.07 232.184C160.002 232.883 159.785 234.431 159.473 235.401C158.383 235.254 158.87 232.902 159.07 232.184Z" fill="#4E4E49"/>
<path d="M206.128 232.184C206.389 232.15 207.091 233.318 206.53 233.39C206.268 233.424 205.567 232.256 206.128 232.184Z" fill="#A4A3A3"/>
<path d="M162.087 233.39C161.67 238.191 165.017 243.087 166.511 247.467C164.689 250.747 163.696 255.688 160.679 258.729C162.089 254.772 164.126 251.982 164.902 248.071C162.378 249.125 160.954 252.234 159.472 254.305C159.34 252.632 160.77 252.118 160.478 250.283C160.394 249.751 160.385 249.556 160.076 249.076C160.933 247.829 161.845 246.163 162.891 245.255L161.886 244.652L154.847 247.668C155.257 245.537 162.576 244.229 162.489 243.244C162.423 242.505 160.252 242.082 160.076 241.635C159.625 240.492 161.555 237.018 160.478 235.2L162.087 233.39Z" fill="#312F2E"/>
<path d="M206.932 233.792L207.535 233.994L207.334 234.597L207.133 234.396L206.932 233.792Z" fill="#A3A2A2"/>
<path d="M172.946 239.021C172.935 238.88 172.979 238.719 172.946 238.619C176.209 238.52 176.676 235.717 180.186 238.016C176.224 240.325 173.026 247.429 171.337 251.69C169.03 257.514 167.198 263.695 167.114 269.99C165.788 259.575 171.971 249.092 175.359 239.624L172.946 239.021Z" fill="#413F3E"/>
<path d="M181.191 239.825C182.292 240.006 181.785 242.35 181.593 243.043C180.504 242.896 180.99 240.544 181.191 239.825Z" fill="#1E1E1D"/>
<path d="M215.78 240.63C218.364 243.849 220.695 247.462 221.813 251.489L215.78 240.63Z" fill="#474747"/>
<path d="M171.739 242.641C170.962 245.524 169.64 248.27 169.326 251.288L166.712 255.511C168.083 251.213 170.163 247.006 171.337 242.641H171.739Z" fill="#444240"/>
<path d="M179.984 243.445L183.604 254.707C181.485 251.337 180.31 247.409 179.984 243.445Z" fill="#3E3D3B"/>
<path d="M276.312 243.847C269.702 255.519 262.421 266.766 255.799 278.437C248.25 291.743 241.134 305.097 234.885 319.059C234.668 319.544 234.295 319.78 234.081 320.265C231.055 319.714 228.438 317.618 226.037 315.841C226.282 315.584 228.99 310.286 229.053 309.406L224.026 316.243C221.835 315.463 213.688 303.875 211.155 301.764C232.248 292.275 243.02 271.764 257.006 254.908C257.435 254.391 258.563 252.804 259.419 253.5C257.705 256.734 256.51 260.325 256.001 263.957C257.473 261.256 261.727 258.769 263.039 256.316C265.107 254.968 274.999 244.003 276.312 243.847Z" fill="#1D1C1C"/>
<path d="M177.169 245.054C179.396 245.035 176.3 258.7 176.164 260.137C176.074 261.081 176.435 269.588 175.962 269.588C174.38 262.625 176.664 255.786 177.37 248.875L175.56 251.891L177.169 245.054Z" fill="#3C3B39"/>
<path d="M186.018 247.467C191.892 256.879 194.666 273.465 187.626 282.861C192.421 271.358 190.666 258.7 186.018 247.467Z" fill="#565556"/>
<path d="M160.478 250.283C156.816 254.034 156.375 259.244 155.651 264.159C155.486 259.873 155.702 254.589 158.064 250.886C158.595 250.055 159.956 249.25 160.075 249.076C160.385 249.556 160.393 249.751 160.478 250.283Z" fill="#5B5A58"/>
<path d="M205.323 249.076C206.615 249.482 209.611 256.538 208.943 256.718L205.323 249.076Z" fill="#414141"/>
<path d="M263.441 253.098C263.143 254.513 263.828 254.841 263.039 256.316C261.727 258.769 257.473 261.256 256 263.957C256.51 260.325 257.705 256.734 259.419 253.5C260.541 251.384 260.257 250.242 261.631 253.902L263.441 253.098Z" fill="#888886"/>
<path d="M178.778 257.522C180.525 260.641 179.194 264.556 179.18 267.979L178.778 257.522Z" fill="#2E2C2C"/>
<path d="M171.94 259.935C172.64 260.092 170.392 265.384 170.332 265.968C169.385 265.817 171.456 260.474 171.94 259.935Z" fill="#252523"/>
<path d="M207.736 260.338C208.619 260.461 205.653 274.53 204.921 275.621C205.371 270.471 206.538 265.357 207.736 260.338Z" fill="#3E3B3B"/>
<path d="M155.45 273.61C156.061 273.389 156.335 274.203 155.852 274.415C155.264 274.673 154.966 273.786 155.45 273.61Z" fill="#6E686A"/>
<path d="M261.43 293.318C255.28 307.251 250.963 321.961 244.538 335.549L248.56 304.379L239.309 315.64C238.878 317.12 239.232 318.359 238.907 319.863L234.885 319.059C241.133 305.097 248.25 291.743 255.799 278.437L261.43 293.318Z" fill="#807F7F"/>
<path d="M164.098 307.797C164.996 310.155 171.244 321.483 173.147 322.276C173.873 322.579 188.191 323.937 188.833 323.483C189.018 313.444 185.165 304.427 182.8 294.927C188.017 307.646 195.71 320.255 200.698 332.935C201.472 334.903 204.634 343.254 204.318 344.599C204.155 345.293 203.036 343.857 203.111 345.001C204.535 345.669 211.752 349.469 212.362 348.621C212.413 348.04 211.574 347.245 211.557 346.811C212.635 347.73 220.918 351.792 221.612 350.632L217.792 332.331C220.352 335.233 221.312 336.603 222.015 340.375C222.661 343.846 222.474 347.518 222.819 351.034C223.306 352.265 230.777 352.857 231.667 352.24C232.233 351.849 234.869 340.65 235.287 338.968C236.843 332.709 237.553 326.126 238.907 319.863C239.232 318.359 238.878 317.12 239.309 315.64L248.56 304.379L244.538 335.549C243.375 338.007 241.062 341.124 240.114 343.794C239.767 344.77 241.214 343.617 240.918 344.599C240.671 345.416 238.993 346.639 239.309 347.615C238.687 348.454 238.351 349.569 237.298 350.229C241.889 350.106 245.812 347.751 249.766 346.006C250.198 345.816 250.793 345.946 251.174 345.202L250.772 346.811C251.264 346.937 252.293 345.985 252.381 346.006C253.097 346.186 261.882 351.137 261.832 351.838C258.888 354.265 255.062 356.569 251.576 358.072C239.884 363.113 230.165 365.44 217.792 362.496C187.991 355.406 142.815 321.278 152.434 285.877C153.372 282.425 159.692 276.034 162.489 281.453C160.485 290.045 160.955 299.55 164.098 307.797Z" fill="#252425"/>
<path d="M189.034 286.883L207.535 322.88L210.351 308.199C211.624 321.581 211.041 333.588 211.557 346.811C211.574 347.245 212.412 348.04 212.362 348.621C211.752 349.469 204.535 345.669 203.111 345.001C203.036 343.857 204.155 345.293 204.318 344.599C204.634 343.254 201.472 334.903 200.698 332.935C195.71 320.255 188.017 307.646 182.8 294.927C185.165 304.427 189.018 313.444 188.833 323.483C188.191 323.937 173.873 322.579 173.147 322.276C171.244 321.483 164.996 310.155 164.098 307.797C162.554 299.173 160.935 290.401 163.092 281.654C170.73 286.748 180.053 288.16 189.034 286.883Z" fill="#FDFDFE"/>
<path d="M182.398 282.459C183.74 283.32 178.679 285.448 178.175 285.073L182.398 282.459Z" fill="#9E989C"/>
<path d="M411.451 417.196V417.598H76.8202V417.196C78.178 417.176 86.5804 417.401 86.8752 416.995C85.7619 403.921 83.9781 390.795 79.0323 378.584L83.8587 409.956L43.0354 381.199L76.0158 417.196C66.9088 417.3 57.7748 417.164 48.6662 417.196C44.7439 409.196 40.4669 401.249 35.7958 393.667C31.082 386.016 24.9373 376.336 19.7078 369.133C17.4884 366.076 14.7435 361.462 10.8594 360.485C14.0573 357.981 17.899 356.229 21.5177 354.452C32.9718 348.828 43.5514 344.765 53.8948 337.56C59.0462 333.972 64.1203 330.226 69.1784 326.5C69.1394 326.074 62.4327 323.003 61.5366 322.679L77.8257 324.69C79.3022 323.291 69.3308 321.073 68.9773 320.265C68.5763 319.35 73.8865 318.581 66.363 316.445C70.1702 312.932 77.2132 317.813 81.4455 315.037C81.8819 314.751 85.8174 308.631 86.473 307.596C86.5333 307.501 88.1425 305.063 86.8752 305.384C98.4513 300.47 106.774 298.634 118.448 294.927C128.976 291.583 139.369 287.647 149.82 284.067C147.936 302.517 151.722 316.324 163.293 330.522C176.522 346.753 213.077 368.712 233.477 366.921C239.72 366.372 254.052 359.515 260.022 356.463C264.909 353.966 263.593 351.5 269.474 356.665L243.13 375.367C240.032 375.433 227.903 380.451 225.835 379.791C224.91 379.496 226.192 376.46 225.433 375.367C224.961 374.687 217.001 373.244 216.183 373.758L216.987 379.791L112.013 345.202C139.025 357.456 166.792 367.86 195.469 375.568L166.712 395.879L117.241 357.268L163.695 398.493L138.558 417.196H225.031L231.064 403.521L237.499 417.196H411.451ZM156.456 347.615C157.253 348.236 157.872 349.537 159.271 349.425C158.937 348.422 157.198 348.063 156.456 347.615C139.288 334.248 121.038 322.092 102.963 310.009C120.88 321.862 138.128 336.559 156.456 347.615ZM83.8587 342.386C89.4384 366.946 96.7367 391.455 94.9192 416.995C96.2119 417.127 104.371 417.481 104.773 417.196C105.253 416.858 105.587 410.266 105.98 409.152C106.702 411.207 106.23 419.87 110.002 417.196C111.97 415.8 112.355 374.372 110.203 369.133C104.785 373.25 105.134 379.76 102.762 385.422L101.757 384.819L83.8587 342.386ZM93.1093 343.191C93.857 348.198 96.1729 352.834 97.5335 357.67C98.1931 355.522 96.3864 352.633 95.7236 350.632C94.8971 348.136 94.4535 345.502 93.1093 343.191ZM162.087 351.637C162.153 351.67 162.614 352.989 163.293 352.24C163.066 351.616 162.137 351.683 162.087 351.637C161.525 351.123 161.209 350.05 160.076 350.229C160.158 351.104 161.553 351.369 162.087 351.637Z" fill="#252424"/>
<path d="M210.753 301.764C210.866 302.634 210.138 305.962 210.351 308.199L207.535 322.88L189.034 286.883C190.953 286.61 196.088 284.409 196.475 284.47C197.583 284.643 210.608 300.652 210.753 301.764Z" fill="#BABABA"/>
<path d="M224.026 316.243C224.68 316.476 225.782 316.108 226.037 315.841C228.438 317.618 231.055 319.714 234.081 320.265C232.944 322.838 227.254 339.562 225.835 339.571C225.585 339.573 222.93 336.966 222.015 340.375C221.312 336.603 220.352 335.233 217.791 332.331L221.612 350.632C220.918 351.792 212.634 347.73 211.557 346.811C211.041 333.588 211.624 321.581 210.351 308.199C210.138 305.962 210.866 302.634 210.753 301.764H211.155C213.688 303.875 221.835 315.463 224.026 316.243Z" fill="#737373"/>
<path d="M61.5368 322.679C59.0713 321.786 56.3633 321.58 53.895 320.668C64.7235 315.352 75.7719 310.098 86.8754 305.384C88.1428 305.063 86.5336 307.501 86.4732 307.596C85.8176 308.631 81.8821 314.75 81.4457 315.037C77.2134 317.813 70.1705 312.932 66.3632 316.445C73.8868 318.581 68.5765 319.35 68.9775 320.265C69.3311 321.073 79.3024 323.291 77.8259 324.69L61.5368 322.679Z" fill="#403E3F"/>
<path d="M226.036 315.841C225.782 316.108 224.679 316.476 224.025 316.243L229.053 309.406C228.989 310.286 226.281 315.584 226.036 315.841Z" fill="#080707"/>
<path d="M156.456 347.615C138.128 336.559 120.88 321.862 102.963 310.009C121.038 322.092 139.288 334.248 156.456 347.615Z" fill="#080808"/>
<path d="M238.907 319.863C237.553 326.126 236.843 332.709 235.287 338.968C234.869 340.65 232.233 351.849 231.667 352.24C230.777 352.857 223.306 352.265 222.819 351.034C222.474 347.518 222.661 343.846 222.015 340.375C222.93 336.966 225.585 339.573 225.836 339.571C227.254 339.562 232.944 322.838 234.081 320.265C234.295 319.78 234.668 319.544 234.885 319.059L238.907 319.863Z" fill="#FDFDFD"/>
<path d="M53.895 320.668C56.3633 321.58 59.0713 321.786 61.5368 322.679C62.4329 323.003 69.1396 326.074 69.1786 326.5C64.1205 330.226 59.0463 333.972 53.895 337.56C43.0291 339.102 31.9468 341.766 20.9146 340.375C27.7124 331.848 43.8782 325.585 53.895 320.668Z" fill="#5B5A5A"/>
<path d="M249.767 344.8C247.186 346.164 244.164 345.429 241.32 345.604C242.147 344.348 247.017 335.045 247.957 335.147C252.359 339.893 250.661 339.983 249.767 344.8Z" fill="#999898"/>
<path d="M53.8948 337.56C43.5515 344.765 32.9719 348.828 21.5177 354.452C17.899 356.229 14.0574 357.981 10.8594 360.485C10.7421 360.456 10.5842 360.49 10.4572 360.485C10.0439 360.471 9.76227 361.295 9.65283 360.485C12.3149 354.31 16.7479 345.602 20.9144 340.375C31.9467 341.766 43.029 339.102 53.8948 337.56Z" fill="#3B3A3A"/>
<path d="M343.68 340.778C344.869 340.766 343.689 342.21 343.479 342.588C340.421 348.075 333.401 357.546 329.402 362.698C326.338 366.644 309.348 384.548 308.89 387.634C308.875 387.733 310.2 389.06 310.298 389.042C312.582 388.606 320.001 376.136 323.369 375.166C321.745 389.767 315.05 403.321 309.493 416.794L285.562 416.592L300.444 385.623C298.556 385.863 298.13 381.529 297.829 381.4L280.133 416.794L253.386 416.592C254.432 413.693 255.079 410.157 256.202 407.342C259.433 399.238 284.761 366.907 292.199 363.301C292.949 362.937 301.343 360.056 301.851 360.083C304.213 360.213 303.012 362.876 303.259 363.502C303.627 364.434 306.93 363.24 307.08 365.312C308.264 362.089 308.871 356.079 311.906 354.05C314.757 352.145 326.009 349.869 330.408 348.017C335.062 346.059 339.33 343.297 343.68 340.778Z" fill="#0E0D0D"/>
<path d="M83.8589 342.386L101.757 384.819L102.762 385.422C105.134 379.76 104.785 373.25 110.203 369.133C112.356 374.372 111.97 415.8 110.002 417.196C106.23 419.87 106.703 411.207 105.98 409.152C105.587 410.266 105.254 416.858 104.773 417.196C104.371 417.481 96.2121 417.127 94.9194 416.995C96.7369 391.455 89.4386 366.946 83.8589 342.386Z" fill="black"/>
<path d="M93.1094 343.191C94.4535 345.502 94.8972 348.136 95.7237 350.632C96.3865 352.633 98.1932 355.522 97.5336 357.67C96.1729 352.834 93.8571 348.198 93.1094 343.191Z" fill="#0F0F0E"/>
<path d="M249.766 346.006C245.812 347.751 241.889 350.106 237.298 350.229C238.351 349.569 238.687 348.454 239.309 347.615C239.721 347.059 240.684 346.571 241.32 345.604C244.163 345.429 247.186 346.164 249.766 344.8C249.755 344.859 250.564 345.224 249.766 346.006Z" fill="#FCFCFC"/>
<path d="M156.456 347.615C157.199 348.063 158.938 348.422 159.271 349.425C157.872 349.537 157.253 348.236 156.456 347.615Z" fill="#080808"/>
<path d="M162.087 351.637C161.553 351.369 160.159 351.104 160.076 350.229C161.209 350.05 161.525 351.123 162.087 351.637Z" fill="#080808"/>
<path d="M162.086 351.637C162.136 351.683 163.065 351.616 163.293 352.24C162.614 352.989 162.153 351.67 162.086 351.637Z" fill="#080808"/>
<path d="M10.4571 360.485L45.0463 417.196C29.9029 417.24 14.7411 417.164 -0.402344 417.196V401.51C0.463175 401.731 0.669351 399.914 0.804257 399.298C2.78512 390.249 5.53345 380.325 7.23946 371.546C7.32271 371.118 7.94053 367.679 6.43506 368.529C7.42938 365.386 8.3914 363.411 9.65266 360.485C9.7621 361.295 10.0438 360.471 10.4571 360.485Z" fill="#2D2B2C"/>
<path d="M48.666 417.196C47.4639 417.2 46.2484 417.192 45.0462 417.196L10.457 360.485C10.584 360.49 10.7419 360.456 10.8592 360.485C14.7433 361.462 17.4883 366.076 19.7076 369.133C24.9371 376.336 31.0819 386.016 35.7956 393.667C40.4668 401.249 44.7438 409.196 48.666 417.196Z" fill="#010101"/>
<path d="M-0.402344 401.51V394.27C0.327543 394.513 0.658077 393.348 0.804257 392.863C3.10485 385.223 3.9598 376.355 6.43506 368.529C7.94053 367.679 7.32271 371.118 7.23946 371.546C5.53345 380.325 2.78512 390.249 0.804257 399.298C0.669351 399.914 0.463175 401.731 -0.402344 401.51Z" fill="#434344"/>
<path d="M76.8205 417.196C76.5546 417.2 76.2819 417.192 76.0161 417.196L43.0356 381.199L83.859 409.956L79.0326 378.584C83.9784 390.795 85.7622 403.921 86.8755 416.995C86.5806 417.401 78.1783 417.176 76.8205 417.196Z" fill="black"/>
<path d="M45.0463 417.196C46.2484 417.192 47.4639 417.2 48.6661 417.196C57.7747 417.163 66.9087 417.3 76.0157 417.196C76.2815 417.192 76.5542 417.2 76.8201 417.196V417.598H-0.402344V417.196C14.7411 417.163 29.9029 417.24 45.0463 417.196Z" fill="#6E6B6C"/>
</g>
<defs>
<clipPath id="clip0_10_5055">
<rect width="413.082" height="413.082" fill="white" transform="translate(22.1289 413.082) rotate(-90)"/>
</clipPath>
<clipPath id="clip1_10_5055">
<rect width="411.853" height="411.853" fill="white" transform="translate(0 6.14717)"/>
</clipPath>
</defs>
</svg>
